<?xml version="1.0" encoding="utf-8"?>
<!-- Generator: Adobe Illustrator 25.2.0, SVG Export Plug-In . SVG Version: 6.00 Build 0)  -->
<svg version="1.1" xmlns="http://www.w3.org/2000/svg" xmlns:xlink="http://www.w3.org/1999/xlink" x="0px" y="0px"
	 viewBox="0 0 500 500" style="enable-background:new 0 0 500 500;" xml:space="preserve">
<style type="text/css">
	.st0{opacity:0.41;}
	.st1{fill:#E1E2FE;}
	.st2{opacity:0.31;}
	.st3{opacity:0.47;fill:#ECF1F7;}
	.st4{opacity:0.47;fill:#E1E2FE;}
	.st5{opacity:0.81;fill:#E1E2FE;}
	.st6{opacity:0.58;fill:#3E479B;}
	.st7{opacity:0.58;fill:#EF929C;}
	.st8{opacity:0.73;}
	.st9{fill:#FFFFFF;}
	.st10{opacity:0.69;}
	.st11{opacity:0.55;}
	.st12{opacity:0.38;}
	.st13{opacity:0.61;}
	.st14{opacity:0.74;fill:#6D6CD4;}
	.st15{fill:#3E479B;}
	.st16{fill:#599AF2;}
	.st17{fill:#F7A9B4;}
	.st18{fill:none;}
	.st19{fill:#4C65BA;}
	.st20{opacity:0.36;fill:#599AF2;}
	.st21{opacity:0.43;fill:#FFFFFF;}
	.st22{opacity:0.36;}
	.st23{opacity:0.26;}
	.st24{opacity:0.57;}
	.st25{opacity:0.39;fill:#FFFFFF;}
	.st26{opacity:0.39;fill:#F7A9B4;}
	.st27{opacity:0.22;fill:#3E479B;}
	.st28{opacity:0.32;fill:#599AF2;}
	.st29{opacity:0.42;fill:#599AF2;}
	.st30{opacity:0.38;fill:#FFFFFF;}
</style>
<g id="BACKGROUND">
	<g>
		<g>
			<g class="st0">
				<g>
					<g>
						<path class="st1" d="M478.85,296.7c0.43-7.37,0.24-14.78-0.59-22.11c-3.9-34.45-21.58-66.94-47.59-89.86
							c-9.28-8.18-19.84-15.5-25.88-26.3c-10.17-18.18-9.4-39.07-22.02-57.02c-12.64-17.97-31.05-31.98-51.82-39.18
							c-61.93-21.46-148.62,13.48-140.82,88.09c0.03,0.27,0.06,0.66,0.09,1.15c1.04,15.5-11.13,28.53-26.61,28.9
							c-57.14,1.36-106.32,45.41-116.84,101.21c-6.77,35.89,4.31,75.22,30.56,100.6c19.59,18.95,45.89,29.36,72.19,36.51
							c52.74,14.34,108.24,17.35,162.62,11.86c50.9-5.13,104.59-19.77,137.51-58.93C467.21,350.75,477.27,323.96,478.85,296.7z"/>
					</g>
				</g>
			</g>
			<g class="st2">
				
					<ellipse transform="matrix(0.9252 -0.3796 0.3796 0.9252 -0.2997 85.6974)" class="st1" cx="217.16" cy="43.61" rx="13.29" ry="13.29"/>
			</g>
			<g class="st2">
				<circle class="st1" cx="469.7" cy="199.15" r="6.86"/>
			</g>
			<g class="st2">
				
					<ellipse transform="matrix(0.6639 -0.7478 0.7478 0.6639 -2.8827 140.3211)" class="st1" cx="154.66" cy="73.37" rx="9.19" ry="9.19"/>
			</g>
			<g class="st2">
				<circle class="st1" cx="48.68" cy="406.7" r="20.93"/>
			</g>
		</g>
	</g>
	<g>
		<g>
			<path class="st3" d="M476.5,93.23c5.97-11.62,1.38-25.88-10.24-31.84c-11.62-5.97-33.95-5.53-39.92,6.09
				c-5.97,11.62,11.92,21.59,19.21,32.43C455.73,115.02,470.53,104.85,476.5,93.23z"/>
			<path class="st4" d="M422.7,439.1c8.41,5.43,19.62,3.01,25.05-5.39s6.78-25.46-1.62-30.89c-8.41-5.43-17.36,7.45-26.18,12.19
				C407.66,421.62,414.3,433.67,422.7,439.1z"/>
			<path class="st4" d="M79.54,28.63c-9.25-8.59-23.71-8.05-32.29,1.19c-8.59,9.25-14.02,30.13-4.77,38.72
				c9.25,8.59,23.2-5.44,35.19-9.39C94.37,53.65,88.78,37.22,79.54,28.63z"/>
		</g>
		<g>
			<path class="st4" d="M453.79,350.18c8.16-17.53,11.41-36.98,7.2-57.52c-4.65-22.68-18.77-40.1-13.87-64.29
				c2.98-14.74,3.73-28.39,5.24-42.97c3.11-29.94-16.33-56.32-40.45-70.57c-19.59-11.57-42.55-15.91-65.07-15.6
				c-20.27,0.28-40.5,4.02-60.14,9.05c-18.93,4.85-37.43,11.24-57.27,9.22c-16.5-1.68-31.36-8.81-46.73-14.13
				c-36.69-12.7-81.12-14.49-114.67,4.84c-21.53,12.41-36.6,32.55-43.28,54.22c-5.34,17.31-6.02,33.5-2.02,51.17
				c3.7,16.36,9.45,32.39,9.29,49.36c-0.17,17.32-9.08,32.78-5.57,50.59c2.48,12.6,10.04,23.66,18.78,33.07
				c24.04,25.9,57.6,41.54,92.14,48.98c45.98,9.91,92.86,0.45,138.44,10.31c29.89,6.47,59.49,18.95,90.61,14.07
				c19.44-3.05,37.54-12.54,52.48-25.35C433.58,382.09,445.95,367.02,453.79,350.18z"/>
			<g>
				<path class="st5" d="M411.84,322.59c1.27-14.29-3.55-29.02,0.48-43.17c4.82-16.95,18.79-29.64,24.48-46.28
					c8.41-24.58,8.01-52.13-2.21-76.09c-4.92-11.55-12.11-22.27-21.93-29.69c-15.14-11.44-34.97-13.95-53.63-12.5
					c-27.76,2.16-57.06,14.18-84.97,10.9c-15.4-1.81-20.11-18.48-28.06-29.48c-9-12.44-21.25-22.21-34.8-28.71
					c-24.95-11.98-54.9-13.11-80.4-2.25c-27.23,11.6-50.96,39.91-49.4,71.94c0.72,14.82,6.65,29.53,3.91,44.09
					c-3.45,18.27-17.21,34.92-27.19,49.8c-11.02,16.44-17.69,36.04-18.99,56.04c-0.01,0.23-0.03,0.45-0.04,0.68
					c-2.05,34.5,19.72,65.97,52.55,76.77c0,0,69.86,22.98,69.86,22.98c70.89,23.31,141.71,22.54,206.89-11.67
					c14.1-7.4,37.07-29.46,41.8-44.67C411.07,328.4,411.58,325.5,411.84,322.59z"/>
			</g>
		</g>
	</g>
	<circle class="st6" cx="467.65" cy="381.58" r="4.5"/>
	<circle class="st6" cx="259.77" cy="30.86" r="4.5"/>
	<circle class="st6" cx="97.21" cy="423.08" r="4.5"/>
	<circle class="st7" cx="381.24" cy="442" r="3.5"/>
	<circle class="st7" cx="452.13" cy="460.07" r="4.5"/>
	<circle class="st6" cx="76.39" cy="82.56" r="1.5"/>
	<path class="st7" d="M396.86,62.76c-0.62,2.92-3.49,4.78-6.41,4.16c-2.92-0.62-4.78-3.49-4.16-6.41c0.62-2.92,3.49-4.78,6.41-4.16
		C395.63,56.97,397.49,59.84,396.86,62.76z"/>
	<path class="st7" d="M108.07,35.8c-0.24,1.14-1.37,1.87-2.52,1.63c-1.14-0.24-1.87-1.37-1.63-2.52c0.24-1.14,1.37-1.87,2.52-1.63
		C107.59,33.53,108.32,34.66,108.07,35.8z"/>
	<path class="st6" d="M445.83,29.02c-0.21,0.97-1.16,1.59-2.14,1.39s-1.59-1.16-1.39-2.14c0.21-0.97,1.16-1.59,2.14-1.39
		C445.42,27.09,446.04,28.05,445.83,29.02z"/>
	<path class="st6" d="M64.78,458.64c-0.21,0.97-1.16,1.59-2.14,1.39s-1.59-1.16-1.39-2.14c0.21-0.97,1.16-1.59,2.14-1.39
		C64.37,456.71,64.99,457.67,64.78,458.64z"/>
</g>
<g id="OBJECTS">
	<g>
		<g class="st8">
			<g>
				<path class="st9" d="M127.91,199.05c-0.49,0-0.99-0.07-1.48-0.2l-8.4-2.3c-2.96-0.81-4.7-3.87-3.89-6.83l2.81-10.26
					c-5.14-2.65-9.68-6.17-13.53-10.49l-9.24,5.27c-1.29,0.74-2.79,0.92-4.22,0.53c-1.43-0.39-2.63-1.32-3.36-2.61l-4.31-7.57
					c-1.52-2.66-0.59-6.06,2.07-7.58l9.24-5.27c-1.76-5.51-2.48-11.21-2.14-16.98l-10.26-2.81c-2.96-0.81-4.7-3.87-3.89-6.83
					l2.3-8.4c0.81-2.96,3.87-4.7,6.83-3.89l10.26,2.81c2.65-5.14,6.17-9.68,10.49-13.53l-5.27-9.24c-0.74-1.29-0.92-2.79-0.53-4.22
					c0.39-1.43,1.32-2.63,2.61-3.36l7.57-4.31c2.66-1.52,6.06-0.59,7.58,2.07l5.27,9.24c5.51-1.76,11.21-2.48,16.98-2.14l2.81-10.26
					c0.81-2.96,3.87-4.7,6.83-3.89l8.4,2.3c2.96,0.81,4.7,3.87,3.89,6.83l-2.81,10.26c5.14,2.65,9.68,6.17,13.53,10.49l9.24-5.27
					c1.29-0.74,2.79-0.92,4.22-0.53c1.43,0.39,2.63,1.32,3.36,2.61l4.31,7.56c0.74,1.29,0.92,2.79,0.53,4.22
					c-0.39,1.43-1.32,2.63-2.61,3.36l-9.24,5.27c1.76,5.51,2.48,11.21,2.14,16.98l10.26,2.81c1.43,0.39,2.63,1.32,3.36,2.61
					c0.74,1.29,0.92,2.79,0.53,4.22l-2.3,8.4c-0.81,2.96-3.87,4.7-6.83,3.89l-10.26-2.81c-2.65,5.14-6.17,9.68-10.49,13.53
					l5.27,9.24c0.74,1.29,0.92,2.79,0.53,4.22c-0.39,1.43-1.32,2.63-2.61,3.36l-7.56,4.31c-1.29,0.74-2.79,0.92-4.22,0.53
					c-1.43-0.39-2.63-1.32-3.36-2.61l-5.27-9.24c-5.51,1.76-11.21,2.48-16.98,2.14l-2.81,10.26c-0.39,1.43-1.32,2.63-2.61,3.36
					C129.8,198.8,128.86,199.05,127.91,199.05z M104.08,165.14l0.81,0.95c4.01,4.75,8.88,8.52,14.48,11.23l1.12,0.54l-3.46,12.65
					c-0.18,0.66-0.09,1.35,0.25,1.94c0.34,0.59,0.89,1.02,1.55,1.2l8.4,2.3c0.66,0.18,1.35,0.09,1.94-0.25
					c0.59-0.34,1.02-0.89,1.2-1.55l3.46-12.65l1.24,0.1c6.2,0.52,12.31-0.25,18.18-2.29l1.18-0.41l6.5,11.39
					c0.34,0.59,0.89,1.02,1.55,1.2c0.66,0.18,1.35,0.09,1.94-0.25l7.56-4.32c0.59-0.34,1.02-0.89,1.2-1.55
					c0.18-0.66,0.09-1.35-0.25-1.94l-6.5-11.39l0.95-0.81c4.74-4.01,8.52-8.88,11.23-14.48l0.54-1.12l12.65,3.46
					c1.36,0.37,2.77-0.43,3.14-1.79l2.3-8.4c0.18-0.66,0.09-1.35-0.25-1.94c-0.34-0.59-0.89-1.02-1.55-1.2l-12.65-3.46l0.1-1.24
					c0.52-6.19-0.25-12.31-2.29-18.18l-0.41-1.18l11.39-6.5c0.59-0.34,1.02-0.89,1.2-1.55c0.18-0.66,0.09-1.35-0.25-1.94l-4.32-7.56
					c-0.34-0.59-0.89-1.02-1.55-1.2c-0.66-0.18-1.35-0.09-1.94,0.25l-11.39,6.5l-0.81-0.95c-4.01-4.75-8.88-8.52-14.48-11.23
					l-1.12-0.54l3.46-12.65c0.18-0.66,0.09-1.35-0.25-1.94c-0.34-0.59-0.89-1.02-1.55-1.2l-8.4-2.3c-1.36-0.37-2.77,0.43-3.14,1.79
					l-3.46,12.65l-1.24-0.1c-6.2-0.52-12.31,0.25-18.18,2.29l-1.18,0.41l-6.5-11.39c-0.34-0.59-0.89-1.02-1.55-1.2
					c-0.66-0.18-1.35-0.09-1.94,0.25l-7.56,4.31c-0.59,0.34-1.02,0.89-1.2,1.55c-0.18,0.66-0.09,1.35,0.25,1.94l6.5,11.39
					l-0.95,0.81c-4.75,4.01-8.52,8.88-11.23,14.48l-0.54,1.12l-12.65-3.46c-0.66-0.18-1.35-0.09-1.94,0.25
					c-0.59,0.34-1.02,0.89-1.2,1.55l-2.3,8.4c-0.18,0.66-0.09,1.35,0.25,1.94c0.34,0.59,0.89,1.02,1.55,1.2l12.65,3.46l-0.1,1.24
					c-0.52,6.19,0.25,12.31,2.29,18.18l0.41,1.18l-11.39,6.5c-0.59,0.34-1.02,0.89-1.2,1.55c-0.18,0.66-0.09,1.35,0.25,1.94
					l4.31,7.57c0.34,0.59,0.89,1.02,1.55,1.2c0.66,0.18,1.35,0.09,1.94-0.25L104.08,165.14z M138.76,162.49
					c-2.22,0-4.45-0.3-6.65-0.9l0,0c-6.46-1.77-11.84-5.94-15.15-11.75c-3.32-5.81-4.17-12.57-2.4-19.02
					c1.77-6.46,5.94-11.84,11.75-15.15c5.81-3.32,12.57-4.17,19.02-2.4c6.45,1.77,11.84,5.94,15.15,11.75
					c3.32,5.81,4.17,12.57,2.4,19.02c-1.77,6.46-5.94,11.84-11.75,15.15C147.3,161.38,143.06,162.49,138.76,162.49z M138.69,115.36
					c-3.78,0-7.52,0.98-10.89,2.91c-5.12,2.92-8.79,7.66-10.35,13.34c-1.55,5.68-0.8,11.63,2.12,16.75
					c2.92,5.12,7.66,8.79,13.34,10.35c5.68,1.55,11.63,0.8,16.75-2.12s8.79-7.66,10.35-13.34c1.55-5.68,0.8-11.63-2.11-16.75
					c-2.92-5.12-7.66-8.79-13.34-10.35C142.61,115.62,140.64,115.36,138.69,115.36z"/>
			</g>
		</g>
		<g class="st10">
			<path class="st9" d="M371.08,171.99l-56.58,1.03c-1.63,0.03-2.98-1-3.01-2.3l-0.68-37.57c-0.02-1.3,1.29-2.38,2.92-2.41
				l56.58-1.03c1.64-0.03,2.98,1,3.01,2.3l0.68,37.57C374.03,170.87,372.72,171.96,371.08,171.99z M313.75,131.43
				c-1.25,0.02-2.25,0.78-2.23,1.7l0.68,37.57c0.02,0.91,1.05,1.64,2.29,1.62l56.58-1.03c1.25-0.02,2.25-0.78,2.23-1.7l-0.68-37.57
				c-0.02-0.91-1.05-1.64-2.29-1.62L313.75,131.43z"/>
			
				<rect x="311.26" y="137.88" transform="matrix(0.9998 -0.0182 0.0182 0.9998 -2.4533 6.2318)" class="st9" width="61.44" height="0.7"/>
			<path class="st9" d="M315.69,136.54c-0.73,0.01-1.33-0.57-1.35-1.3c-0.01-0.73,0.57-1.33,1.3-1.35c0.73-0.01,1.33,0.57,1.35,1.3
				C317,135.92,316.42,136.53,315.69,136.54z M315.65,134.6c-0.34,0.01-0.62,0.29-0.61,0.63c0.01,0.34,0.29,0.62,0.63,0.61
				c0.34-0.01,0.62-0.29,0.61-0.63C316.28,134.86,316,134.59,315.65,134.6z"/>
			<path class="st9" d="M319.34,136.47c-0.73,0.01-1.33-0.57-1.35-1.3c-0.01-0.73,0.57-1.33,1.3-1.35c0.73-0.01,1.33,0.57,1.35,1.3
				C320.65,135.86,320.06,136.46,319.34,136.47z M319.3,134.53c-0.34,0.01-0.62,0.29-0.61,0.63c0.01,0.34,0.29,0.62,0.63,0.61
				c0.34-0.01,0.62-0.29,0.61-0.63C319.93,134.8,319.64,134.52,319.3,134.53z"/>
			<path class="st9" d="M322.91,136.41c-0.73,0.01-1.33-0.57-1.35-1.3c-0.01-0.73,0.57-1.33,1.3-1.35c0.73-0.01,1.33,0.57,1.35,1.3
				C324.22,135.79,323.64,136.39,322.91,136.41z M322.88,134.47c-0.34,0.01-0.62,0.29-0.61,0.63c0.01,0.34,0.29,0.62,0.63,0.61
				c0.34-0.01,0.62-0.29,0.61-0.63C323.5,134.73,323.22,134.46,322.88,134.47z"/>
		</g>
		<g class="st10">
			<path class="st9" d="M181.19,396.52l-56.58,1.03c-1.63,0.03-2.98-1-3.01-2.3l-0.68-37.57c-0.02-1.3,1.29-2.38,2.92-2.41
				l56.58-1.03c1.64-0.03,2.98,1,3.01,2.3l0.68,37.57C184.14,395.41,182.83,396.49,181.19,396.52z M123.86,355.97
				c-1.25,0.02-2.25,0.78-2.23,1.7l0.68,37.57c0.02,0.91,1.05,1.64,2.29,1.62l56.58-1.03c1.25-0.02,2.25-0.78,2.23-1.7l-0.68-37.57
				c-0.02-0.91-1.05-1.64-2.29-1.62L123.86,355.97z"/>
			
				<rect x="121.38" y="362.41" transform="matrix(0.9998 -0.0182 0.0182 0.9998 -6.5613 2.8213)" class="st9" width="61.44" height="0.7"/>
			<path class="st9" d="M125.8,361.08c-0.73,0.01-1.33-0.57-1.35-1.3c-0.01-0.73,0.57-1.33,1.3-1.35c0.73-0.01,1.33,0.57,1.35,1.3
				C127.12,360.46,126.53,361.06,125.8,361.08z M125.77,359.13c-0.34,0.01-0.62,0.29-0.61,0.63c0.01,0.34,0.29,0.62,0.63,0.61
				s0.62-0.29,0.61-0.63C126.39,359.4,126.11,359.13,125.77,359.13z"/>
			<path class="st9" d="M129.45,361.01c-0.73,0.01-1.33-0.57-1.35-1.3c-0.01-0.73,0.57-1.33,1.3-1.35c0.73-0.01,1.33,0.57,1.35,1.3
				C130.76,360.39,130.18,361,129.45,361.01z M129.41,359.07c-0.34,0.01-0.62,0.29-0.61,0.63c0.01,0.34,0.29,0.62,0.63,0.61
				c0.34-0.01,0.62-0.29,0.61-0.63C130.04,359.34,129.76,359.06,129.41,359.07z"/>
			<path class="st9" d="M133.03,360.95c-0.73,0.01-1.33-0.57-1.35-1.3c-0.01-0.73,0.57-1.33,1.3-1.35c0.73-0.01,1.33,0.57,1.35,1.3
				C134.34,360.33,133.75,360.93,133.03,360.95z M132.99,359c-0.34,0.01-0.62,0.29-0.61,0.63c0.01,0.34,0.29,0.62,0.63,0.61
				c0.34-0.01,0.62-0.29,0.61-0.63C133.62,359.27,133.33,359,132.99,359z"/>
		</g>
		<g class="st11">
			<g>
				<path class="st9" d="M416.28,290.24l-5.85-4.69c1.94-3.63,3.05-7.55,3.35-11.5l7.46-0.82c1.41-0.15,2.42-1.42,2.27-2.83
					l-0.6-5.47c-0.15-1.41-1.42-2.42-2.83-2.27l-7.46,0.82c-1.15-3.79-3.08-7.38-5.77-10.5l4.69-5.85c0.89-1.11,0.71-2.72-0.4-3.61
					l-4.3-3.44c-1.11-0.89-2.72-0.71-3.61,0.4l-4.69,5.85c-3.63-1.94-7.55-3.05-11.5-3.35l-0.82-7.46
					c-0.15-1.41-1.42-2.42-2.83-2.27l-5.47,0.6c-1.41,0.16-2.42,1.42-2.27,2.83l0.82,7.46c-3.79,1.15-7.38,3.08-10.5,5.77
					l-5.85-4.69c-1.11-0.89-2.72-0.71-3.61,0.4l-3.44,4.3c-0.89,1.11-0.71,2.72,0.4,3.61l5.85,4.69c-1.94,3.63-3.05,7.55-3.35,11.5
					l-7.46,0.82c-1.41,0.15-2.42,1.42-2.27,2.83l0.6,5.47c0.16,1.41,1.42,2.42,2.83,2.27l7.46-0.82c1.15,3.79,3.08,7.38,5.77,10.5
					l-4.69,5.85c-0.89,1.11-0.71,2.72,0.4,3.61l4.3,3.44c1.11,0.89,2.72,0.71,3.61-0.4l4.69-5.85c3.63,1.94,7.55,3.05,11.5,3.35
					l0.82,7.45c0.16,1.41,1.42,2.42,2.83,2.27l5.47-0.6c1.41-0.16,2.42-1.42,2.27-2.83l-0.82-7.46c3.79-1.15,7.38-3.08,10.5-5.77
					l5.85,4.69c1.11,0.89,2.72,0.71,3.61-0.4l3.44-4.3C417.56,292.74,417.39,291.12,416.28,290.24z M375.56,283.5
					c-6.42-5.14-7.45-14.51-2.3-20.93c5.14-6.42,14.51-7.45,20.93-2.3c6.42,5.14,7.45,14.51,2.31,20.93
					C391.35,287.61,381.98,288.64,375.56,283.5z"/>
				<path class="st9" d="M386.07,311.02c-0.69,0-1.36-0.23-1.91-0.67c-0.64-0.51-1.04-1.24-1.13-2.06l-0.78-7.04
					c-3.83-0.34-7.5-1.4-10.92-3.18l-4.43,5.53c-0.51,0.64-1.24,1.04-2.06,1.13c-0.81,0.09-1.61-0.14-2.25-0.65l-4.29-3.44
					c-0.64-0.51-1.04-1.24-1.13-2.06c-0.09-0.81,0.14-1.61,0.65-2.25l4.43-5.53c-2.47-2.95-4.31-6.3-5.47-9.96l-7.05,0.78
					c-0.81,0.09-1.61-0.14-2.25-0.66c-0.64-0.51-1.04-1.24-1.13-2.06l-0.6-5.47c-0.09-0.81,0.14-1.61,0.66-2.25
					c0.51-0.64,1.24-1.04,2.06-1.13l7.04-0.78c0.34-3.83,1.4-7.5,3.18-10.92l-5.53-4.43c-0.64-0.51-1.04-1.24-1.13-2.05
					c-0.09-0.81,0.14-1.61,0.66-2.25l3.44-4.3c0.51-0.64,1.24-1.04,2.06-1.13c0.81-0.09,1.61,0.14,2.25,0.66l5.53,4.43
					c2.95-2.47,6.3-4.31,9.96-5.48l-0.78-7.04c-0.19-1.68,1.03-3.2,2.71-3.38l5.47-0.6c1.68-0.18,3.2,1.03,3.38,2.71l0.78,7.04
					c3.83,0.34,7.5,1.4,10.92,3.18l4.43-5.53c1.06-1.32,2.99-1.53,4.31-0.47l4.29,3.44c0.64,0.51,1.04,1.24,1.13,2.06
					c0.09,0.81-0.14,1.61-0.66,2.25l-4.43,5.53c2.47,2.95,4.31,6.3,5.48,9.96l7.05-0.78c0.81-0.09,1.61,0.14,2.25,0.66
					c0.64,0.51,1.04,1.24,1.13,2.06l0.6,5.47c0.09,0.81-0.14,1.61-0.66,2.25c-0.51,0.64-1.24,1.04-2.06,1.13l-7.04,0.78
					c-0.34,3.83-1.4,7.5-3.18,10.92l5.53,4.43c0.64,0.51,1.04,1.24,1.13,2.06c0.09,0.81-0.14,1.61-0.66,2.25l-3.44,4.29
					c-1.06,1.32-2.99,1.53-4.31,0.48l-5.53-4.43c-2.95,2.47-6.29,4.31-9.96,5.48l0.78,7.04c0.09,0.81-0.14,1.61-0.66,2.25
					c-0.51,0.64-1.24,1.04-2.06,1.13l-5.47,0.6C386.3,311.01,386.19,311.02,386.07,311.02z M371.08,296.79l0.37,0.2
					c3.52,1.89,7.32,2.99,11.3,3.29l0.41,0.03l0.87,7.87c0.06,0.55,0.33,1.04,0.76,1.38c0.43,0.35,0.97,0.51,1.52,0.44l5.47-0.6
					c0.55-0.06,1.04-0.33,1.38-0.76c0.35-0.43,0.5-0.97,0.44-1.52l-0.87-7.87l0.4-0.12c3.82-1.16,7.29-3.06,10.31-5.67l0.31-0.27
					l6.18,4.95c0.89,0.71,2.19,0.57,2.9-0.32l3.44-4.29c0.35-0.43,0.5-0.97,0.44-1.52c-0.06-0.55-0.33-1.04-0.76-1.38v0l-6.18-4.95
					l0.2-0.37c1.89-3.52,2.99-7.32,3.29-11.3l0.03-0.41l7.87-0.87c0.55-0.06,1.04-0.33,1.38-0.76c0.35-0.43,0.5-0.97,0.44-1.52
					l-0.6-5.47c-0.06-0.55-0.33-1.04-0.76-1.38c-0.43-0.34-0.97-0.51-1.52-0.44l-7.87,0.87l-0.12-0.4
					c-1.15-3.82-3.06-7.29-5.67-10.31l-0.27-0.31l4.95-6.18c0.34-0.43,0.5-0.97,0.44-1.52c-0.06-0.55-0.33-1.04-0.76-1.38
					l-4.29-3.44c-0.89-0.71-2.19-0.57-2.9,0.32l-4.95,6.18l-0.37-0.2c-3.52-1.89-7.32-2.99-11.3-3.29l-0.41-0.03l-0.87-7.87
					c-0.12-1.13-1.15-1.95-2.28-1.83l-5.47,0.6c-0.55,0.06-1.04,0.33-1.38,0.76c-0.35,0.43-0.5,0.97-0.44,1.52l0.87,7.87l-0.4,0.12
					c-3.82,1.15-7.29,3.06-10.31,5.67l-0.31,0.27l-6.18-4.95c-0.43-0.35-0.97-0.5-1.52-0.44c-0.55,0.06-1.04,0.33-1.38,0.76
					l-3.44,4.3c-0.34,0.43-0.5,0.97-0.44,1.52c0.06,0.55,0.33,1.04,0.76,1.38l6.18,4.95l-0.2,0.37c-1.89,3.52-2.99,7.32-3.29,11.3
					l-0.03,0.41l-7.87,0.87c-0.55,0.06-1.04,0.33-1.38,0.76c-0.35,0.43-0.5,0.97-0.44,1.52l0.6,5.47c0.06,0.55,0.33,1.04,0.76,1.38
					c0.43,0.34,0.97,0.5,1.52,0.44l7.87-0.87l0.12,0.4c1.15,3.82,3.06,7.29,5.67,10.31l0.27,0.31l-4.95,6.18
					c-0.35,0.43-0.5,0.97-0.44,1.52c0.06,0.55,0.33,1.04,0.76,1.38l4.29,3.44c0.43,0.34,0.97,0.5,1.52,0.44
					c0.55-0.06,1.04-0.33,1.38-0.76L371.08,296.79z M384.86,287.26c-3.38,0-6.78-1.1-9.61-3.37c-3.21-2.57-5.22-6.24-5.67-10.32
					c-0.45-4.09,0.72-8.1,3.29-11.31c2.57-3.21,6.24-5.22,10.32-5.67c4.09-0.45,8.1,0.72,11.31,3.29
					c6.62,5.31,7.69,15.01,2.38,21.63C393.85,285.29,389.37,287.26,384.86,287.26z M384.9,257.49c-0.53,0-1.07,0.03-1.6,0.09
					c-3.82,0.42-7.25,2.3-9.65,5.3c-4.96,6.19-3.96,15.26,2.23,20.23c6.19,4.96,15.26,3.96,20.23-2.23
					c4.96-6.19,3.96-15.26-2.23-20.23C391.3,258.59,388.16,257.49,384.9,257.49z"/>
			</g>
		</g>
		<g class="st12">
			<path class="st9" d="M453.59,334.69h-56.62c-0.98,0-1.77-0.95-1.77-2.11v-20.84c0-1.17,0.8-2.11,1.77-2.11h56.62
				c0.98,0,1.77,0.95,1.77,2.11v20.84C455.37,333.74,454.57,334.69,453.59,334.69z M396.97,310.63c-0.42,0-0.77,0.51-0.77,1.11
				v20.84c0,0.6,0.35,1.11,0.77,1.11h56.62c0.42,0,0.77-0.51,0.77-1.11v-20.84c0-0.6-0.35-1.11-0.77-1.11H396.97z"/>
			<g>
				<rect x="406.85" y="317.68" class="st9" width="38.33" height="1"/>
				<path class="st9" d="M445.18,319.18h-38.33c-0.55,0-1-0.45-1-1c0-0.55,0.45-1,1-1h38.33c0.55,0,1,0.45,1,1
					C446.18,318.74,445.74,319.18,445.18,319.18z M445.18,318.18v0.5V318.18L445.18,318.18z"/>
			</g>
			<g>
				<rect x="406.85" y="322.23" class="st9" width="17.13" height="1"/>
				<path class="st9" d="M423.98,323.73h-17.13c-0.55,0-1-0.45-1-1c0-0.55,0.45-1,1-1h17.13c0.55,0,1,0.45,1,1
					C424.98,323.28,424.53,323.73,423.98,323.73z M423.98,322.73v0.5V322.73L423.98,322.73z"/>
			</g>
			<g>
				<rect x="428.06" y="322.23" class="st9" width="17.13" height="1"/>
				<path class="st9" d="M445.18,323.73h-17.13c-0.55,0-1-0.45-1-1c0-0.55,0.45-1,1-1h17.13c0.55,0,1,0.45,1,1
					C446.18,323.28,445.74,323.73,445.18,323.73z M445.18,322.73v0.5V322.73L445.18,322.73z"/>
			</g>
			<g>
				<rect x="406.85" y="326.99" class="st9" width="38.33" height="1"/>
				<path class="st9" d="M445.18,328.49h-38.33c-0.55,0-1-0.45-1-1c0-0.55,0.45-1,1-1h38.33c0.55,0,1,0.45,1,1
					C446.18,328.04,445.74,328.49,445.18,328.49z M445.18,327.49v0.5V327.49L445.18,327.49z"/>
			</g>
		</g>
		<g class="st11">
			<path class="st9" d="M295.94,427.31c-0.79,0-1.54-0.27-2.17-0.77c-0.73-0.58-1.18-1.41-1.28-2.33l-0.7-6.39
				c-3.48-0.36-6.82-1.33-9.95-2.89l-4.02,5.02c-1.2,1.5-3.4,1.74-4.89,0.54l-4.15-3.33c-0.72-0.58-1.18-1.41-1.28-2.33
				c-0.1-0.92,0.16-1.83,0.74-2.56l4.02-5.02c-2.21-2.71-3.88-5.76-4.99-9.08l-6.39,0.7c-1.91,0.2-3.63-1.17-3.84-3.08l-0.58-5.29
				c-0.21-1.91,1.17-3.63,3.08-3.84l6.39-0.7c0.36-3.48,1.33-6.82,2.89-9.95l-5.02-4.02c-1.5-1.2-1.74-3.39-0.54-4.89l3.33-4.15
				c0.58-0.73,1.41-1.18,2.33-1.28c0.92-0.1,1.83,0.16,2.56,0.74l5.02,4.02c2.71-2.21,5.76-3.88,9.08-4.99l-0.7-6.39
				c-0.1-0.92,0.16-1.83,0.74-2.56c0.58-0.73,1.41-1.18,2.33-1.28l5.29-0.58c0.92-0.1,1.83,0.16,2.56,0.74
				c0.73,0.58,1.18,1.41,1.28,2.33l0.7,6.39c3.48,0.36,6.82,1.33,9.95,2.89l4.02-5.02c1.2-1.5,3.39-1.74,4.89-0.54l4.15,3.33
				c0.72,0.58,1.18,1.41,1.28,2.33c0.1,0.92-0.16,1.83-0.74,2.56l-4.02,5.02c2.21,2.71,3.88,5.76,4.99,9.08l6.39-0.7
				c1.9-0.21,3.63,1.17,3.84,3.08l0.58,5.29c0.21,1.91-1.17,3.63-3.08,3.84l-6.39,0.7c-0.36,3.48-1.33,6.82-2.89,9.94l5.02,4.02h0
				c0.73,0.58,1.18,1.41,1.28,2.33c0.1,0.92-0.16,1.83-0.74,2.56l-3.33,4.15c-0.58,0.73-1.41,1.18-2.33,1.28
				c-0.92,0.11-1.83-0.16-2.56-0.74l-5.02-4.02c-2.71,2.21-5.76,3.88-9.08,4.99l0.7,6.39c0.21,1.91-1.17,3.63-3.08,3.84l-5.29,0.58
				C296.2,427.3,296.07,427.31,295.94,427.31z M281.31,412.38l0.73,0.39c3.34,1.79,6.94,2.84,10.72,3.12l0.83,0.06l0.88,8.03
				c0.04,0.39,0.24,0.75,0.54,0.99c0.31,0.25,0.7,0.36,1.09,0.32l5.29-0.58c0.39-0.04,0.75-0.24,0.99-0.55
				c0.25-0.31,0.36-0.69,0.32-1.09l-0.88-8.03l0.8-0.24c3.62-1.09,6.92-2.9,9.78-5.38l0.63-0.54l6.31,5.05
				c0.31,0.25,0.69,0.36,1.09,0.32c0.39-0.04,0.75-0.24,0.99-0.55l3.33-4.15c0.25-0.31,0.36-0.7,0.32-1.09
				c-0.04-0.39-0.24-0.75-0.54-0.99h0l-6.31-5.06l0.39-0.73c1.79-3.34,2.84-6.94,3.12-10.72l0.06-0.83l8.03-0.88
				c0.81-0.09,1.4-0.82,1.31-1.63l-0.58-5.29c-0.09-0.81-0.83-1.39-1.63-1.31l-8.03,0.88l-0.24-0.8c-1.09-3.62-2.9-6.91-5.38-9.78
				l-0.54-0.63l5.06-6.31c0.25-0.31,0.36-0.69,0.32-1.09c-0.04-0.39-0.24-0.75-0.54-0.99l-4.15-3.33c-0.63-0.51-1.57-0.41-2.08,0.23
				l-5.05,6.31l-0.73-0.39c-3.34-1.79-6.94-2.84-10.72-3.12l-0.83-0.06l-0.88-8.03c-0.04-0.39-0.24-0.75-0.54-0.99
				c-0.31-0.25-0.7-0.36-1.09-0.32l-5.29,0.58c-0.39,0.04-0.75,0.24-0.99,0.54c-0.25,0.31-0.36,0.69-0.32,1.09l0.88,8.03l-0.8,0.24
				c-3.62,1.09-6.92,2.9-9.78,5.38l-0.63,0.54l-6.31-5.05c-0.31-0.25-0.69-0.36-1.09-0.32c-0.39,0.04-0.75,0.24-0.99,0.54
				l-3.33,4.15c-0.25,0.31-0.36,0.7-0.32,1.09c0.04,0.39,0.24,0.75,0.54,0.99l6.31,5.06l-0.39,0.73c-1.79,3.34-2.84,6.94-3.12,10.72
				l-0.06,0.83l-8.03,0.88c-0.81,0.09-1.4,0.82-1.31,1.63l0.58,5.29c0.09,0.81,0.82,1.39,1.63,1.31l8.03-0.88l0.24,0.8
				c1.09,3.62,2.9,6.92,5.38,9.78l0.54,0.63l-5.06,6.31c-0.25,0.31-0.36,0.69-0.32,1.09c0.04,0.39,0.24,0.75,0.54,0.99l4.15,3.33
				c0.63,0.51,1.57,0.41,2.08-0.23L281.31,412.38z M294.77,404.34c-3.38,0-6.78-1.1-9.61-3.38c-3.21-2.57-5.22-6.24-5.67-10.33
				c-0.45-4.09,0.72-8.1,3.29-11.31c2.57-3.21,6.24-5.22,10.33-5.67c4.09-0.45,8.11,0.72,11.31,3.29c3.21,2.57,5.22,6.24,5.67,10.33
				c0.45,4.09-0.72,8.1-3.29,11.31C303.76,402.37,299.28,404.34,294.77,404.34z M294.81,375.56c-0.5,0-0.99,0.03-1.49,0.08
				c-3.56,0.39-6.75,2.14-8.98,4.94c-2.24,2.79-3.25,6.29-2.86,9.84c0.39,3.56,2.14,6.75,4.94,8.98l0,0
				c5.76,4.62,14.21,3.69,18.83-2.07c2.24-2.79,3.25-6.29,2.86-9.84c-0.39-3.56-2.14-6.75-4.94-8.98
				C300.76,376.58,297.84,375.56,294.81,375.56z"/>
		</g>
	</g>
	<g class="st13">
		<g>
			<path class="st14" d="M166.31,186.61l1.85,152.26c0.02,1.9-1.5,3.45-3.39,3.48l-91.48,1.11c-1.9,0.02-3.45-1.5-3.48-3.39
				l-1.85-152.26c-0.02-1.9,1.5-3.45,3.39-3.48l91.48-1.11C164.73,183.2,166.28,184.72,166.31,186.61z"/>
			<g>
				<path class="st15" d="M166.64,186.55l0.11,9.05L68.4,196.8l-0.11-9.22c-0.02-1.82,1.43-3.3,3.25-3.33l91.6-1.11
					C165.05,183.12,166.61,184.65,166.64,186.55z"/>
			</g>
		</g>
		<path class="st9" d="M75.06,192.29c-1.12,0.01-2.03-0.89-2.04-2.01c-0.01-1.12,0.89-2.03,2.01-2.04c1.12-0.01,2.03,0.89,2.04,2.01
			C77.08,191.37,76.18,192.28,75.06,192.29z M75.04,189.05c-0.67,0.01-1.21,0.55-1.21,1.22c0,0.67,0.55,1.21,1.22,1.21
			c0.67-0.01,1.21-0.55,1.21-1.22C76.26,189.59,75.71,189.05,75.04,189.05z"/>
		<path class="st9" d="M81.83,192.24c-1.12,0.01-2.03-0.89-2.04-2.01c-0.01-1.12,0.89-2.03,2.01-2.04c1.12-0.01,2.03,0.89,2.04,2.01
			C83.84,191.32,82.94,192.23,81.83,192.24z M81.8,189c-0.67,0.01-1.21,0.55-1.21,1.22c0.01,0.67,0.55,1.21,1.22,1.21
			c0.67-0.01,1.21-0.55,1.21-1.22C83.02,189.54,82.47,189,81.8,189z"/>
		<path class="st9" d="M88.4,192.19c-1.12,0.01-2.03-0.89-2.04-2.01c-0.01-1.12,0.89-2.03,2.01-2.04c1.12-0.01,2.03,0.89,2.04,2.01
			C90.42,191.27,89.52,192.18,88.4,192.19z M88.38,188.95c-0.67,0.01-1.21,0.55-1.21,1.22c0,0.67,0.55,1.21,1.22,1.21
			c0.67-0.01,1.21-0.55,1.21-1.22C89.6,189.49,89.05,188.95,88.38,188.95z"/>
		<path class="st9" d="M122.27,210.85l-45.45,0.34c-0.45,0-0.81-0.36-0.82-0.8c0-0.45,0.36-0.81,0.8-0.82l45.45-0.34
			c0.45,0,0.81,0.36,0.82,0.8C123.08,210.48,122.72,210.84,122.27,210.85z"/>
		<path class="st15" d="M137.42,210.73l-9.43,0.07c-0.45,0-0.81-0.36-0.82-0.8c0-0.45,0.36-0.81,0.8-0.82l9.43-0.07
			c0.45,0,0.81,0.36,0.82,0.8C138.23,210.36,137.87,210.73,137.42,210.73z"/>
		<path class="st9" d="M122.56,248.58l-45.45,0.34c-0.45,0-0.81-0.36-0.82-0.8c0-0.45,0.36-0.81,0.8-0.82l45.45-0.34
			c0.45,0,0.81,0.36,0.82,0.8C123.37,248.21,123.01,248.57,122.56,248.58z"/>
		<path class="st16" d="M137.71,248.46l-9.43,0.07c-0.45,0-0.81-0.36-0.82-0.8c0-0.45,0.36-0.81,0.8-0.82l9.43-0.07
			c0.45,0,0.81,0.36,0.82,0.8C138.52,248.09,138.16,248.46,137.71,248.46z"/>
		<path class="st16" d="M122.41,228.85l-45.45,0.34c-0.45,0-0.81-0.36-0.82-0.8c0-0.45,0.36-0.81,0.8-0.82l45.45-0.34
			c0.45,0,0.81,0.36,0.82,0.8C123.22,228.49,122.86,228.85,122.41,228.85z"/>
		<path class="st9" d="M137.56,228.74l-9.43,0.07c-0.45,0-0.81-0.36-0.82-0.8c0-0.45,0.36-0.81,0.8-0.82l9.43-0.07
			c0.45,0,0.81,0.36,0.82,0.8C138.37,228.37,138.01,228.74,137.56,228.74z"/>
		<path class="st15" d="M153.09,228.62l-9.43,0.07c-0.45,0-0.81-0.36-0.82-0.8c0-0.45,0.36-0.81,0.8-0.82l9.43-0.07
			c0.45,0,0.81,0.36,0.82,0.8C153.9,228.25,153.54,228.62,153.09,228.62z"/>
		<path class="st15" d="M107.19,219.82l-30.3,0.23c-0.45,0-0.81-0.36-0.82-0.8c0-0.45,0.36-0.81,0.8-0.82l30.3-0.23
			c0.45,0,0.81,0.36,0.82,0.8C108,219.45,107.64,219.82,107.19,219.82z"/>
		<path class="st17" d="M126.06,219.68l-13.29,0.1c-0.45,0-0.81-0.36-0.82-0.8c0-0.45,0.36-0.81,0.8-0.82l13.29-0.1
			c0.45,0,0.81,0.36,0.82,0.8C126.86,219.31,126.51,219.68,126.06,219.68z"/>
		<path class="st15" d="M126.2,238.66l-30.3,0.23c-0.45,0-0.81-0.36-0.82-0.8c0-0.45,0.36-0.81,0.8-0.82l30.3-0.23
			c0.45,0,0.81,0.36,0.82,0.8C127.01,238.29,126.65,238.65,126.2,238.66z"/>
		<path class="st17" d="M90.33,238.93l-13.29,0.1c-0.45,0-0.81-0.36-0.82-0.8c0-0.45,0.36-0.81,0.8-0.82l13.29-0.1
			c0.45,0,0.81,0.36,0.82,0.8C91.14,238.56,90.78,238.92,90.33,238.93z"/>
		<path class="st17" d="M122.66,261.3l-45.45,0.34c-0.45,0-0.81-0.36-0.82-0.8c0-0.45,0.36-0.81,0.8-0.82l45.45-0.34
			c0.45,0,0.81,0.36,0.82,0.8C123.46,260.93,123.1,261.29,122.66,261.3z"/>
		<path class="st15" d="M137.81,261.18l-9.43,0.07c-0.45,0-0.81-0.36-0.82-0.8c0-0.45,0.36-0.81,0.8-0.82l9.43-0.07
			c0.45,0,0.81,0.36,0.82,0.8C138.61,260.81,138.25,261.18,137.81,261.18z"/>
		<path class="st9" d="M122.94,299.03l-45.45,0.34c-0.45,0-0.81-0.36-0.82-0.8c0-0.45,0.36-0.81,0.8-0.82l45.45-0.34
			c0.45,0,0.81,0.36,0.82,0.8C123.75,298.66,123.39,299.02,122.94,299.03z"/>
		<path class="st16" d="M138.09,298.91l-9.43,0.07c-0.45,0-0.81-0.36-0.82-0.8c0-0.45,0.36-0.81,0.8-0.82l9.43-0.07
			c0.45,0,0.81,0.36,0.82,0.8C138.9,298.55,138.54,298.91,138.09,298.91z"/>
		<path class="st16" d="M122.79,279.31l-45.45,0.34c-0.45,0-0.81-0.36-0.82-0.8c0-0.45,0.36-0.81,0.8-0.82l45.45-0.34
			c0.45,0,0.81,0.36,0.82,0.8C123.6,278.94,123.24,279.3,122.79,279.31z"/>
		<path class="st9" d="M137.94,279.19l-9.43,0.07c-0.45,0-0.81-0.36-0.82-0.8c0-0.45,0.36-0.81,0.8-0.82l9.43-0.07
			c0.45,0,0.81,0.36,0.82,0.8C138.75,278.82,138.39,279.19,137.94,279.19z"/>
		<path class="st15" d="M153.47,279.07l-9.43,0.07c-0.45,0-0.81-0.36-0.82-0.8s0.36-0.81,0.8-0.82l9.43-0.07
			c0.45,0,0.81,0.36,0.82,0.8C154.28,278.71,153.92,279.07,153.47,279.07z"/>
		<path class="st15" d="M107.57,270.27l-30.3,0.23c-0.45,0-0.81-0.36-0.82-0.8c0-0.45,0.36-0.81,0.8-0.82l30.3-0.23
			c0.45,0,0.81,0.36,0.82,0.8C108.38,269.9,108.02,270.27,107.57,270.27z"/>
		<path class="st17" d="M126.44,270.13l-13.29,0.1c-0.45,0-0.81-0.36-0.82-0.8c0-0.45,0.36-0.81,0.8-0.82l13.29-0.1
			c0.45,0,0.81,0.36,0.82,0.8C127.25,269.76,126.89,270.13,126.44,270.13z"/>
		<path class="st15" d="M126.58,289.11l-30.3,0.23c-0.45,0-0.81-0.36-0.82-0.8c0-0.45,0.36-0.81,0.8-0.82l30.3-0.23
			c0.45,0,0.81,0.36,0.82,0.8C127.39,288.74,127.03,289.1,126.58,289.11z"/>
		<path class="st17" d="M90.71,289.38l-13.29,0.1c-0.45,0-0.81-0.36-0.82-0.8c0-0.45,0.36-0.81,0.8-0.82l13.29-0.1
			c0.45,0,0.81,0.36,0.82,0.8C91.52,289.01,91.16,289.37,90.71,289.38z"/>
		<path class="st17" d="M123.03,310.7l-45.45,0.34c-0.45,0-0.81-0.36-0.82-0.8c0-0.45,0.36-0.81,0.8-0.82l45.45-0.34
			c0.45,0,0.81,0.36,0.82,0.8C123.84,310.33,123.48,310.69,123.03,310.7z"/>
		<path class="st15" d="M138.18,310.58l-9.43,0.07c-0.45,0-0.81-0.36-0.82-0.8c0-0.45,0.36-0.81,0.8-0.82l9.43-0.07
			c0.45,0,0.81,0.36,0.82,0.8C138.99,310.21,138.63,310.58,138.18,310.58z"/>
		<path class="st9" d="M138.36,334.4l-9.43,0.07c-0.45,0-0.81-0.36-0.82-0.8c0-0.45,0.36-0.81,0.8-0.82l9.43-0.07
			c0.45,0,0.81,0.36,0.82,0.8C139.17,334.04,138.81,334.4,138.36,334.4z"/>
		<path class="st15" d="M153.89,334.29l-9.43,0.07c-0.45,0-0.81-0.36-0.82-0.8c0-0.45,0.36-0.81,0.8-0.82l9.43-0.07
			c0.45,0,0.81,0.36,0.82,0.8C154.7,333.92,154.34,334.28,153.89,334.29z"/>
		<path class="st15" d="M107.95,319.67l-30.3,0.23c-0.45,0-0.81-0.36-0.82-0.8c0-0.45,0.36-0.81,0.8-0.82l30.3-0.23
			c0.45,0,0.81,0.36,0.82,0.8C108.76,319.3,108.4,319.67,107.95,319.67z"/>
		<path class="st17" d="M126.81,319.53l-13.29,0.1c-0.45,0-0.81-0.36-0.82-0.8c0-0.45,0.36-0.81,0.8-0.82l13.29-0.1
			c0.45,0,0.81,0.36,0.82,0.8C127.62,319.16,127.26,319.52,126.81,319.53z"/>
	</g>
	<g>
		<g>
			<g>
				<g>
					<g>
						<g>
							<polygon class="st18" points="152.36,130.27 153.39,133.78 153.39,129.11 							"/>
							<g>
								<polygon class="st18" points="153.49,359.58 153.49,354.9 152.46,358.41 								"/>
								<path class="st19" d="M153.38,108.98l0.01,20.13l0,4.68l0.02,55.88l0.05,109.35l0.02,55.88l0,4.68l0.01,13.6
									c0,6.14,3.88,11.36,9.31,13.4c1.57,0.59,3.25,0.92,5.02,0.92l10.21,0l112.43-0.05c3.01,0,5.79-0.93,8.09-2.51
									c3.76-2.58,6.23-6.91,6.23-11.82l-0.12-264.2c0-4.4-1.99-8.34-5.12-10.96c-2.49-2.09-5.7-3.36-9.21-3.36L167.7,94.64
									C159.79,94.65,153.37,101.06,153.38,108.98z"/>
								<path class="st15" d="M154.43,113.98l0.01,19.48l0,4.52l0.02,54.07l0.05,105.8l0.02,54.07l0,4.52l0.01,13.16
									c0,5.94,3.82,10.99,9.18,12.96c1.54,0.57,3.21,0.89,4.95,0.89l10.07,0l110.87-0.05c2.96,0,5.71-0.9,7.98-2.43
									c3.71-2.5,6.14-6.69,6.14-11.43l-0.11-255.61c0-4.26-1.97-8.07-5.05-10.61c-2.46-2.02-5.62-3.25-9.08-3.25l-120.94,0.05
									C160.75,100.12,154.42,106.33,154.43,113.98z"/>
							</g>
						</g>
						<g>
							<path class="st9" d="M296.77,134.85l0.09,212.33c0,1.9-1.54,3.43-3.43,3.44l-128.61,0.06c-1.9,0-3.43-1.54-3.44-3.43
								l-0.09-212.33c0-1.9,1.54-3.44,3.43-3.44l128.61-0.06C295.23,131.41,296.77,132.95,296.77,134.85z"/>
							<g>
								<path class="st16" d="M296.77,134.76l0.01,13.77l-135.48,0.06l-0.01-13.93c0-1.82,1.47-3.29,3.29-3.29l128.73-0.06
									C295.22,131.3,296.77,132.85,296.77,134.76z"/>
								<g>
									<path class="st9" d="M280.05,137.99c-0.28,0-0.5-0.22-0.5-0.5c0-0.28,0.22-0.5,0.5-0.5l10.16,0l0,0
										c0.28,0,0.5,0.22,0.5,0.5c0,0.28-0.22,0.5-0.5,0.5L280.05,137.99L280.05,137.99z"/>
									<path class="st9" d="M280.05,140.59c-0.28,0-0.5-0.22-0.5-0.5c0-0.28,0.22-0.5,0.5-0.5l10.16,0l0,0
										c0.28,0,0.5,0.22,0.5,0.5c0,0.28-0.22,0.5-0.5,0.5L280.05,140.59L280.05,140.59z"/>
									<path class="st9" d="M280.05,143.19c-0.28,0-0.5-0.22-0.5-0.5c0-0.28,0.22-0.5,0.5-0.5l10.16,0l0,0
										c0.28,0,0.5,0.22,0.5,0.5c0,0.28-0.22,0.5-0.5,0.5L280.05,143.19L280.05,143.19z"/>
								</g>
								<path class="st9" d="M173.41,144.84c-0.13,0-0.26-0.05-0.35-0.15l-3.69-3.69c-0.32-0.32-0.32-0.84,0-1.15l3.55-3.55
									c0.2-0.2,0.51-0.2,0.71,0c0.2,0.19,0.2,0.51,0,0.71l-3.42,3.42l3.56,3.56c0.2,0.19,0.2,0.51,0,0.71
									C173.67,144.79,173.54,144.84,173.41,144.84z"/>
							</g>
						</g>
						<path class="st9" d="M229.15,118.71c-2.02,0-3.67-1.64-3.67-3.67c0-2.02,1.64-3.67,3.67-3.67c0,0,0,0,0,0
							c2.02,0,3.67,1.64,3.67,3.67C232.82,117.06,231.18,118.71,229.15,118.71C229.15,118.71,229.15,118.71,229.15,118.71z
							 M229.15,112.93C229.15,112.93,229.15,112.93,229.15,112.93c-1.17,0-2.11,0.95-2.11,2.12c0,1.16,0.95,2.11,2.11,2.11
							c0,0,0,0,0,0c0.56,0,1.09-0.22,1.49-0.62c0.4-0.4,0.62-0.93,0.62-1.5c0-0.56-0.22-1.09-0.62-1.49
							C230.25,113.15,229.72,112.93,229.15,112.93z"/>
						<path class="st9" d="M225.66,377.02c-1.3,0-2.35-1.06-2.35-2.35l0-6.95c0-1.3,1.05-2.35,2.35-2.35l6.95,0
							c1.3,0,2.35,1.06,2.35,2.35l0,6.95c0,1.3-1.05,2.35-2.35,2.35L225.66,377.02z M232.61,366.36l-6.95,0
							c-0.75,0-1.35,0.61-1.35,1.35l0,6.95c0,0.75,0.61,1.35,1.35,1.35l6.95,0c0.75,0,1.35-0.61,1.35-1.35l0-6.95
							C233.96,366.97,233.36,366.36,232.61,366.36z"/>
						<g>
							<path class="st9" d="M183.79,367.5c-0.28,0-0.5-0.22-0.5-0.5c0-0.28,0.22-0.5,0.5-0.5l6.69,0l0,0c0.28,0,0.5,0.22,0.5,0.5
								c0,0.28-0.22,0.5-0.5,0.5L183.79,367.5L183.79,367.5z"/>
							<path class="st9" d="M183.8,371.11c-0.28,0-0.5-0.22-0.5-0.5s0.22-0.5,0.5-0.5l6.69,0l0,0c0.28,0,0.5,0.22,0.5,0.5
								c0,0.28-0.22,0.5-0.5,0.5L183.8,371.11L183.8,371.11z"/>
							<path class="st9" d="M183.8,374.77c-0.28,0-0.5-0.22-0.5-0.5s0.22-0.5,0.5-0.5l6.69,0l0,0c0.28,0,0.5,0.22,0.5,0.5
								c0,0.28-0.22,0.5-0.5,0.5L183.8,374.77L183.8,374.77z"/>
						</g>
						<path class="st9" d="M276.18,377c-0.13,0-0.26-0.05-0.35-0.15l-5.26-5.26l5.12-5.13c0.2-0.2,0.51-0.2,0.71,0
							c0.2,0.2,0.2,0.51,0,0.71l-4.42,4.42l4.55,4.55c0.2,0.2,0.2,0.51,0,0.71C276.44,376.95,276.31,377,276.18,377z"/>
					</g>
				</g>
			</g>
		</g>
		<g>
			<rect x="161.52" y="148.77" class="st20" width="135.27" height="44.3"/>
			<path class="st21" d="M222.57,168.7L174,168.72c-0.78,0-1.41-0.63-1.41-1.41l0-8.16c0-0.78,0.63-1.41,1.41-1.41l48.57-0.02
				c0.78,0,1.41,0.63,1.41,1.41l0,8.16C223.98,168.06,223.35,168.7,222.57,168.7z"/>
			<path class="st21" d="M249.26,180.32l-75.25,0.03c-0.78,0-1.41-0.63-1.41-1.41l0-2.67c0-0.78,0.63-1.41,1.41-1.41l75.25-0.03
				c0.78,0,1.41,0.63,1.41,1.41l0,2.67C250.67,179.69,250.04,180.32,249.26,180.32z"/>
			<path class="st21" d="M280.13,179.42c-2.77,0-5.38-1.08-7.34-3.04c-1.96-1.96-3.04-4.57-3.05-7.34c0-2.77,1.08-5.38,3.04-7.35
				c1.96-1.96,4.57-3.04,7.34-3.05c0,0,0,0,0,0c2.77,0,5.38,1.08,7.34,3.04c1.96,1.96,3.04,4.57,3.05,7.34l0,0
				c0,2.77-1.08,5.38-3.04,7.35C285.52,178.34,282.91,179.42,280.13,179.42C280.13,179.42,280.13,179.42,280.13,179.42z
				 M280.13,160.64C280.13,160.64,280.12,160.64,280.13,160.64c-2.25,0-4.35,0.87-5.93,2.46c-1.58,1.59-2.46,3.69-2.45,5.93
				c0,2.24,0.87,4.35,2.46,5.93c1.59,1.58,3.69,2.45,5.93,2.45c0,0,0,0,0,0c2.24,0,4.35-0.87,5.93-2.46
				c1.58-1.59,2.46-3.69,2.45-5.93l0,0c0-2.24-0.87-4.35-2.46-5.93C284.47,161.51,282.37,160.64,280.13,160.64z"/>
		</g>
		<g>
			<g>
				<g>
					<g>
						<path class="st19" d="M200.43,240.63l-22.38,0.01c-2.52,0-4.56-2.04-4.56-4.55l-0.01-22.38c0-2.52,2.04-4.56,4.55-4.56
							l22.38-0.01c2.52,0,4.56,2.04,4.56,4.55l0.01,22.38C204.99,238.59,202.95,240.63,200.43,240.63z"/>
						<g class="st22">
							<path class="st16" d="M196.03,225.04c0,3.75-3.04,6.8-6.79,6.8c-3.75,0-6.8-3.04-6.8-6.79c0-3.75,3.04-6.8,6.79-6.8
								C192.99,218.25,196.03,221.29,196.03,225.04z"/>
						</g>
					</g>
					<g class="st23">
						<path class="st15" d="M229.31,219.68l-17.71,0.01c-0.63,0-1.14-0.51-1.14-1.14l0-3.37c0-0.63,0.51-1.14,1.14-1.14l17.71-0.01
							c0.63,0,1.14,0.51,1.14,1.14l0,3.37C230.45,219.17,229.94,219.68,229.31,219.68z"/>
						<path class="st15" d="M210.47,228.37c-0.55,0-1-0.45-1-1c0-0.55,0.45-1,1-1l34.1-0.02h0c0.55,0,1,0.45,1,1c0,0.55-0.45,1-1,1
							L210.47,228.37L210.47,228.37z"/>
						<path class="st15" d="M210.47,235.51c-0.55,0-1-0.45-1-1c0-0.55,0.45-1,1-1l55.61-0.02l0,0c0.55,0,1,0.45,1,1s-0.45,1-1,1
							L210.47,235.51L210.47,235.51z"/>
						<path class="st15" d="M252.17,228.35c-0.55,0-1-0.45-1-1c0-0.55,0.45-1,1-1l34.1-0.01l0,0c0.55,0,1,0.45,1,1
							c0,0.55-0.45,1-1,1L252.17,228.35L252.17,228.35z"/>
					</g>
				</g>
				<g>
					<g>
						<g>
							<path class="st16" d="M200.47,332.23l-22.38,0.01c-2.52,0-4.56-2.04-4.56-4.55l-0.01-22.38c0-2.52,2.04-4.56,4.55-4.56
								l22.38-0.01c2.52,0,4.56,2.04,4.56,4.55l0.01,22.38C205.03,330.19,202.99,332.23,200.47,332.23z"/>
						</g>
						<g class="st24">
							<path class="st15" d="M196.07,316.65c0,3.75-3.04,6.8-6.79,6.8c-3.75,0-6.8-3.04-6.8-6.79c0-3.75,3.04-6.8,6.79-6.8
								C193.03,309.85,196.07,312.89,196.07,316.65z"/>
						</g>
					</g>
					<g class="st23">
						<path class="st15" d="M229.35,311.29l-17.71,0.01c-0.63,0-1.14-0.51-1.14-1.14l0-3.37c0-0.63,0.51-1.14,1.14-1.14l17.71-0.01
							c0.63,0,1.14,0.51,1.14,1.14l0,3.37C230.49,310.78,229.98,311.29,229.35,311.29z"/>
						<path class="st15" d="M210.51,319.98c-0.55,0-1-0.45-1-1c0-0.55,0.45-1,1-1l34.1-0.01h0c0.55,0,1,0.45,1,1c0,0.55-0.45,1-1,1
							L210.51,319.98L210.51,319.98z"/>
						<path class="st15" d="M210.51,327.12c-0.55,0-1-0.45-1-1c0-0.55,0.45-1,1-1l55.61-0.02l0,0c0.55,0,1,0.45,1,1
							c0,0.55-0.45,1-1,1L210.51,327.12L210.51,327.12z"/>
						<path class="st15" d="M252.21,319.96c-0.55,0-1-0.45-1-1c0-0.55,0.45-1,1-1l34.1-0.01l0,0c0.55,0,1,0.45,1,1
							c0,0.55-0.45,1-1,1L252.21,319.96L252.21,319.96z"/>
					</g>
				</g>
				<g>
					<g>
						<path class="st17" d="M200.45,286.33l-22.38,0.01c-2.52,0-4.56-2.04-4.56-4.55l-0.01-22.38c0-2.52,2.04-4.56,4.55-4.56
							l22.38-0.01c2.52,0,4.56,2.04,4.56,4.55l0.01,22.38C205.01,284.28,202.97,286.32,200.45,286.33z"/>
						<circle class="st21" cx="189.26" cy="270.74" r="6.8"/>
					</g>
					<g class="st23">
						<path class="st15" d="M229.33,265.38l-17.71,0.01c-0.63,0-1.14-0.51-1.14-1.14l0-3.37c0-0.63,0.51-1.14,1.14-1.14l17.71-0.01
							c0.63,0,1.14,0.51,1.14,1.14l0,3.37C230.47,264.87,229.96,265.38,229.33,265.38z"/>
						<path class="st15" d="M210.49,274.07c-0.55,0-1-0.45-1-1c0-0.55,0.45-1,1-1l15.77-0.01h0c0.55,0,1,0.45,1,1c0,0.55-0.45,1-1,1
							L210.49,274.07L210.49,274.07z"/>
						<path class="st15" d="M210.49,281.21c-0.55,0-1-0.45-1-1c0-0.55,0.45-1,1-1l32.37-0.01h0c0.55,0,1,0.45,1,1c0,0.55-0.45,1-1,1
							L210.49,281.21L210.49,281.21z"/>
						<path class="st15" d="M232.86,274.06c-0.55,0-1-0.45-1-1c0-0.55,0.45-1,1-1l31.5-0.01l0,0c0.55,0,1,0.45,1,1
							c0,0.55-0.45,1-1,1L232.86,274.06L232.86,274.06z"/>
						<path class="st15" d="M270.22,274.04c-0.55,0-1-0.45-1-1c0-0.55,0.45-1,1-1l15.77-0.01l0,0c0.55,0,1,0.45,1,1
							c0,0.55-0.45,1-1,1L270.22,274.04L270.22,274.04z"/>
					</g>
				</g>
			</g>
		</g>
	</g>
	<g>
		<g>
			<g>
				<path class="st25" d="M399.51,286.81l1.31,107.73c0.02,1.9-1.5,3.45-3.39,3.48l-63.96,0.78c-1.9,0.02-3.45-1.5-3.48-3.39
					l-1.31-107.73c-0.02-1.9,1.5-3.45,3.39-3.48l63.96-0.78C397.93,283.39,399.49,284.91,399.51,286.81z"/>
				<path class="st26" d="M399.51,286.81l1.31,107.73c0.02,1.9-1.5,3.45-3.39,3.48l-63.96,0.78c-1.9,0.02-3.45-1.5-3.48-3.39
					l-1.31-107.73c-0.02-1.9,1.5-3.45,3.39-3.48l63.96-0.78C397.93,283.39,399.49,284.91,399.51,286.81z"/>
				<g>
					<path class="st17" d="M399.75,286.77l0.07,5.55l-70.82,0.86l-0.07-5.72c-0.02-1.82,1.43-3.3,3.25-3.33l64.08-0.78
						C398.16,283.33,399.73,284.86,399.75,286.77z"/>
				</g>
			</g>
			<path class="st9" d="M333.79,289.93c-0.8,0.01-1.46-0.64-1.47-1.45c-0.01-0.8,0.64-1.46,1.45-1.47c0.8-0.01,1.46,0.64,1.47,1.45
				C335.25,289.27,334.6,289.93,333.79,289.93z M333.78,287.6c-0.48,0-0.87,0.4-0.87,0.88c0,0.48,0.4,0.87,0.88,0.87
				c0.48,0,0.87-0.4,0.87-0.88C334.65,287.99,334.26,287.6,333.78,287.6z"/>
			<path class="st9" d="M338.66,289.9c-0.8,0.01-1.46-0.64-1.47-1.45s0.64-1.46,1.45-1.47c0.8-0.01,1.46,0.64,1.47,1.45
				C340.12,289.23,339.47,289.89,338.66,289.9z M338.65,287.56c-0.48,0-0.87,0.4-0.87,0.88c0,0.48,0.4,0.87,0.88,0.87
				c0.48,0,0.87-0.4,0.87-0.88C339.52,287.95,339.13,287.56,338.65,287.56z"/>
			<path class="st9" d="M343.4,289.86c-0.8,0.01-1.46-0.64-1.47-1.45c-0.01-0.8,0.64-1.46,1.45-1.47c0.8-0.01,1.46,0.64,1.47,1.45
				C344.85,289.2,344.2,289.86,343.4,289.86z M343.38,287.53c-0.48,0-0.87,0.4-0.87,0.88c0,0.48,0.4,0.87,0.88,0.87
				c0.48,0,0.87-0.4,0.87-0.88C344.26,287.91,343.87,287.52,343.38,287.53z"/>
			<path class="st9" d="M367.79,303.3l-32.73,0.25c-0.32,0-0.59-0.26-0.59-0.58c0-0.32,0.26-0.59,0.58-0.59l32.73-0.25
				c0.32,0,0.59,0.26,0.59,0.58C368.37,303.03,368.12,303.29,367.79,303.3z"/>
			<path class="st9" d="M378.7,303.21l-6.79,0.05c-0.32,0-0.59-0.26-0.59-0.58c0-0.32,0.26-0.59,0.58-0.59l6.79-0.05
				c0.32,0,0.59,0.26,0.59,0.58C379.28,302.95,379.03,303.21,378.7,303.21z"/>
			<path class="st9" d="M368,330.47l-32.73,0.25c-0.32,0-0.59-0.26-0.59-0.58c0-0.32,0.26-0.59,0.58-0.59l32.73-0.25
				c0.32,0,0.59,0.26,0.59,0.58C368.58,330.2,368.32,330.47,368,330.47z"/>
			<path class="st9" d="M378.91,330.39l-6.79,0.05c-0.32,0-0.59-0.26-0.59-0.58c0-0.32,0.26-0.59,0.58-0.59l6.79-0.05
				c0.32,0,0.59,0.26,0.59,0.58C379.49,330.12,379.23,330.38,378.91,330.39z"/>
			<path class="st9" d="M367.89,316.26l-32.73,0.25c-0.32,0-0.59-0.26-0.59-0.58c0-0.32,0.26-0.59,0.58-0.59l32.73-0.25
				c0.32,0,0.59,0.26,0.59,0.58C368.47,316,368.21,316.26,367.89,316.26z"/>
			<path class="st9" d="M378.8,316.18l-6.79,0.05c-0.32,0-0.59-0.26-0.59-0.58c0-0.32,0.26-0.59,0.58-0.59l6.79-0.05
				c0.32,0,0.59,0.26,0.59,0.58C379.38,315.92,379.12,316.18,378.8,316.18z"/>
			<path class="st9" d="M389.99,316.1l-6.79,0.05c-0.32,0-0.59-0.26-0.59-0.58c0-0.32,0.26-0.59,0.58-0.59l6.79-0.05
				c0.32,0,0.59,0.26,0.59,0.58C390.57,315.83,390.31,316.09,389.99,316.1z"/>
			<path class="st9" d="M356.93,309.76l-21.82,0.17c-0.32,0-0.59-0.26-0.59-0.58c0-0.32,0.26-0.59,0.58-0.59l21.82-0.17
				c0.32,0,0.59,0.26,0.59,0.58C357.51,309.49,357.25,309.76,356.93,309.76z"/>
			<path class="st9" d="M370.52,309.66l-9.57,0.07c-0.32,0-0.59-0.26-0.59-0.58c0-0.32,0.26-0.59,0.58-0.59l9.57-0.07
				c0.32,0,0.59,0.26,0.59,0.58C371.1,309.39,370.84,309.65,370.52,309.66z"/>
			<path class="st9" d="M370.62,323.32l-21.82,0.17c-0.32,0-0.59-0.26-0.59-0.58c0-0.32,0.26-0.59,0.58-0.59l21.82-0.17
				c0.32,0,0.59,0.26,0.59,0.58C371.2,323.06,370.94,323.32,370.62,323.32z"/>
			<path class="st9" d="M344.79,323.52l-9.57,0.07c-0.32,0-0.59-0.26-0.59-0.58c0-0.32,0.26-0.59,0.58-0.59l9.57-0.07
				c0.32,0,0.59,0.26,0.59,0.58C345.37,323.25,345.11,323.52,344.79,323.52z"/>
			<path class="st9" d="M368.07,339.63l-32.73,0.25c-0.32,0-0.59-0.26-0.59-0.58c0-0.32,0.26-0.59,0.58-0.59l32.73-0.25
				c0.32,0,0.59,0.26,0.59,0.58C368.65,339.36,368.39,339.63,368.07,339.63z"/>
			<path class="st9" d="M378.98,339.55l-6.79,0.05c-0.32,0-0.59-0.26-0.59-0.58c0-0.32,0.26-0.59,0.58-0.59l6.79-0.05
				c0.32,0,0.59,0.26,0.59,0.58C379.56,339.28,379.3,339.54,378.98,339.55z"/>
			<path class="st9" d="M368.27,366.8l-32.73,0.25c-0.32,0-0.59-0.26-0.59-0.58c0-0.32,0.26-0.59,0.58-0.59l32.73-0.25
				c0.32,0,0.59,0.26,0.59,0.58C368.86,366.53,368.6,366.8,368.27,366.8z"/>
			<path class="st9" d="M379.18,366.72l-6.79,0.05c-0.32,0-0.59-0.26-0.59-0.58c0-0.32,0.26-0.59,0.58-0.59l6.79-0.05
				c0.32,0,0.59,0.26,0.59,0.58C379.77,366.45,379.51,366.71,379.18,366.72z"/>
			<path class="st9" d="M368.17,352.6l-32.73,0.25c-0.32,0-0.59-0.26-0.59-0.58c0-0.32,0.26-0.59,0.58-0.59l32.73-0.25
				c0.32,0,0.59,0.26,0.59,0.58S368.49,352.59,368.17,352.6z"/>
			<path class="st9" d="M379.08,352.51l-6.79,0.05c-0.32,0-0.59-0.26-0.59-0.58c0-0.32,0.26-0.59,0.58-0.59l6.79-0.05
				c0.32,0,0.59,0.26,0.59,0.58C379.66,352.25,379.4,352.51,379.08,352.51z"/>
			<path class="st9" d="M390.26,352.43l-6.79,0.05c-0.32,0-0.59-0.26-0.59-0.58c0-0.32,0.26-0.59,0.58-0.59l6.79-0.05
				c0.32,0,0.59,0.26,0.59,0.58C390.84,352.16,390.58,352.43,390.26,352.43z"/>
			<path class="st9" d="M357.21,346.09l-21.82,0.17c-0.32,0-0.59-0.26-0.59-0.58c0-0.32,0.26-0.59,0.58-0.59l21.82-0.17
				c0.32,0,0.59,0.26,0.59,0.58C357.79,345.83,357.53,346.09,357.21,346.09z"/>
			<path class="st9" d="M370.79,345.99l-9.57,0.07c-0.32,0-0.59-0.26-0.59-0.58c0-0.32,0.26-0.59,0.58-0.59l9.57-0.07
				c0.32,0,0.59,0.26,0.59,0.58C371.37,345.72,371.11,345.99,370.79,345.99z"/>
			<path class="st9" d="M370.9,359.65l-21.82,0.17c-0.32,0-0.59-0.26-0.59-0.58c0-0.32,0.26-0.59,0.58-0.59l21.82-0.17
				c0.32,0,0.59,0.26,0.59,0.58C371.48,359.39,371.22,359.65,370.9,359.65z"/>
			<path class="st9" d="M345.06,359.85l-9.57,0.07c-0.32,0-0.59-0.26-0.59-0.58c0-0.32,0.26-0.59,0.58-0.59l9.57-0.07
				c0.32,0,0.59,0.26,0.59,0.58C345.64,359.58,345.38,359.85,345.06,359.85z"/>
			<path class="st9" d="M368.34,375.2l-32.73,0.25c-0.32,0-0.59-0.26-0.59-0.58c0-0.32,0.26-0.59,0.58-0.59l32.73-0.25
				c0.32,0,0.59,0.26,0.59,0.58C368.92,374.94,368.66,375.2,368.34,375.2z"/>
			<path class="st9" d="M379.25,375.12l-6.79,0.05c-0.32,0-0.59-0.26-0.59-0.58c0-0.32,0.26-0.59,0.58-0.59l6.79-0.05
				c0.32,0,0.59,0.26,0.59,0.58C379.83,374.85,379.57,375.12,379.25,375.12z"/>
			<path class="st9" d="M379.38,392.28l-6.79,0.05c-0.32,0-0.59-0.26-0.59-0.58c0-0.32,0.26-0.59,0.58-0.59l6.79-0.05
				c0.32,0,0.59,0.26,0.59,0.58C379.96,392.01,379.7,392.27,379.38,392.28z"/>
			<path class="st9" d="M390.56,392.19l-6.79,0.05c-0.32,0-0.59-0.26-0.59-0.58c0-0.32,0.26-0.59,0.58-0.59l6.79-0.05
				c0.32,0,0.59,0.26,0.59,0.58C391.14,391.93,390.88,392.19,390.56,392.19z"/>
			<path class="st9" d="M357.48,381.67l-21.82,0.17c-0.32,0-0.59-0.26-0.59-0.58c0-0.32,0.26-0.59,0.58-0.59l21.82-0.17
				c0.32,0,0.59,0.26,0.59,0.58C358.06,381.4,357.8,381.66,357.48,381.67z"/>
			<path class="st9" d="M371.06,381.56l-9.57,0.07c-0.32,0-0.59-0.26-0.59-0.58c0-0.32,0.26-0.59,0.58-0.59l9.57-0.07
				c0.32,0,0.59,0.26,0.59,0.58C371.64,381.3,371.38,381.56,371.06,381.56z"/>
		</g>
		<g>
			<g>
				<path class="st27" d="M419.45,122.52l1.32,128.84c0.02,1.9-1.5,3.45-3.4,3.47l-77.01,0.79c-1.9,0.02-3.45-1.5-3.47-3.4
					l-1.32-128.84c-0.02-1.9,1.5-3.45,3.4-3.47l77.01-0.79C417.88,119.1,419.43,120.62,419.45,122.52z"/>
				<path class="st9" d="M414.86,116.55l1.32,128.84c0.02,1.9-1.5,3.45-3.4,3.47l-77.01,0.79c-1.9,0.02-3.45-1.5-3.47-3.4
					l-1.32-128.84c-0.02-1.9,1.5-3.45,3.4-3.47l77.01-0.79C413.29,113.13,414.84,114.66,414.86,116.55z"/>
				<g>
					<path class="st16" d="M415.14,116.5l0.07,7.21l-83.88,0.86l-0.08-7.38c-0.02-1.82,1.44-3.3,3.25-3.32l77.13-0.79
						C413.56,113.06,415.12,114.6,415.14,116.5z"/>
					<g>
						<path class="st9" d="M404.79,117.48c-0.27,0-0.5-0.22-0.5-0.5c0-0.28,0.22-0.5,0.5-0.5l6.29-0.06c0.24-0.04,0.5,0.22,0.5,0.5
							c0,0.28-0.22,0.5-0.5,0.5L404.79,117.48C404.8,117.48,404.79,117.48,404.79,117.48z"/>
						<path class="st9" d="M404.81,119.09c-0.27,0-0.5-0.22-0.5-0.5c0-0.28,0.22-0.5,0.5-0.5l6.29-0.06c0.23,0.01,0.5,0.22,0.5,0.5
							c0,0.28-0.22,0.5-0.5,0.5L404.81,119.09C404.81,119.09,404.81,119.09,404.81,119.09z"/>
						<path class="st9" d="M404.83,120.7c-0.27,0-0.5-0.22-0.5-0.5c0-0.28,0.22-0.5,0.5-0.5l6.29-0.06c0,0,0,0,0,0
							c0.27,0,0.5,0.22,0.5,0.5c0,0.28-0.22,0.5-0.5,0.5L404.83,120.7C404.83,120.7,404.83,120.7,404.83,120.7z"/>
					</g>
					<path class="st9" d="M338.81,122.37c-0.13,0-0.25-0.05-0.35-0.14l-2.31-2.26c-0.27-0.27-0.28-0.71-0.01-0.98l2.18-2.22
						c0.2-0.2,0.51-0.2,0.71-0.01c0.2,0.19,0.2,0.51,0.01,0.71l-1.96,2l2.09,2.05c0.2,0.19,0.2,0.51,0.01,0.71
						C339.07,122.32,338.94,122.37,338.81,122.37z"/>
				</g>
				<path class="st20" d="M412.6,249.09l-77.27,0.44c-1.86,0.01-3.38-1.49-3.39-3.36l-0.15-26.78l84.02-0.47l0.15,26.78
					C415.97,247.56,414.46,249.08,412.6,249.09z"/>
				<path class="st19" d="M390.24,142.85l-33.75,0.19c-0.62,0-1.12-0.49-1.12-1.11l-0.02-3.7c0-0.62,0.49-1.12,1.11-1.12l33.75-0.19
					c0.62,0,1.12,0.49,1.12,1.11l0.02,3.7C391.36,142.34,390.86,142.84,390.24,142.85z"/>
				<g>
					<path class="st28" d="M401.01,167L346,167.31c-2.61,0.01-4.74-2.09-4.76-4.71l-0.01-1.16c-0.01-2.61,2.09-4.74,4.71-4.76
						l55.01-0.31c2.61-0.01,4.74,2.09,4.76,4.71l0.01,1.16C405.73,164.86,403.62,166.99,401.01,167z"/>
					<g>
						<path class="st21" d="M350.07,162.02c0.01,1.81-1.45,3.28-3.25,3.29c-1.81,0.01-3.28-1.45-3.29-3.25
							c-0.01-1.81,1.45-3.28,3.25-3.29C348.58,158.75,350.06,160.21,350.07,162.02z"/>
						<g>
							<path class="st9" d="M347.97,161.09c0,0.65-0.52,1.18-1.17,1.18c-0.65,0-1.18-0.52-1.18-1.17c0-0.65,0.52-1.18,1.17-1.18
								C347.44,159.92,347.97,160.44,347.97,161.09z"/>
							<path class="st9" d="M348.56,164.14l-3.49,0.02l0-0.43c-0.01-1.01,0.81-1.84,1.83-1.85l0,0c0.92-0.01,1.66,0.73,1.67,1.65
								L348.56,164.14z"/>
						</g>
					</g>
				</g>
				<g>
					<path class="st28" d="M401.1,184.31l-55.01,0.31c-2.61,0.01-4.74-2.09-4.76-4.71l-0.01-1.16c-0.01-2.61,2.09-4.74,4.71-4.76
						l55.01-0.31c2.61-0.01,4.74,2.09,4.76,4.71l0.01,1.16C405.82,182.17,403.72,184.3,401.1,184.31z"/>
					<g>
						<path class="st21" d="M350.16,179.33c0.01,1.81-1.45,3.28-3.25,3.29c-1.81,0.01-3.28-1.45-3.29-3.25
							c-0.01-1.81,1.45-3.28,3.25-3.29C348.68,176.07,350.15,177.52,350.16,179.33z"/>
						<g>
							<path class="st9" d="M348,181.4l-2.2,0.01c-0.18,0-0.32-0.14-0.33-0.32l-0.01-1.95c0-0.18,0.14-0.32,0.32-0.33l2.2-0.01
								c0.18,0,0.32,0.14,0.33,0.32l0.01,1.95C348.33,181.25,348.18,181.4,348,181.4z"/>
							<path class="st9" d="M345.75,179.05l0-0.81c0-0.21,0.08-0.41,0.23-0.57c0.15-0.15,0.35-0.24,0.56-0.24l0.74,0c0,0,0,0,0,0
								c0.19,0,0.37,0.07,0.51,0.21c0.14,0.14,0.21,0.32,0.21,0.51l0.01,0.89l-0.25,0l-0.01-0.89c0-0.13-0.05-0.24-0.14-0.33
								c-0.09-0.09-0.21-0.14-0.33-0.14c0,0,0,0,0,0l-0.74,0c-0.15,0-0.29,0.06-0.39,0.16c-0.1,0.1-0.16,0.24-0.16,0.39l0,0.81
								L345.75,179.05z"/>
						</g>
					</g>
				</g>
				<path class="st17" d="M386.63,203.65l-23.73,0.13c-2.87,0.02-5.21-2.3-5.23-5.17v0c-0.02-2.87,2.3-5.21,5.17-5.23l23.73-0.13
					c2.87-0.02,5.21,2.3,5.23,5.17l0,0C391.82,201.29,389.5,203.63,386.63,203.65z"/>
			</g>
			<path class="st9" d="M350.89,230.44c-0.55,0-1-0.44-1-0.99c0-0.55,0.44-1,0.99-1.01l45.92-0.26c0,0,0,0,0.01,0
				c0.55,0,1,0.44,1,0.99c0,0.55-0.44,1-0.99,1.01L350.89,230.44C350.9,230.44,350.9,230.44,350.89,230.44z"/>
			<path class="st9" d="M360.24,237.34c-0.55,0-1-0.44-1-0.99c0-0.55,0.44-1,0.99-1.01l27.3-0.15c0,0,0,0,0.01,0
				c0.55,0,1,0.44,1,0.99c0,0.55-0.44,1-0.99,1.01L360.24,237.34C360.25,237.34,360.24,237.34,360.24,237.34z"/>
		</g>
		<g>
			<g>
				<path class="st27" d="M360.8,209.99l1.32,128.84c0.02,1.9-1.5,3.45-3.4,3.47l-77.01,0.79c-1.9,0.02-3.45-1.5-3.47-3.4
					l-1.32-128.84c-0.02-1.9,1.5-3.45,3.4-3.47l77.01-0.79C359.23,206.57,360.78,208.09,360.8,209.99z"/>
				<path class="st9" d="M356.22,204.02l1.32,128.84c0.02,1.9-1.5,3.45-3.4,3.47l-77.01,0.79c-1.9,0.02-3.45-1.5-3.47-3.4
					l-1.32-128.84c-0.02-1.9,1.5-3.45,3.4-3.47l77.01-0.79C354.64,200.6,356.2,202.13,356.22,204.02z"/>
				<path class="st29" d="M356.22,204.02l1.32,128.84c0.02,1.9-1.5,3.45-3.4,3.47l-77.01,0.79c-1.9,0.02-3.45-1.5-3.47-3.4
					l-1.32-128.84c-0.02-1.9,1.5-3.45,3.4-3.47l77.01-0.79C354.64,200.6,356.2,202.13,356.22,204.02z"/>
				<g>
					<path class="st16" d="M356.5,203.97l0.07,7.21l-83.88,0.86l-0.08-7.38c-0.02-1.82,1.44-3.3,3.25-3.32l77.13-0.79
						C354.91,200.53,356.48,202.07,356.5,203.97z"/>
					<g>
						<path class="st9" d="M346.15,204.95c-0.27,0-0.5-0.22-0.5-0.5c0-0.28,0.22-0.5,0.5-0.5l6.29-0.06c0.23,0,0.5,0.22,0.5,0.5
							c0,0.28-0.22,0.5-0.5,0.5L346.15,204.95C346.15,204.95,346.15,204.95,346.15,204.95z"/>
						<path class="st9" d="M346.16,206.56c-0.27,0-0.5-0.22-0.5-0.5c0-0.28,0.22-0.5,0.5-0.5l6.29-0.06c0,0,0,0,0,0
							c0.27,0,0.5,0.22,0.5,0.5c0,0.28-0.22,0.5-0.5,0.5L346.16,206.56C346.17,206.56,346.16,206.56,346.16,206.56z"/>
						<path class="st9" d="M346.18,208.17c-0.27,0-0.5-0.22-0.5-0.5c0-0.28,0.22-0.5,0.5-0.5l6.29-0.06c0,0,0,0,0,0
							c0.27,0,0.5,0.22,0.5,0.5c0,0.28-0.22,0.5-0.5,0.5L346.18,208.17C346.18,208.17,346.18,208.17,346.18,208.17z"/>
					</g>
					<path class="st9" d="M280.17,209.84c-0.13,0-0.25-0.05-0.35-0.14l-2.31-2.26c-0.27-0.27-0.28-0.71-0.01-0.98l2.18-2.22
						c0.2-0.2,0.51-0.2,0.71-0.01c0.2,0.19,0.2,0.51,0.01,0.71l-1.96,2l2.09,2.05c0.2,0.19,0.2,0.51,0.01,0.71
						C280.42,209.79,280.29,209.84,280.17,209.84z"/>
				</g>
				<g class="st22">
					<path class="st9" d="M353.95,336.56L276.68,337c-1.86,0.01-3.38-1.49-3.39-3.36l-0.15-26.78l84.02-0.47l0.15,26.78
						C357.32,335.03,355.82,336.55,353.95,336.56z"/>
					<path class="st9" d="M276.66,337.5c-1.03,0-1.99-0.4-2.72-1.12c-0.74-0.73-1.14-1.7-1.15-2.73l-0.15-27.28l85.02-0.48
						l0.15,27.28c0.01,2.14-1.72,3.88-3.85,3.9l-77.27,0.44C276.68,337.5,276.67,337.5,276.66,337.5z M273.64,307.36l0.15,26.28
						c0,0.77,0.31,1.49,0.85,2.03c0.54,0.54,1.26,0.83,2.02,0.83c0,0,0.01,0,0.02,0l77.27-0.44c1.58-0.01,2.87-1.31,2.86-2.89
						l-0.15-26.28L273.64,307.36z"/>
				</g>
				<g>
					<path class="st9" d="M347.59,231.92l-60.57-0.08c-1.08,0-1.95-0.88-1.95-1.95l0.01-6.04c0-1.08,0.88-1.95,1.95-1.95l60.57,0.08
						c1.08,0,1.95,0.88,1.95,1.95l-0.01,6.04C349.55,231.05,348.67,231.92,347.59,231.92z"/>
					<path class="st9" d="M347.89,239.62l-61.17-0.08c-0.91,0-1.65-0.74-1.65-1.65l0,0c0-0.91,0.74-1.65,1.65-1.65l61.17,0.08
						c0.91,0,1.65,0.74,1.65,1.65l0,0C349.54,238.89,348.8,239.62,347.89,239.62z"/>
					<path class="st9" d="M347.88,247.22l-61.17-0.08c-0.91,0-1.65-0.74-1.65-1.65l0,0c0-0.91,0.74-1.65,1.65-1.65l61.17,0.08
						c0.91,0,1.65,0.74,1.65,1.65l0,0C349.53,246.49,348.79,247.22,347.88,247.22z"/>
					<path class="st17" d="M293.34,258.36c0,2.29-1.86,4.14-4.15,4.14c-2.29,0-4.14-1.86-4.14-4.15c0-2.29,1.86-4.14,4.15-4.14
						C291.49,254.21,293.34,256.07,293.34,258.36z"/>
					<path class="st17" d="M293.31,277.16c0,2.29-1.86,4.14-4.15,4.14c-2.29,0-4.14-1.86-4.14-4.15c0-2.29,1.86-4.14,4.15-4.14
						C291.46,273.01,293.32,274.87,293.31,277.16z"/>
					<path class="st17" d="M293.29,295.41c0,2.29-1.86,4.14-4.15,4.14c-2.29,0-4.14-1.86-4.14-4.15c0-2.29,1.86-4.15,4.15-4.14
						C291.44,291.26,293.29,293.12,293.29,295.41z"/>
					<path class="st9" d="M335.37,256.89C335.37,256.89,335.37,256.89,335.37,256.89l-39.68-0.05c-0.28,0-0.5-0.22-0.5-0.5
						c0-0.28,0.22-0.5,0.5-0.5c0,0,0,0,0,0l39.68,0.05c0.28,0,0.5,0.22,0.5,0.5C335.87,256.66,335.65,256.89,335.37,256.89z"/>
					<path class="st9" d="M315.53,261.08C315.53,261.08,315.53,261.08,315.53,261.08l-19.84-0.02c-0.28,0-0.5-0.22-0.5-0.5
						c0-0.28,0.22-0.5,0.5-0.5c0,0,0,0,0,0l19.84,0.02c0.28,0,0.5,0.22,0.5,0.5C316.03,260.86,315.8,261.08,315.53,261.08z"/>
					<path class="st9" d="M335.35,276.31C335.35,276.31,335.35,276.31,335.35,276.31l-39.68-0.05c-0.28,0-0.5-0.22-0.5-0.5
						c0-0.28,0.22-0.5,0.5-0.5c0,0,0,0,0,0l39.68,0.05c0.28,0,0.5,0.22,0.5,0.5C335.85,276.08,335.62,276.31,335.35,276.31z"/>
					<path class="st9" d="M315.5,280.5C315.5,280.5,315.5,280.5,315.5,280.5l-19.84-0.02c-0.28,0-0.5-0.22-0.5-0.5
						c0-0.28,0.22-0.5,0.5-0.5c0,0,0,0,0,0l19.84,0.02c0.28,0,0.5,0.22,0.5,0.5C316,280.28,315.78,280.5,315.5,280.5z"/>
					<path class="st9" d="M335.32,294.04C335.32,294.04,335.32,294.04,335.32,294.04l-39.68-0.05c-0.28,0-0.5-0.22-0.5-0.5
						c0-0.28,0.22-0.5,0.5-0.5c0,0,0,0,0,0l39.68,0.05c0.28,0,0.5,0.22,0.5,0.5C335.82,293.81,335.6,294.04,335.32,294.04z"/>
					<path class="st9" d="M315.48,298.23C315.48,298.23,315.48,298.23,315.48,298.23l-19.84-0.02c-0.28,0-0.5-0.22-0.5-0.5
						c0-0.28,0.22-0.5,0.5-0.5c0,0,0,0,0,0l19.84,0.02c0.28,0,0.5,0.22,0.5,0.5C315.98,298.01,315.75,298.23,315.48,298.23z"/>
				</g>
			</g>
			<path class="st9" d="M292.25,317.91c-0.55,0-1-0.44-1-0.99c0-0.55,0.44-1,0.99-1.01l45.92-0.26c0,0,0,0,0.01,0
				c0.55,0,1,0.44,1,0.99c0,0.55-0.44,1-0.99,1.01L292.25,317.91C292.25,317.91,292.25,317.91,292.25,317.91z"/>
			<path class="st9" d="M301.59,324.81c-0.55,0-1-0.44-1-0.99c0-0.55,0.44-1,0.99-1.01l27.3-0.15c0,0,0,0,0.01,0
				c0.55,0,1,0.44,1,0.99c0,0.55-0.44,1-0.99,1.01L301.59,324.81C301.6,324.81,301.6,324.81,301.59,324.81z"/>
		</g>
	</g>
	<g>
		<g>
			<g>
				<path class="st16" d="M179.07,182.53h-71.69c-0.89,0-1.61-0.72-1.61-1.61v-20.84c0-0.89,0.72-1.61,1.61-1.61h71.69
					c0.89,0,1.61,0.72,1.61,1.61v20.84C180.68,181.81,179.96,182.53,179.07,182.53z"/>
				<g>
					<path class="st17" d="M118.36,177.79c-4.27,0-7.75-3.48-7.75-7.75c0-4.27,3.48-7.75,7.75-7.75c4.27,0,7.75,3.48,7.75,7.75
						C126.11,174.31,122.64,177.79,118.36,177.79z"/>
					<path class="st9" d="M117.68,172.95l-2.9-4.01c-0.25-0.34-0.17-0.82,0.17-1.07c0.17-0.12,0.37-0.17,0.57-0.14
						c0.2,0.03,0.38,0.14,0.5,0.31l1.84,2.55l9.21-9.21c0.14-0.14,0.33-0.22,0.54-0.22c0,0,0,0,0,0c0.2,0,0.4,0.08,0.54,0.22
						c0.3,0.3,0.3,0.78,0,1.08L117.68,172.95z"/>
				</g>
				<g>
					<line class="st9" x1="132.67" y1="166.53" x2="171" y2="166.53"/>
					<path class="st30" d="M171,167.03h-38.33c-0.28,0-0.5-0.22-0.5-0.5c0-0.28,0.22-0.5,0.5-0.5H171c0.28,0,0.5,0.22,0.5,0.5
						C171.5,166.8,171.27,167.03,171,167.03z"/>
				</g>
				<g>
					<line class="st9" x1="132.67" y1="171.07" x2="149.79" y2="171.07"/>
					<path class="st30" d="M149.79,171.57h-17.13c-0.28,0-0.5-0.22-0.5-0.5c0-0.28,0.22-0.5,0.5-0.5h17.13c0.28,0,0.5,0.22,0.5,0.5
						C150.29,171.35,150.07,171.57,149.79,171.57z"/>
				</g>
				<g>
					<line class="st9" x1="153.87" y1="171.07" x2="171" y2="171.07"/>
					<path class="st30" d="M171,171.57h-17.13c-0.28,0-0.5-0.22-0.5-0.5c0-0.28,0.22-0.5,0.5-0.5H171c0.28,0,0.5,0.22,0.5,0.5
						C171.5,171.35,171.27,171.57,171,171.57z"/>
				</g>
				<g>
					<line class="st9" x1="132.67" y1="175.83" x2="171" y2="175.83"/>
					<path class="st30" d="M171,176.33h-38.33c-0.28,0-0.5-0.22-0.5-0.5c0-0.28,0.22-0.5,0.5-0.5H171c0.28,0,0.5,0.22,0.5,0.5
						C171.5,176.11,171.27,176.33,171,176.33z"/>
				</g>
			</g>
			<g>
				<g>
					<path class="st16" d="M453.25,293.08h-71.69c-0.89,0-1.61-0.72-1.61-1.61v-20.84c0-0.89,0.72-1.61,1.61-1.61h71.69
						c0.89,0,1.61,0.72,1.61,1.61v20.84C454.87,292.36,454.15,293.08,453.25,293.08z"/>
					<g>
						<path class="st17" d="M392.55,288.34c-4.27,0-7.75-3.48-7.75-7.75c0-4.27,3.48-7.75,7.75-7.75s7.75,3.48,7.75,7.75
							C400.3,284.87,396.82,288.34,392.55,288.34z"/>
						<path class="st9" d="M391.87,283.51l-2.9-4.01c-0.12-0.17-0.17-0.37-0.14-0.57c0.03-0.2,0.14-0.38,0.31-0.5
							c0.16-0.12,0.36-0.17,0.57-0.14c0.2,0.03,0.38,0.14,0.5,0.31l1.84,2.55l9.21-9.21c0.3-0.3,0.78-0.3,1.08,0
							c0.3,0.3,0.3,0.78,0,1.08L391.87,283.51z M389.4,279.19C389.4,279.19,389.4,279.19,389.4,279.19L389.4,279.19z"/>
					</g>
					<g>
						<line class="st9" x1="406.85" y1="277.08" x2="445.18" y2="277.08"/>
						<path class="st30" d="M445.18,277.58h-38.33c-0.28,0-0.5-0.22-0.5-0.5c0-0.28,0.22-0.5,0.5-0.5h38.33c0.28,0,0.5,0.22,0.5,0.5
							C445.68,277.36,445.46,277.58,445.18,277.58z"/>
					</g>
					<g>
						<line class="st9" x1="406.85" y1="281.63" x2="423.98" y2="281.63"/>
						<path class="st30" d="M423.98,282.13h-17.13c-0.28,0-0.5-0.22-0.5-0.5c0-0.28,0.22-0.5,0.5-0.5h17.13c0.28,0,0.5,0.22,0.5,0.5
							C424.48,281.9,424.26,282.13,423.98,282.13z"/>
					</g>
					<g>
						<line class="st9" x1="428.06" y1="281.63" x2="445.18" y2="281.63"/>
						<path class="st30" d="M445.18,282.13h-17.13c-0.28,0-0.5-0.22-0.5-0.5c0-0.28,0.22-0.5,0.5-0.5h17.13c0.28,0,0.5,0.22,0.5,0.5
							C445.68,281.9,445.46,282.13,445.18,282.13z"/>
					</g>
					<g>
						<line class="st9" x1="406.85" y1="286.39" x2="445.18" y2="286.39"/>
						<path class="st30" d="M445.18,286.89h-38.33c-0.28,0-0.5-0.22-0.5-0.5c0-0.28,0.22-0.5,0.5-0.5h38.33c0.28,0,0.5,0.22,0.5,0.5
							C445.68,286.66,445.46,286.89,445.18,286.89z"/>
					</g>
				</g>
			</g>
		</g>
	</g>
</g>
<g id="DESIGNED_BY_FREEPIK">
</g>
</svg>
