<?xml version="1.0" encoding="utf-8"?>
<!-- Generator: Adobe Illustrator 25.2.0, SVG Export Plug-In . SVG Version: 6.00 Build 0)  -->
<svg version="1.1" xmlns="http://www.w3.org/2000/svg" xmlns:xlink="http://www.w3.org/1999/xlink" x="0px" y="0px"
	 viewBox="0 0 400 400" style="enable-background:new 0 0 400 400;" xml:space="preserve">
<style type="text/css">
	.st0{display:none;}
	.st1{display:inline;}
	.st2{fill:#1466B1;}
	.st3{display:inline;fill:#3AC0EC;}
	.st4{fill:#DACD29;}
</style>
<g id="Layer_1">
</g>
<g id="Layer_2" class="st0">
	<g class="st1">
		<path class="st2" d="M244.15,307.95v-9.81c-0.01-7.8-3.11-15.28-8.63-20.8c-5.52-5.52-13-8.62-20.8-8.63h-0.15
			c5.58-4.11,9.15-10.4,9.84-17.29c0.69-6.9-1.57-13.76-6.22-18.9c-4.65-5.14-11.26-8.07-18.19-8.07c-6.93,0-13.54,2.93-18.19,8.07
			c-4.65,5.14-6.91,12-6.22,18.9c0.69,6.89,4.26,13.18,9.84,17.29h-0.15c-7.8,0.01-15.28,3.11-20.8,8.63
			c-5.52,5.52-8.62,13-8.63,20.8v9.81h9.81v-9.81c0-5.2,2.07-10.19,5.75-13.87c3.68-3.68,8.67-5.75,13.87-5.75h29.43
			c5.2,0,10.19,2.07,13.87,5.75c3.68,3.68,5.75,8.67,5.75,13.87v9.81H244.15z M200,263.8c-3.9,0-7.65-1.55-10.41-4.31
			c-2.76-2.76-4.31-6.5-4.31-10.41s1.55-7.65,4.31-10.41c2.76-2.76,6.5-4.31,10.41-4.31s7.65,1.55,10.41,4.31
			c2.76,2.76,4.31,6.5,4.31,10.41s-1.55,7.65-4.31,10.41C207.65,262.25,203.91,263.8,200,263.8z"/>
		<path class="st2" d="M239.24,183.45l46.34-23.14c1.67-0.83,2.72-2.55,2.71-4.41v-15.41c6.22-1.61,11.26-6.15,13.49-12.18
			c2.23-6.02,1.38-12.76-2.29-18.03c-3.67-5.27-9.68-8.42-16.11-8.42c-6.42,0-12.44,3.14-16.11,8.42c-3.67,5.27-4.52,12-2.29,18.03
			c2.23,6.02,7.27,10.57,13.49,12.18v12.38l-46.34,23.17v0c-1.66,0.83-2.71,2.53-2.71,4.39v39.24h9.81L239.24,183.45z
			 M273.58,121.56c0-2.6,1.03-5.1,2.87-6.94s4.34-2.87,6.94-2.87s5.1,1.03,6.94,2.87c1.84,1.84,2.87,4.34,2.87,6.94
			s-1.03,5.1-2.87,6.94c-1.84,1.84-4.34,2.87-6.94,2.87s-5.1-1.03-6.94-2.87C274.61,126.65,273.58,124.16,273.58,121.56z"/>
		<path class="st2" d="M190.19,67.6c0.02-4.92-1.81-9.67-5.13-13.3c-3.32-3.64-7.89-5.89-12.79-6.32s-9.79,1.01-13.68,4.01
			c-3.9,3.01-6.52,7.37-7.35,12.22c-0.83,4.85,0.19,9.84,2.86,13.97c2.67,4.13,6.8,7.11,11.57,8.34v20.32
			c0,1.86,1.05,3.56,2.71,4.39l26.72,13.36v85.26h9.81v-60.73l26.72-13.33c1.67-0.83,2.72-2.55,2.71-4.41v-25.22
			c6.22-1.61,11.26-6.15,13.49-12.18c2.23-6.02,1.38-12.76-2.29-18.03c-3.67-5.27-9.68-8.42-16.11-8.42
			c-6.42,0-12.44,3.14-16.11,8.42c-3.67,5.27-4.52,12-2.29,18.03s7.27,10.57,13.49,12.18v22.19l-19.62,9.81v-16.59
			c0-1.86-1.05-3.56-2.71-4.39l-26.72-13.36V86.52c4.2-1.08,7.92-3.53,10.58-6.95C188.73,76.15,190.18,71.94,190.19,67.6
			L190.19,67.6z M219.62,87.22c0-2.6,1.03-5.1,2.87-6.94s4.34-2.87,6.94-2.87s5.1,1.03,6.94,2.87s2.87,4.34,2.87,6.94
			c0,2.6-1.03,5.1-2.87,6.94s-4.34,2.87-6.94,2.87s-5.1-1.03-6.94-2.87S219.62,89.82,219.62,87.22z M170.57,77.41
			c-2.6,0-5.1-1.03-6.94-2.87s-2.87-4.34-2.87-6.94c0-2.6,1.03-5.1,2.87-6.94s4.34-2.87,6.94-2.87c2.6,0,5.1,1.03,6.94,2.87
			s2.87,4.34,2.87,6.94c0,2.6-1.03,5.1-2.87,6.94S173.17,77.41,170.57,77.41z"/>
		<path class="st2" d="M170.57,219.66V165.7c0-1.86-1.05-3.56-2.71-4.39l-46.34-23.17v-12.38c6.22-1.61,11.26-6.15,13.49-12.18
			c2.23-6.02,1.38-12.76-2.29-18.03c-3.67-5.27-9.68-8.42-16.11-8.42s-12.44,3.14-16.11,8.42c-3.67,5.27-4.52,12-2.29,18.03
			c2.23,6.02,7.27,10.57,13.49,12.18v15.41c0,1.86,1.05,3.56,2.71,4.39l46.34,23.17v50.93H170.57z M106.81,106.84
			c0-2.6,1.03-5.1,2.87-6.94c1.84-1.84,4.34-2.87,6.94-2.87s5.1,1.03,6.94,2.87c1.84,1.84,2.87,4.34,2.87,6.94s-1.03,5.1-2.87,6.94
			c-1.84,1.84-4.34,2.87-6.94,2.87s-5.1-1.03-6.94-2.87C107.84,111.94,106.81,109.44,106.81,106.84z"/>
		<path class="st2" d="M200,322.67c-56.15,0-98.1-15.54-98.1-29.43c0-9.66,22.56-22.56,64.34-27.51l-1.15-9.75
			c-35.29,4.16-73.01,16.13-73.01,37.25c0,18.23,28.45,30.45,63.77,35.93v18.02c0,1.3,0.52,2.55,1.44,3.47s2.17,1.44,3.47,1.44
			h78.48c1.3,0,2.55-0.52,3.47-1.44s1.44-2.17,1.44-3.47v-17.97c7.02-1.07,13.99-2.49,20.87-4.27l-2.49-9.49v0
			C242.07,320.47,221.06,322.89,200,322.67L200,322.67z M234.34,342.29h-68.67v-11.77c11.4,1.31,22.86,1.97,34.34,1.96
			c11.47,0.02,22.94-0.62,34.34-1.91V342.29z"/>
		<path class="st2" d="M272,312.62l3.16,9.28h0c3.49-1.18,6.92-2.53,10.28-4.05l-4.09-8.93C278.29,310.32,275.17,311.55,272,312.62
			L272,312.62z"/>
		<path class="st2" d="M234.91,255.98l-1.15,9.75c41.78,4.94,64.34,17.84,64.34,27.51c0,4.31-4.26,8.2-7.85,10.7l5.64,8.03
			c7.98-5.58,12.02-11.86,12.02-18.73C307.91,272.11,270.2,260.14,234.91,255.98L234.91,255.98z"/>
	</g>
</g>
<g id="Layer_3" class="st0">
	<path class="st3" d="M251.36,98.13c-5.79,0-11.22,2.49-16.13,7.05c0,0-0.01,0-0.01,0.01c-22.77,13.86-82.98,46.53-144.59,46.53
		c-0.01,0-0.01,0-0.02,0s-0.01,0-0.02,0H72.72c-12.8,0-23.22,10.42-23.22,23.22v35.73c0,12.8,10.42,23.22,23.22,23.22h12.51v66.09
		c0,12.8,10.42,23.22,23.22,23.22s23.22-10.42,23.22-23.22l0-61.68c45.78,9.39,85.9,31.4,103.54,42.13c0.01,0,0.01,0.01,0.02,0.01
		c4.9,4.55,10.33,7.04,16.12,7.04c23.42,0,41.08-40.7,41.08-94.68C292.44,138.83,274.77,98.13,251.36,98.13L251.36,98.13z
		 M95.98,162.36c49.89-1.39,97.16-21.82,126.11-37.27c-7.38,16.93-11.82,40.65-11.82,67.72c0,27.06,4.44,50.78,11.82,67.71
		c-28.95-15.45-76.23-35.87-126.1-37.27L95.98,162.36z M220.99,192.8c0-7.5,0.4-14.6,1.08-21.33c10.9,1,19.46,10.18,19.46,21.33
		c0,11.15-8.56,20.34-19.46,21.33C221.39,207.4,220.99,200.3,220.99,192.8z M60.22,210.67v-35.73c0-6.9,5.61-12.51,12.51-12.51
		h12.54v60.73H72.72C65.83,223.17,60.22,217.56,60.22,210.67L60.22,210.67z M120.95,299.98c0,6.9-5.61,12.51-12.51,12.51
		s-12.51-5.61-12.51-12.51l0-66.01c8.41,0.25,16.78,1.1,25.01,2.39L120.95,299.98z M251.36,276.76c-11,0-22.94-20.28-27.94-51.98
		c16.17-1.67,28.83-15.38,28.83-31.98c0-16.6-12.66-30.31-28.83-31.98c5-31.7,16.93-51.98,27.94-51.98
		c14.37,0,30.37,34.48,30.37,83.96C281.72,242.28,265.72,276.76,251.36,276.76L251.36,276.76z M314.27,248.02l-10.35-2.78
		c-1.9-0.51-3.04-2.47-2.53-4.38c0.51-1.91,2.46-3.04,4.38-2.53l10.35,2.78c1.9,0.51,3.04,2.47,2.53,4.38
		c-0.43,1.6-1.87,2.65-3.45,2.65C314.89,248.14,314.58,248.1,314.27,248.02L314.27,248.02z M342.8,251.97
		c-0.43,1.6-1.87,2.65-3.45,2.65c-0.3,0-0.62-0.04-0.93-0.12l-10.35-2.78c-1.9-0.51-3.04-2.47-2.53-4.38
		c0.51-1.91,2.46-3.04,4.38-2.53l10.35,2.78C342.17,248.11,343.31,250.07,342.8,251.97L342.8,251.97z M298.39,294.61
		c-0.66,1.15-1.86,1.79-3.1,1.79c-0.61,0-1.22-0.15-1.79-0.48l-9.28-5.36c-1.71-0.99-2.29-3.17-1.3-4.88
		c0.98-1.71,3.16-2.3,4.88-1.31l9.28,5.36C298.79,290.72,299.38,292.91,298.39,294.61L298.39,294.61z M320.04,307.13
		c-0.66,1.15-1.86,1.79-3.1,1.79c-0.61,0-1.22-0.15-1.79-0.48l-9.28-5.36c-1.71-0.99-2.29-3.17-1.3-4.88
		c0.99-1.71,3.17-2.3,4.88-1.31l9.28,5.36C320.45,303.23,321.03,305.42,320.04,307.13L320.04,307.13z M304.24,87.51
		c-0.99-1.71-0.4-3.9,1.31-4.88l9.29-5.36c1.71-0.99,3.89-0.4,4.88,1.31c0.99,1.71,0.4,3.9-1.31,4.88l-9.29,5.36
		c-0.57,0.32-1.18,0.48-1.78,0.48C306.1,89.3,304.9,88.66,304.24,87.51L304.24,87.51z M282.58,100.01c-0.99-1.71-0.4-3.9,1.31-4.88
		l9.28-5.36c1.71-0.99,3.89-0.4,4.88,1.31c0.99,1.71,0.4,3.9-1.31,4.88l-9.28,5.36c-0.57,0.32-1.18,0.48-1.78,0.48
		C284.44,101.8,283.24,101.16,282.58,100.01L282.58,100.01z M327.9,133.91l10.35-2.77c1.91-0.52,3.87,0.62,4.38,2.53
		c0.51,1.9-0.62,3.87-2.53,4.38l-10.35,2.77c-0.31,0.08-0.62,0.12-0.92,0.12c-1.58,0-3.02-1.05-3.45-2.65
		C324.86,136.38,325.99,134.42,327.9,133.91L327.9,133.91z M303.74,140.38l10.35-2.77c1.91-0.52,3.87,0.62,4.38,2.53
		c0.51,1.9-0.62,3.87-2.53,4.38l-10.35,2.77c-0.31,0.08-0.62,0.12-0.92,0.12c-1.58,0-3.02-1.05-3.45-2.65
		C300.7,142.85,301.83,140.89,303.74,140.38L303.74,140.38z M350.5,192.8c0,1.98-1.6,3.57-3.57,3.57H336.2
		c-1.97,0-3.57-1.6-3.57-3.57s1.6-3.57,3.57-3.57h10.72C348.9,189.23,350.5,190.83,350.5,192.8z M321.91,196.37H311.2
		c-1.97,0-3.57-1.6-3.57-3.57s1.6-3.57,3.57-3.57h10.72c1.97,0,3.57,1.6,3.57,3.57C325.49,194.78,323.89,196.37,321.91,196.37z
		 M306.09,216.8c0.26-1.96,2.07-3.33,4.01-3.07l1.77,0.23c1.95,0.26,3.33,2.05,3.07,4.01c-0.24,1.8-1.77,3.11-3.54,3.11
		c-0.16,0-0.31-0.01-0.47-0.03l-1.77-0.23C307.21,220.55,305.83,218.76,306.09,216.8L306.09,216.8z M325.93,223.02
		c-1.96-0.26-3.33-2.05-3.07-4.01c0.26-1.95,2.07-3.32,4.01-3.07l1.88,0.25c1.96,0.26,3.33,2.05,3.07,4.01
		c-0.24,1.8-1.77,3.11-3.54,3.11c-0.16,0-0.31-0.01-0.47-0.03L325.93,223.02z M348.59,222.4c-0.24,1.8-1.77,3.11-3.54,3.11
		c-0.16,0-0.31-0.01-0.47-0.03l-1.77-0.23c-1.95-0.26-3.33-2.05-3.07-4.01c0.26-1.96,2.08-3.32,4.01-3.07l1.77,0.23
		C347.47,218.65,348.85,220.45,348.59,222.4L348.59,222.4z M301.98,266.6c-0.57,1.38-1.9,2.21-3.3,2.21c-0.45,0-0.92-0.08-1.37-0.27
		l-1.65-0.68c-1.82-0.75-2.69-2.85-1.93-4.67s2.84-2.69,4.67-1.93l1.65,0.68C301.87,262.68,302.73,264.78,301.98,266.6L301.98,266.6
		z M317.7,273.12c-0.57,1.38-1.9,2.2-3.3,2.2c-0.46,0-0.92-0.08-1.37-0.27l-1.75-0.73c-1.82-0.76-2.68-2.85-1.93-4.67
		c0.75-1.82,2.85-2.68,4.67-1.93l1.75,0.73C317.59,269.21,318.46,271.3,317.7,273.12L317.7,273.12z M333.33,279.59
		c-0.57,1.38-1.9,2.21-3.3,2.21c-0.45,0-0.92-0.08-1.37-0.27l-1.65-0.68c-1.82-0.75-2.69-2.85-1.93-4.67
		c0.75-1.82,2.85-2.69,4.67-1.93l1.65,0.68C333.22,275.68,334.08,277.78,333.33,279.59L333.33,279.59z M297.13,117.11
		c1.82-0.76,3.91,0.11,4.67,1.93c0.75,1.82-0.11,3.92-1.93,4.67l-1.65,0.68c-0.45,0.19-0.91,0.27-1.37,0.27
		c-1.4,0-2.73-0.83-3.3-2.21c-0.75-1.82,0.11-3.92,1.93-4.67L297.13,117.11z M317.52,112.53c0.75,1.83-0.11,3.91-1.94,4.67
		l-1.75,0.72c-0.45,0.19-0.91,0.27-1.36,0.27c-1.4,0-2.74-0.83-3.3-2.21c-0.75-1.83,0.11-3.91,1.94-4.67l1.75-0.72
		C314.69,109.83,316.77,110.71,317.52,112.53L317.52,112.53z M324.9,109.47c-0.75-1.82,0.11-3.92,1.93-4.67l1.65-0.68
		c1.82-0.76,3.91,0.11,4.67,1.93c0.76,1.82-0.11,3.92-1.93,4.67l-1.65,0.68c-0.45,0.19-0.91,0.27-1.37,0.27
		C326.8,111.68,325.47,110.85,324.9,109.47L324.9,109.47z M309.56,171.91c-1.76,0-3.3-1.31-3.54-3.11
		c-0.26-1.96,1.12-3.75,3.07-4.01l1.77-0.23c1.95-0.25,3.75,1.12,4.01,3.07c0.26,1.95-1.12,3.75-3.07,4.01l-1.77,0.23
		C309.87,171.9,309.71,171.91,309.56,171.91L309.56,171.91z M322.8,166.6c-0.26-1.96,1.12-3.75,3.07-4.01l1.88-0.25
		c1.95-0.25,3.75,1.12,4.01,3.07c0.26,1.96-1.12,3.75-3.07,4.01l-1.88,0.25c-0.16,0.02-0.31,0.03-0.47,0.03
		C324.57,169.71,323.03,168.4,322.8,166.6L322.8,166.6z M342.75,160.37l1.77-0.23c1.95-0.24,3.75,1.12,4.01,3.07
		c0.26,1.96-1.12,3.75-3.07,4.01l-1.77,0.23c-0.16,0.02-0.31,0.03-0.47,0.03c-1.76,0-3.3-1.31-3.54-3.11
		C339.41,162.42,340.79,160.63,342.75,160.37L342.75,160.37z"/>
</g>
<g id="Layer_4">
	<g>
		<path class="st4" d="M347.53,221.57H215.98l101.74-60.49c1.37-0.82,2.2-2.3,2.18-3.9c-0.02-1.6-0.89-3.06-2.28-3.84
			c-1.39-0.78-3.09-0.76-4.47,0.06L199.97,220.7l-113.19-67.3c-1.37-0.82-3.07-0.84-4.47-0.06c-1.39,0.78-2.26,2.25-2.28,3.84
			c-0.02,1.6,0.81,3.08,2.19,3.9l101.74,60.48H52.53c-1.6,0-3.07,0.85-3.87,2.23c-0.8,1.38-0.8,3.08,0,4.47
			c0.8,1.38,2.27,2.23,3.87,2.23h130.96L83.03,290.24c-1.37,0.82-2.2,2.3-2.18,3.9c0.02,1.6,0.89,3.06,2.28,3.84
			c1.39,0.78,3.09,0.76,4.47-0.06l107.52-63.93v86.35c0,1.6,0.85,3.07,2.23,3.87c1.38,0.8,3.08,0.8,4.47,0
			c1.38-0.8,2.23-2.27,2.23-3.87v-86.83l108.31,64.4c1.37,0.82,3.08,0.84,4.47,0.06c1.39-0.78,2.26-2.24,2.28-3.84
			c0.02-1.6-0.81-3.08-2.18-3.9L216.46,230.5h131.08c1.6,0,3.07-0.85,3.87-2.23c0.8-1.38,0.8-3.08,0-4.47
			C350.6,222.42,349.13,221.57,347.53,221.57L347.53,221.57z"/>
		<path class="st4" d="M239.06,85.97c-7.84-7.85-17.83-13.19-28.71-15.36c-10.88-2.17-22.15-1.06-32.4,3.18
			c-10.25,4.24-19.01,11.43-25.17,20.65c-6.16,9.22-9.45,20.06-9.45,31.16c0,5.02,0.68,10.02,2.01,14.86
			c1.1,4.09,2.67,8.03,4.67,11.76c0.46,0.83,0.95,1.69,1.46,2.55c0.66,1.15,11.24,19.77,21.77,38.15
			c6.35,11.09,11.43,19.93,15.11,26.29c2.09,3.57,3.84,6.6,5.09,8.7c2.5,4.2,3.25,5.47,5.89,5.47c2.64,0,3.38-1.27,5.88-5.47
			c1.24-2.1,2.99-5.09,5.07-8.69c3.68-6.34,8.76-15.18,15.12-26.28c10.94-19.09,21.81-38.18,21.81-38.18l1.4-2.44l0.06-0.11l0,0
			c2.01-3.73,3.59-7.68,4.71-11.76c1.33-4.84,2.01-9.84,2.01-14.86c0.03-7.36-1.4-14.65-4.2-21.45
			C248.39,97.35,244.27,91.17,239.06,85.97L239.06,85.97z M244.81,138.1c-0.92,3.41-2.24,6.71-3.91,9.82l-1.38,2.4
			c-13.31,23.36-32.27,56.52-40.15,69.99c-7.88-13.45-26.79-46.65-40.12-69.99l-0.06-0.11c-0.46-0.75-0.89-1.5-1.28-2.22v0
			c-1.69-3.11-3.01-6.41-3.94-9.82c-2.59-9.36-2.22-19.3,1.05-28.45c3.27-9.15,9.3-17.06,17.24-22.65
			c7.94-5.59,17.42-8.59,27.14-8.59c8.27,0,16.39,2.18,23.55,6.32c7.16,4.14,13.1,10.09,17.23,17.25c4.13,7.16,6.3,15.29,6.29,23.55
			C246.48,129.81,245.92,134.02,244.81,138.1L244.81,138.1z"/>
		<path class="st4" d="M181.81,107.15c-4.53,4.53-7.08,10.68-7.08,17.09c0,6.41,2.55,12.56,7.08,17.09
			c4.53,4.53,10.68,7.08,17.09,7.08c6.41,0,12.56-2.55,17.09-7.08c4.53-4.53,7.08-10.68,7.08-17.09c0-6.41-2.55-12.56-7.08-17.09
			c-4.51-4.57-10.67-7.15-17.09-7.15C192.47,100,186.32,102.58,181.81,107.15L181.81,107.15z M209.67,135.02
			c-2.86,2.86-6.73,4.46-10.77,4.46s-7.92-1.61-10.77-4.46c-2.86-2.86-4.46-6.73-4.46-10.77c0-4.04,1.6-7.92,4.46-10.77
			c2.86-2.86,6.73-4.46,10.77-4.46c4.04,0,7.92,1.6,10.77,4.46c2.86,2.86,4.46,6.74,4.46,10.78
			C214.13,128.29,212.53,132.17,209.67,135.02L209.67,135.02z"/>
	</g>
</g>
</svg>
