<svg xmlns="http://www.w3.org/2000/svg" width="43.344" height="27.62" viewBox="0 0 43.344 27.62">
  <defs>
    <style>
      .cls-1 {
        fill: #022447;
        fill-rule: evenodd;
        opacity: 0.8;
      }
    </style>
  </defs>
  <path id="ic_view" class="cls-1" d="M323.013,2922.81c-11.786,0-21.014-12.44-21.4-12.97a1.419,1.419,0,0,1,0-1.68c0.387-.53,9.615-12.97,21.4-12.97s21.013,12.44,21.4,12.97a1.419,1.419,0,0,1,0,1.68C344.026,2910.37,334.8,2922.81,323.013,2922.81ZM304.587,2909c2.225,2.7,9.744,10.95,18.426,10.95,8.7,0,16.2-8.25,18.426-10.95-2.227-2.7-9.745-10.95-18.426-10.95C314.313,2898.05,306.81,2906.3,304.587,2909Zm18.426,8.57a8.57,8.57,0,1,1,8.575-8.57A8.586,8.586,0,0,1,323.013,2917.57Zm0-14.28a5.71,5.71,0,1,0,5.717,5.71A5.719,5.719,0,0,0,323.013,2903.29Z" transform="translate(-301.344 -2895.19)"/>
</svg>
