<?xml version="1.0" encoding="utf-8"?>
<!-- Generator: Adobe Illustrator 25.2.0, SVG Export Plug-In . SVG Version: 6.00 Build 0)  -->
<svg version="1.1" xmlns="http://www.w3.org/2000/svg" xmlns:xlink="http://www.w3.org/1999/xlink" x="0px" y="0px"
	 viewBox="0 0 400 400" style="enable-background:new 0 0 400 400;" xml:space="preserve">
<style type="text/css">
	.st0{fill:#1466B1;}
</style>
<g id="Layer_1">
</g>
<g id="Layer_2">
	<g>
		<path class="st0" d="M244.15,307.95v-9.81c-0.01-7.8-3.11-15.28-8.63-20.8c-5.52-5.52-13-8.62-20.8-8.63h-0.15
			c5.58-4.11,9.15-10.4,9.84-17.29c0.69-6.9-1.57-13.76-6.22-18.9c-4.65-5.14-11.26-8.07-18.19-8.07c-6.93,0-13.54,2.93-18.19,8.07
			c-4.65,5.14-6.91,12-6.22,18.9c0.69,6.89,4.26,13.18,9.84,17.29h-0.15c-7.8,0.01-15.28,3.11-20.8,8.63
			c-5.52,5.52-8.62,13-8.63,20.8v9.81h9.81v-9.81c0-5.2,2.07-10.19,5.75-13.87c3.68-3.68,8.67-5.75,13.87-5.75h29.43
			c5.2,0,10.19,2.07,13.87,5.75c3.68,3.68,5.75,8.67,5.75,13.87v9.81H244.15z M200,263.8c-3.9,0-7.65-1.55-10.41-4.31
			c-2.76-2.76-4.31-6.5-4.31-10.41s1.55-7.65,4.31-10.41c2.76-2.76,6.5-4.31,10.41-4.31s7.65,1.55,10.41,4.31
			c2.76,2.76,4.31,6.5,4.31,10.41s-1.55,7.65-4.31,10.41C207.65,262.25,203.91,263.8,200,263.8z"/>
		<path class="st0" d="M239.24,183.45l46.34-23.14c1.67-0.83,2.72-2.55,2.71-4.41v-15.41c6.22-1.61,11.26-6.15,13.49-12.18
			c2.23-6.02,1.38-12.76-2.29-18.03c-3.67-5.27-9.68-8.42-16.11-8.42c-6.42,0-12.44,3.14-16.11,8.42c-3.67,5.27-4.52,12-2.29,18.03
			c2.23,6.02,7.27,10.57,13.49,12.18v12.38l-46.34,23.17v0c-1.66,0.83-2.71,2.53-2.71,4.39v39.24h9.81L239.24,183.45z
			 M273.58,121.56c0-2.6,1.03-5.1,2.87-6.94s4.34-2.87,6.94-2.87s5.1,1.03,6.94,2.87c1.84,1.84,2.87,4.34,2.87,6.94
			s-1.03,5.1-2.87,6.94c-1.84,1.84-4.34,2.87-6.94,2.87s-5.1-1.03-6.94-2.87C274.61,126.65,273.58,124.16,273.58,121.56z"/>
		<path class="st0" d="M190.19,67.6c0.02-4.92-1.81-9.67-5.13-13.3c-3.32-3.64-7.89-5.89-12.79-6.32s-9.79,1.01-13.68,4.01
			c-3.9,3.01-6.52,7.37-7.35,12.22c-0.83,4.85,0.19,9.84,2.86,13.97c2.67,4.13,6.8,7.11,11.57,8.34v20.32
			c0,1.86,1.05,3.56,2.71,4.39l26.72,13.36v85.26h9.81v-60.73l26.72-13.33c1.67-0.83,2.72-2.55,2.71-4.41v-25.22
			c6.22-1.61,11.26-6.15,13.49-12.18c2.23-6.02,1.38-12.76-2.29-18.03c-3.67-5.27-9.68-8.42-16.11-8.42
			c-6.42,0-12.44,3.14-16.11,8.42c-3.67,5.27-4.52,12-2.29,18.03s7.27,10.57,13.49,12.18v22.19l-19.62,9.81v-16.59
			c0-1.86-1.05-3.56-2.71-4.39l-26.72-13.36V86.52c4.2-1.08,7.92-3.53,10.58-6.95C188.73,76.15,190.18,71.94,190.19,67.6
			L190.19,67.6z M219.62,87.22c0-2.6,1.03-5.1,2.87-6.94s4.34-2.87,6.94-2.87s5.1,1.03,6.94,2.87s2.87,4.34,2.87,6.94
			c0,2.6-1.03,5.1-2.87,6.94s-4.34,2.87-6.94,2.87s-5.1-1.03-6.94-2.87S219.62,89.82,219.62,87.22z M170.57,77.41
			c-2.6,0-5.1-1.03-6.94-2.87s-2.87-4.34-2.87-6.94c0-2.6,1.03-5.1,2.87-6.94s4.34-2.87,6.94-2.87c2.6,0,5.1,1.03,6.94,2.87
			s2.87,4.34,2.87,6.94c0,2.6-1.03,5.1-2.87,6.94S173.17,77.41,170.57,77.41z"/>
		<path class="st0" d="M170.57,219.66V165.7c0-1.86-1.05-3.56-2.71-4.39l-46.34-23.17v-12.38c6.22-1.61,11.26-6.15,13.49-12.18
			c2.23-6.02,1.38-12.76-2.29-18.03c-3.67-5.27-9.68-8.42-16.11-8.42s-12.44,3.14-16.11,8.42c-3.67,5.27-4.52,12-2.29,18.03
			c2.23,6.02,7.27,10.57,13.49,12.18v15.41c0,1.86,1.05,3.56,2.71,4.39l46.34,23.17v50.93H170.57z M106.81,106.84
			c0-2.6,1.03-5.1,2.87-6.94c1.84-1.84,4.34-2.87,6.94-2.87s5.1,1.03,6.94,2.87c1.84,1.84,2.87,4.34,2.87,6.94s-1.03,5.1-2.87,6.94
			c-1.84,1.84-4.34,2.87-6.94,2.87s-5.1-1.03-6.94-2.87C107.84,111.94,106.81,109.44,106.81,106.84z"/>
		<path class="st0" d="M200,322.67c-56.15,0-98.1-15.54-98.1-29.43c0-9.66,22.56-22.56,64.34-27.51l-1.15-9.75
			c-35.29,4.16-73.01,16.13-73.01,37.25c0,18.23,28.45,30.45,63.77,35.93v18.02c0,1.3,0.52,2.55,1.44,3.47s2.17,1.44,3.47,1.44
			h78.48c1.3,0,2.55-0.52,3.47-1.44s1.44-2.17,1.44-3.47v-17.97c7.02-1.07,13.99-2.49,20.87-4.27l-2.49-9.49v0
			C242.07,320.47,221.06,322.89,200,322.67L200,322.67z M234.34,342.29h-68.67v-11.77c11.4,1.31,22.86,1.97,34.34,1.96
			c11.47,0.02,22.94-0.62,34.34-1.91V342.29z"/>
		<path class="st0" d="M272,312.62l3.16,9.28h0c3.49-1.18,6.92-2.53,10.28-4.05l-4.09-8.93C278.29,310.32,275.17,311.55,272,312.62
			L272,312.62z"/>
		<path class="st0" d="M234.91,255.98l-1.15,9.75c41.78,4.94,64.34,17.84,64.34,27.51c0,4.31-4.26,8.2-7.85,10.7l5.64,8.03
			c7.98-5.58,12.02-11.86,12.02-18.73C307.91,272.11,270.2,260.14,234.91,255.98L234.91,255.98z"/>
	</g>
</g>
</svg>
