<?xml version="1.0" encoding="utf-8"?>
<!-- Generator: Adobe Illustrator 25.2.0, SVG Export Plug-In . SVG Version: 6.00 Build 0)  -->
<svg version="1.1" xmlns="http://www.w3.org/2000/svg" xmlns:xlink="http://www.w3.org/1999/xlink" x="0px" y="0px"
	 viewBox="0 0 400 400" style="enable-background:new 0 0 400 400;" xml:space="preserve">
<style type="text/css">
	.st0{display:none;}
	.st1{display:inline;}
	.st2{fill:#1466B1;}
	.st3{display:inline;fill:#3AC0EC;}
	.st4{fill:#DACD29;}
	.st5{fill:#F26422;}
</style>
<g id="Layer_1">
</g>
<g id="Layer_2" class="st0">
	<g class="st1">
		<path class="st2" d="M244.15,307.95v-9.81c-0.01-7.8-3.11-15.28-8.63-20.8c-5.52-5.52-13-8.62-20.8-8.63h-0.15
			c5.58-4.11,9.15-10.4,9.84-17.29c0.69-6.9-1.57-13.76-6.22-18.9c-4.65-5.14-11.26-8.07-18.19-8.07c-6.93,0-13.54,2.93-18.19,8.07
			c-4.65,5.14-6.91,12-6.22,18.9c0.69,6.89,4.26,13.18,9.84,17.29h-0.15c-7.8,0.01-15.28,3.11-20.8,8.63
			c-5.52,5.52-8.62,13-8.63,20.8v9.81h9.81v-9.81c0-5.2,2.07-10.19,5.75-13.87c3.68-3.68,8.67-5.75,13.87-5.75h29.43
			c5.2,0,10.19,2.07,13.87,5.75c3.68,3.68,5.75,8.67,5.75,13.87v9.81H244.15z M200,263.8c-3.9,0-7.65-1.55-10.41-4.31
			c-2.76-2.76-4.31-6.5-4.31-10.41s1.55-7.65,4.31-10.41c2.76-2.76,6.5-4.31,10.41-4.31s7.65,1.55,10.41,4.31
			c2.76,2.76,4.31,6.5,4.31,10.41s-1.55,7.65-4.31,10.41C207.65,262.25,203.91,263.8,200,263.8z"/>
		<path class="st2" d="M239.24,183.45l46.34-23.14c1.67-0.83,2.72-2.55,2.71-4.41v-15.41c6.22-1.61,11.26-6.15,13.49-12.18
			c2.23-6.02,1.38-12.76-2.29-18.03c-3.67-5.27-9.68-8.42-16.11-8.42c-6.42,0-12.44,3.14-16.11,8.42c-3.67,5.27-4.52,12-2.29,18.03
			c2.23,6.02,7.27,10.57,13.49,12.18v12.38l-46.34,23.17v0c-1.66,0.83-2.71,2.53-2.71,4.39v39.24h9.81L239.24,183.45z
			 M273.58,121.56c0-2.6,1.03-5.1,2.87-6.94s4.34-2.87,6.94-2.87s5.1,1.03,6.94,2.87c1.84,1.84,2.87,4.34,2.87,6.94
			s-1.03,5.1-2.87,6.94c-1.84,1.84-4.34,2.87-6.94,2.87s-5.1-1.03-6.94-2.87C274.61,126.65,273.58,124.16,273.58,121.56z"/>
		<path class="st2" d="M190.19,67.6c0.02-4.92-1.81-9.67-5.13-13.3c-3.32-3.64-7.89-5.89-12.79-6.32s-9.79,1.01-13.68,4.01
			c-3.9,3.01-6.52,7.37-7.35,12.22c-0.83,4.85,0.19,9.84,2.86,13.97c2.67,4.13,6.8,7.11,11.57,8.34v20.32
			c0,1.86,1.05,3.56,2.71,4.39l26.72,13.36v85.26h9.81v-60.73l26.72-13.33c1.67-0.83,2.72-2.55,2.71-4.41v-25.22
			c6.22-1.61,11.26-6.15,13.49-12.18c2.23-6.02,1.38-12.76-2.29-18.03c-3.67-5.27-9.68-8.42-16.11-8.42
			c-6.42,0-12.44,3.14-16.11,8.42c-3.67,5.27-4.52,12-2.29,18.03s7.27,10.57,13.49,12.18v22.19l-19.62,9.81v-16.59
			c0-1.86-1.05-3.56-2.71-4.39l-26.72-13.36V86.52c4.2-1.08,7.92-3.53,10.58-6.95C188.73,76.15,190.18,71.94,190.19,67.6
			L190.19,67.6z M219.62,87.22c0-2.6,1.03-5.1,2.87-6.94s4.34-2.87,6.94-2.87s5.1,1.03,6.94,2.87s2.87,4.34,2.87,6.94
			c0,2.6-1.03,5.1-2.87,6.94s-4.34,2.87-6.94,2.87s-5.1-1.03-6.94-2.87S219.62,89.82,219.62,87.22z M170.57,77.41
			c-2.6,0-5.1-1.03-6.94-2.87s-2.87-4.34-2.87-6.94c0-2.6,1.03-5.1,2.87-6.94s4.34-2.87,6.94-2.87c2.6,0,5.1,1.03,6.94,2.87
			s2.87,4.34,2.87,6.94c0,2.6-1.03,5.1-2.87,6.94S173.17,77.41,170.57,77.41z"/>
		<path class="st2" d="M170.57,219.66V165.7c0-1.86-1.05-3.56-2.71-4.39l-46.34-23.17v-12.38c6.22-1.61,11.26-6.15,13.49-12.18
			c2.23-6.02,1.38-12.76-2.29-18.03c-3.67-5.27-9.68-8.42-16.11-8.42s-12.44,3.14-16.11,8.42c-3.67,5.27-4.52,12-2.29,18.03
			c2.23,6.02,7.27,10.57,13.49,12.18v15.41c0,1.86,1.05,3.56,2.71,4.39l46.34,23.17v50.93H170.57z M106.81,106.84
			c0-2.6,1.03-5.1,2.87-6.94c1.84-1.84,4.34-2.87,6.94-2.87s5.1,1.03,6.94,2.87c1.84,1.84,2.87,4.34,2.87,6.94s-1.03,5.1-2.87,6.94
			c-1.84,1.84-4.34,2.87-6.94,2.87s-5.1-1.03-6.94-2.87C107.84,111.94,106.81,109.44,106.81,106.84z"/>
		<path class="st2" d="M200,322.67c-56.15,0-98.1-15.54-98.1-29.43c0-9.66,22.56-22.56,64.34-27.51l-1.15-9.75
			c-35.29,4.16-73.01,16.13-73.01,37.25c0,18.23,28.45,30.45,63.77,35.93v18.02c0,1.3,0.52,2.55,1.44,3.47s2.17,1.44,3.47,1.44
			h78.48c1.3,0,2.55-0.52,3.47-1.44s1.44-2.17,1.44-3.47v-17.97c7.02-1.07,13.99-2.49,20.87-4.27l-2.49-9.49v0
			C242.07,320.47,221.06,322.89,200,322.67L200,322.67z M234.34,342.29h-68.67v-11.77c11.4,1.31,22.86,1.97,34.34,1.96
			c11.47,0.02,22.94-0.62,34.34-1.91V342.29z"/>
		<path class="st2" d="M272,312.62l3.16,9.28h0c3.49-1.18,6.92-2.53,10.28-4.05l-4.09-8.93C278.29,310.32,275.17,311.55,272,312.62
			L272,312.62z"/>
		<path class="st2" d="M234.91,255.98l-1.15,9.75c41.78,4.94,64.34,17.84,64.34,27.51c0,4.31-4.26,8.2-7.85,10.7l5.64,8.03
			c7.98-5.58,12.02-11.86,12.02-18.73C307.91,272.11,270.2,260.14,234.91,255.98L234.91,255.98z"/>
	</g>
</g>
<g id="Layer_3" class="st0">
	<path class="st3" d="M251.36,98.13c-5.79,0-11.22,2.49-16.13,7.05c0,0-0.01,0-0.01,0.01c-22.77,13.86-82.98,46.53-144.59,46.53
		c-0.01,0-0.01,0-0.02,0s-0.01,0-0.02,0H72.72c-12.8,0-23.22,10.42-23.22,23.22v35.73c0,12.8,10.42,23.22,23.22,23.22h12.51v66.09
		c0,12.8,10.42,23.22,23.22,23.22s23.22-10.42,23.22-23.22l0-61.68c45.78,9.39,85.9,31.4,103.54,42.13c0.01,0,0.01,0.01,0.02,0.01
		c4.9,4.55,10.33,7.04,16.12,7.04c23.42,0,41.08-40.7,41.08-94.68C292.44,138.83,274.77,98.13,251.36,98.13L251.36,98.13z
		 M95.98,162.36c49.89-1.39,97.16-21.82,126.11-37.27c-7.38,16.93-11.82,40.65-11.82,67.72c0,27.06,4.44,50.78,11.82,67.71
		c-28.95-15.45-76.23-35.87-126.1-37.27L95.98,162.36z M220.99,192.8c0-7.5,0.4-14.6,1.08-21.33c10.9,1,19.46,10.18,19.46,21.33
		c0,11.15-8.56,20.34-19.46,21.33C221.39,207.4,220.99,200.3,220.99,192.8z M60.22,210.67v-35.73c0-6.9,5.61-12.51,12.51-12.51
		h12.54v60.73H72.72C65.83,223.17,60.22,217.56,60.22,210.67L60.22,210.67z M120.95,299.98c0,6.9-5.61,12.51-12.51,12.51
		s-12.51-5.61-12.51-12.51l0-66.01c8.41,0.25,16.78,1.1,25.01,2.39L120.95,299.98z M251.36,276.76c-11,0-22.94-20.28-27.94-51.98
		c16.17-1.67,28.83-15.38,28.83-31.98c0-16.6-12.66-30.31-28.83-31.98c5-31.7,16.93-51.98,27.94-51.98
		c14.37,0,30.37,34.48,30.37,83.96C281.72,242.28,265.72,276.76,251.36,276.76L251.36,276.76z M314.27,248.02l-10.35-2.78
		c-1.9-0.51-3.04-2.47-2.53-4.38c0.51-1.91,2.46-3.04,4.38-2.53l10.35,2.78c1.9,0.51,3.04,2.47,2.53,4.38
		c-0.43,1.6-1.87,2.65-3.45,2.65C314.89,248.14,314.58,248.1,314.27,248.02L314.27,248.02z M342.8,251.97
		c-0.43,1.6-1.87,2.65-3.45,2.65c-0.3,0-0.62-0.04-0.93-0.12l-10.35-2.78c-1.9-0.51-3.04-2.47-2.53-4.38
		c0.51-1.91,2.46-3.04,4.38-2.53l10.35,2.78C342.17,248.11,343.31,250.07,342.8,251.97L342.8,251.97z M298.39,294.61
		c-0.66,1.15-1.86,1.79-3.1,1.79c-0.61,0-1.22-0.15-1.79-0.48l-9.28-5.36c-1.71-0.99-2.29-3.17-1.3-4.88
		c0.98-1.71,3.16-2.3,4.88-1.31l9.28,5.36C298.79,290.72,299.38,292.91,298.39,294.61L298.39,294.61z M320.04,307.13
		c-0.66,1.15-1.86,1.79-3.1,1.79c-0.61,0-1.22-0.15-1.79-0.48l-9.28-5.36c-1.71-0.99-2.29-3.17-1.3-4.88
		c0.99-1.71,3.17-2.3,4.88-1.31l9.28,5.36C320.45,303.23,321.03,305.42,320.04,307.13L320.04,307.13z M304.24,87.51
		c-0.99-1.71-0.4-3.9,1.31-4.88l9.29-5.36c1.71-0.99,3.89-0.4,4.88,1.31c0.99,1.71,0.4,3.9-1.31,4.88l-9.29,5.36
		c-0.57,0.32-1.18,0.48-1.78,0.48C306.1,89.3,304.9,88.66,304.24,87.51L304.24,87.51z M282.58,100.01c-0.99-1.71-0.4-3.9,1.31-4.88
		l9.28-5.36c1.71-0.99,3.89-0.4,4.88,1.31c0.99,1.71,0.4,3.9-1.31,4.88l-9.28,5.36c-0.57,0.32-1.18,0.48-1.78,0.48
		C284.44,101.8,283.24,101.16,282.58,100.01L282.58,100.01z M327.9,133.91l10.35-2.77c1.91-0.52,3.87,0.62,4.38,2.53
		c0.51,1.9-0.62,3.87-2.53,4.38l-10.35,2.77c-0.31,0.08-0.62,0.12-0.92,0.12c-1.58,0-3.02-1.05-3.45-2.65
		C324.86,136.38,325.99,134.42,327.9,133.91L327.9,133.91z M303.74,140.38l10.35-2.77c1.91-0.52,3.87,0.62,4.38,2.53
		c0.51,1.9-0.62,3.87-2.53,4.38l-10.35,2.77c-0.31,0.08-0.62,0.12-0.92,0.12c-1.58,0-3.02-1.05-3.45-2.65
		C300.7,142.85,301.83,140.89,303.74,140.38L303.74,140.38z M350.5,192.8c0,1.98-1.6,3.57-3.57,3.57H336.2
		c-1.97,0-3.57-1.6-3.57-3.57s1.6-3.57,3.57-3.57h10.72C348.9,189.23,350.5,190.83,350.5,192.8z M321.91,196.37H311.2
		c-1.97,0-3.57-1.6-3.57-3.57s1.6-3.57,3.57-3.57h10.72c1.97,0,3.57,1.6,3.57,3.57C325.49,194.78,323.89,196.37,321.91,196.37z
		 M306.09,216.8c0.26-1.96,2.07-3.33,4.01-3.07l1.77,0.23c1.95,0.26,3.33,2.05,3.07,4.01c-0.24,1.8-1.77,3.11-3.54,3.11
		c-0.16,0-0.31-0.01-0.47-0.03l-1.77-0.23C307.21,220.55,305.83,218.76,306.09,216.8L306.09,216.8z M325.93,223.02
		c-1.96-0.26-3.33-2.05-3.07-4.01c0.26-1.95,2.07-3.32,4.01-3.07l1.88,0.25c1.96,0.26,3.33,2.05,3.07,4.01
		c-0.24,1.8-1.77,3.11-3.54,3.11c-0.16,0-0.31-0.01-0.47-0.03L325.93,223.02z M348.59,222.4c-0.24,1.8-1.77,3.11-3.54,3.11
		c-0.16,0-0.31-0.01-0.47-0.03l-1.77-0.23c-1.95-0.26-3.33-2.05-3.07-4.01c0.26-1.96,2.08-3.32,4.01-3.07l1.77,0.23
		C347.47,218.65,348.85,220.45,348.59,222.4L348.59,222.4z M301.98,266.6c-0.57,1.38-1.9,2.21-3.3,2.21c-0.45,0-0.92-0.08-1.37-0.27
		l-1.65-0.68c-1.82-0.75-2.69-2.85-1.93-4.67s2.84-2.69,4.67-1.93l1.65,0.68C301.87,262.68,302.73,264.78,301.98,266.6L301.98,266.6
		z M317.7,273.12c-0.57,1.38-1.9,2.2-3.3,2.2c-0.46,0-0.92-0.08-1.37-0.27l-1.75-0.73c-1.82-0.76-2.68-2.85-1.93-4.67
		c0.75-1.82,2.85-2.68,4.67-1.93l1.75,0.73C317.59,269.21,318.46,271.3,317.7,273.12L317.7,273.12z M333.33,279.59
		c-0.57,1.38-1.9,2.21-3.3,2.21c-0.45,0-0.92-0.08-1.37-0.27l-1.65-0.68c-1.82-0.75-2.69-2.85-1.93-4.67
		c0.75-1.82,2.85-2.69,4.67-1.93l1.65,0.68C333.22,275.68,334.08,277.78,333.33,279.59L333.33,279.59z M297.13,117.11
		c1.82-0.76,3.91,0.11,4.67,1.93c0.75,1.82-0.11,3.92-1.93,4.67l-1.65,0.68c-0.45,0.19-0.91,0.27-1.37,0.27
		c-1.4,0-2.73-0.83-3.3-2.21c-0.75-1.82,0.11-3.92,1.93-4.67L297.13,117.11z M317.52,112.53c0.75,1.83-0.11,3.91-1.94,4.67
		l-1.75,0.72c-0.45,0.19-0.91,0.27-1.36,0.27c-1.4,0-2.74-0.83-3.3-2.21c-0.75-1.83,0.11-3.91,1.94-4.67l1.75-0.72
		C314.69,109.83,316.77,110.71,317.52,112.53L317.52,112.53z M324.9,109.47c-0.75-1.82,0.11-3.92,1.93-4.67l1.65-0.68
		c1.82-0.76,3.91,0.11,4.67,1.93c0.76,1.82-0.11,3.92-1.93,4.67l-1.65,0.68c-0.45,0.19-0.91,0.27-1.37,0.27
		C326.8,111.68,325.47,110.85,324.9,109.47L324.9,109.47z M309.56,171.91c-1.76,0-3.3-1.31-3.54-3.11
		c-0.26-1.96,1.12-3.75,3.07-4.01l1.77-0.23c1.95-0.25,3.75,1.12,4.01,3.07c0.26,1.95-1.12,3.75-3.07,4.01l-1.77,0.23
		C309.87,171.9,309.71,171.91,309.56,171.91L309.56,171.91z M322.8,166.6c-0.26-1.96,1.12-3.75,3.07-4.01l1.88-0.25
		c1.95-0.25,3.75,1.12,4.01,3.07c0.26,1.96-1.12,3.75-3.07,4.01l-1.88,0.25c-0.16,0.02-0.31,0.03-0.47,0.03
		C324.57,169.71,323.03,168.4,322.8,166.6L322.8,166.6z M342.75,160.37l1.77-0.23c1.95-0.24,3.75,1.12,4.01,3.07
		c0.26,1.96-1.12,3.75-3.07,4.01l-1.77,0.23c-0.16,0.02-0.31,0.03-0.47,0.03c-1.76,0-3.3-1.31-3.54-3.11
		C339.41,162.42,340.79,160.63,342.75,160.37L342.75,160.37z"/>
</g>
<g id="Layer_4" class="st0">
	<g class="st1">
		<path class="st4" d="M347.53,221.57H215.98l101.74-60.49c1.37-0.82,2.2-2.3,2.18-3.9c-0.02-1.6-0.89-3.06-2.28-3.84
			c-1.39-0.78-3.09-0.76-4.47,0.06L199.97,220.7l-113.19-67.3c-1.37-0.82-3.07-0.84-4.47-0.06c-1.39,0.78-2.26,2.25-2.28,3.84
			c-0.02,1.6,0.81,3.08,2.19,3.9l101.74,60.48H52.53c-1.6,0-3.07,0.85-3.87,2.23c-0.8,1.38-0.8,3.08,0,4.47
			c0.8,1.38,2.27,2.23,3.87,2.23h130.96L83.03,290.24c-1.37,0.82-2.2,2.3-2.18,3.9c0.02,1.6,0.89,3.06,2.28,3.84
			c1.39,0.78,3.09,0.76,4.47-0.06l107.52-63.93v86.35c0,1.6,0.85,3.07,2.23,3.87c1.38,0.8,3.08,0.8,4.47,0
			c1.38-0.8,2.23-2.27,2.23-3.87v-86.83l108.31,64.4c1.37,0.82,3.08,0.84,4.47,0.06c1.39-0.78,2.26-2.24,2.28-3.84
			c0.02-1.6-0.81-3.08-2.18-3.9L216.46,230.5h131.08c1.6,0,3.07-0.85,3.87-2.23c0.8-1.38,0.8-3.08,0-4.47
			C350.6,222.42,349.13,221.57,347.53,221.57L347.53,221.57z"/>
		<path class="st4" d="M239.06,85.97c-7.84-7.85-17.83-13.19-28.71-15.36c-10.88-2.17-22.15-1.06-32.4,3.18
			c-10.25,4.24-19.01,11.43-25.17,20.65c-6.16,9.22-9.45,20.06-9.45,31.16c0,5.02,0.68,10.02,2.01,14.86
			c1.1,4.09,2.67,8.03,4.67,11.76c0.46,0.83,0.95,1.69,1.46,2.55c0.66,1.15,11.24,19.77,21.77,38.15
			c6.35,11.09,11.43,19.93,15.11,26.29c2.09,3.57,3.84,6.6,5.09,8.7c2.5,4.2,3.25,5.47,5.89,5.47c2.64,0,3.38-1.27,5.88-5.47
			c1.24-2.1,2.99-5.09,5.07-8.69c3.68-6.34,8.76-15.18,15.12-26.28c10.94-19.09,21.81-38.18,21.81-38.18l1.4-2.44l0.06-0.11l0,0
			c2.01-3.73,3.59-7.68,4.71-11.76c1.33-4.84,2.01-9.84,2.01-14.86c0.03-7.36-1.4-14.65-4.2-21.45
			C248.39,97.35,244.27,91.17,239.06,85.97L239.06,85.97z M244.81,138.1c-0.92,3.41-2.24,6.71-3.91,9.82l-1.38,2.4
			c-13.31,23.36-32.27,56.52-40.15,69.99c-7.88-13.45-26.79-46.65-40.12-69.99l-0.06-0.11c-0.46-0.75-0.89-1.5-1.28-2.22v0
			c-1.69-3.11-3.01-6.41-3.94-9.82c-2.59-9.36-2.22-19.3,1.05-28.45c3.27-9.15,9.3-17.06,17.24-22.65
			c7.94-5.59,17.42-8.59,27.14-8.59c8.27,0,16.39,2.18,23.55,6.32c7.16,4.14,13.1,10.09,17.23,17.25c4.13,7.16,6.3,15.29,6.29,23.55
			C246.48,129.81,245.92,134.02,244.81,138.1L244.81,138.1z"/>
		<path class="st4" d="M181.81,107.15c-4.53,4.53-7.08,10.68-7.08,17.09c0,6.41,2.55,12.56,7.08,17.09
			c4.53,4.53,10.68,7.08,17.09,7.08c6.41,0,12.56-2.55,17.09-7.08c4.53-4.53,7.08-10.68,7.08-17.09c0-6.41-2.55-12.56-7.08-17.09
			c-4.51-4.57-10.67-7.15-17.09-7.15C192.47,100,186.32,102.58,181.81,107.15L181.81,107.15z M209.67,135.02
			c-2.86,2.86-6.73,4.46-10.77,4.46s-7.92-1.61-10.77-4.46c-2.86-2.86-4.46-6.73-4.46-10.77c0-4.04,1.6-7.92,4.46-10.77
			c2.86-2.86,6.73-4.46,10.77-4.46c4.04,0,7.92,1.6,10.77,4.46c2.86,2.86,4.46,6.74,4.46,10.78
			C214.13,128.29,212.53,132.17,209.67,135.02L209.67,135.02z"/>
	</g>
</g>
<g id="Layer_5">
	<g>
		<path class="st5" d="M200,51.19c-39.47,0-77.31,15.68-105.22,43.59C66.87,122.69,51.19,160.54,51.19,200s15.68,77.31,43.59,105.22
			c27.91,27.91,65.76,43.59,105.22,43.59s77.31-15.68,105.22-43.59c27.91-27.91,43.59-65.76,43.59-105.22s-15.68-77.31-43.59-105.22
			C277.31,66.87,239.46,51.19,200,51.19L200,51.19z M200,341.55c-37.54,0-73.54-14.91-100.09-41.46
			C73.37,273.54,58.46,237.54,58.46,200s14.91-73.54,41.46-100.09C126.46,73.37,162.46,58.46,200,58.46s73.54,14.91,100.09,41.46
			c26.54,26.55,41.46,62.55,41.46,100.09c-0.05,37.53-14.97,73.5-41.51,100.04C273.5,326.57,237.52,341.5,200,341.55L200,341.55z"/>
		<path class="st5" d="M116.52,111.81c0.9,0,1.77-0.34,2.43-0.94c3.46-3.16,7.09-6.12,10.89-8.86c1.63-1.17,2.01-3.45,0.83-5.08
			c-1.17-1.64-3.45-2.01-5.08-0.84c-4.05,2.96-7.93,6.14-11.61,9.54c-1.02,1.04-1.32,2.58-0.76,3.92
			C113.77,110.9,115.07,111.78,116.52,111.81L116.52,111.81z"/>
		<path class="st5" d="M97.4,133.65c1.2,0.01,2.33-0.57,3.01-1.56c2.64-3.88,5.51-7.6,8.6-11.14c1.32-1.51,1.17-3.81-0.35-5.13
			c-1.51-1.32-3.81-1.17-5.13,0.34c-3.26,3.76-6.3,7.72-9.11,11.83c-1.13,1.66-0.71,3.91,0.94,5.05
			C95.97,133.44,96.67,133.65,97.4,133.65L97.4,133.65z"/>
		<path class="st5" d="M139.93,94.93c0.62,0,1.24-0.16,1.78-0.47c4.11-2.25,8.34-4.28,12.67-6.06c0.95-0.32,1.72-1.02,2.14-1.92
			c0.42-0.91,0.44-1.95,0.07-2.88c-0.38-0.93-1.12-1.66-2.05-2.02c-0.93-0.36-1.97-0.32-2.88,0.11c-4.57,1.87-9.04,4.02-13.35,6.42
			c-1.47,0.79-2.21,2.48-1.79,4.09c0.41,1.62,1.87,2.74,3.53,2.73L139.93,94.93z"/>
		<path class="st5" d="M76.6,187.37h0.47c1.83,0.02,3.39-1.34,3.63-3.16c0.61-4.66,1.49-9.28,2.65-13.83
			c0.49-1.94-0.69-3.92-2.63-4.41s-3.92,0.69-4.41,2.63c-1.23,4.78-2.16,9.63-2.79,14.52c-0.18,0.97,0.05,1.98,0.64,2.78
			C74.73,186.71,75.62,187.24,76.6,187.37L76.6,187.37z"/>
		<path class="st5" d="M166.75,83.86c0.31,0.06,0.63,0.06,0.94,0c4.54-1.24,9.14-2.22,13.79-2.94c2-0.31,3.38-2.19,3.07-4.19
			c-0.31-2.01-2.19-3.38-4.19-3.07c-4.9,0.77-9.74,1.82-14.52,3.16c-2.01,0.27-3.41,2.11-3.14,4.12c0.27,2.01,2.11,3.41,4.12,3.14
			L166.75,83.86z"/>
		<path class="st5" d="M76.85,216.37c0.96-0.1,1.84-0.58,2.44-1.33c0.61-0.75,0.89-1.71,0.79-2.67c-0.4-4.07-0.62-8.24-0.62-12.38
			v-1.71c0-0.96-0.38-1.89-1.06-2.57c-0.68-0.68-1.6-1.06-2.56-1.06c-2.01,0-3.63,1.62-3.63,3.63V200c0.04,4.38,0.29,8.75,0.76,13.1
			c0.19,1.86,1.76,3.28,3.63,3.27L76.85,216.37z"/>
		<path class="st5" d="M82.66,159.1c0.42,0.14,0.86,0.22,1.31,0.22c1.51,0.01,2.87-0.91,3.41-2.32c1.66-4.39,3.59-8.69,5.77-12.85
			c0.47-0.86,0.58-1.86,0.31-2.8c-0.28-0.94-0.93-1.72-1.79-2.18c-0.87-0.45-1.88-0.54-2.81-0.24c-0.93,0.3-1.7,0.96-2.13,1.84
			c-2.32,4.42-4.37,8.98-6.13,13.65C79.87,156.28,80.8,158.38,82.66,159.1L82.66,159.1z"/>
		<path class="st5" d="M321.66,225.41c-0.94-0.22-1.92-0.05-2.74,0.46c-0.82,0.51-1.4,1.33-1.61,2.26
			c-1.1,4.56-2.46,9.06-4.07,13.47c-0.34,0.9-0.3,1.91,0.1,2.79c0.4,0.88,1.14,1.56,2.04,1.89c0.41,0.14,0.84,0.22,1.27,0.22
			c1.53,0,2.89-0.96,3.41-2.39c1.71-4.68,3.14-9.45,4.28-14.3c0.23-0.94,0.08-1.93-0.43-2.75
			C323.41,226.22,322.6,225.63,321.66,225.41L321.66,225.41z"/>
		<path class="st5" d="M271.57,297.02c-3.79,2.78-7.72,5.35-11.8,7.69c-1.4,0.83-2.08,2.49-1.65,4.06c0.42,1.57,1.84,2.67,3.47,2.69
			c0.62,0,1.24-0.16,1.78-0.47c4.33-2.47,8.52-5.19,12.52-8.16c0.86-0.54,1.45-1.41,1.63-2.41c0.18-0.99-0.05-2.02-0.66-2.83
			c-0.61-0.81-1.52-1.33-2.52-1.44C273.34,296.04,272.33,296.35,271.57,297.02L271.57,297.02z"/>
		<path class="st5" d="M247.18,310.95c-4.33,1.85-8.76,3.44-13.28,4.75c-2.01,0.29-3.4,2.15-3.1,4.16c0.29,2,2.15,3.39,4.16,3.1
			c0.34,0.05,0.68,0.05,1.02,0c4.77-1.41,9.46-3.09,14.05-5.04c1.84-0.78,2.7-2.91,1.92-4.75c-0.32-0.94-1.01-1.71-1.9-2.12
			C249.13,310.62,248.1,310.59,247.18,310.95L247.18,310.95z"/>
		<path class="st5" d="M312.51,252.74c-0.86-0.44-1.86-0.52-2.78-0.22c-0.92,0.3-1.68,0.96-2.12,1.82
			c-2.17,4.21-4.59,8.28-7.26,12.19c-0.5,0.83-0.65,1.83-0.41,2.77c0.24,0.94,0.85,1.75,1.68,2.24c0.8,0.54,1.79,0.73,2.73,0.54
			c0.95-0.19,1.78-0.75,2.31-1.56c2.74-4.16,5.25-8.48,7.51-12.92c0.43-0.87,0.49-1.87,0.17-2.78
			C314.04,253.91,313.38,253.16,312.51,252.74L312.51,252.74z"/>
		<path class="st5" d="M292.08,277.78c-3.02,3.59-6.26,7-9.69,10.2c-1.17,1-1.58,2.63-1.03,4.07c0.56,1.44,1.96,2.37,3.5,2.32
			c0.93,0.01,1.83-0.35,2.5-0.98c3.64-3.42,7.07-7.06,10.27-10.89c1.29-1.53,1.1-3.83-0.44-5.12c-1.53-1.29-3.83-1.1-5.12,0.44
			L292.08,277.78z"/>
		<path class="st5" d="M318.03,175.39c0.95,4.6,1.63,9.26,2.03,13.94c0.17,1.88,1.75,3.31,3.63,3.3h0.33
			c0.96-0.08,1.86-0.55,2.48-1.29c0.62-0.74,0.92-1.7,0.83-2.67c-0.46-4.96-1.18-9.89-2.18-14.77c-0.41-2-2.37-3.3-4.37-2.88
			c-2.01,0.41-3.3,2.37-2.89,4.37L318.03,175.39z"/>
		<path class="st5" d="M324.16,196.37c-2,0-3.63,1.63-3.63,3.63c0.02,4.7-0.24,9.41-0.76,14.08c-0.21,1.98,1.21,3.76,3.19,3.99h0.44
			c1.85,0.02,3.41-1.36,3.63-3.19c0.54-4.94,0.8-9.91,0.76-14.88c0-0.96-0.38-1.89-1.06-2.57
			C326.04,196.75,325.12,196.37,324.16,196.37L324.16,196.37z"/>
		<path class="st5" d="M106.8,276.44c-1.31-1.4-3.48-1.54-4.96-0.32c-1.48,1.22-1.75,3.38-0.63,4.93
			c3.15,3.84,6.53,7.47,10.13,10.89c1.42,1.41,3.7,1.41,5.12,0c1.41-1.42,1.41-3.7,0-5.12C113.04,283.55,109.81,280.08,106.8,276.44
			L106.8,276.44z"/>
		<path class="st5" d="M91.63,252.81c-0.88-1.81-3.06-2.55-4.86-1.67c-1.81,0.88-2.55,3.06-1.67,4.86c2.17,4.47,4.59,8.81,7.26,13
			c1.09,1.68,3.33,2.17,5.01,1.09c1.68-1.08,2.17-3.32,1.09-5.01C95.93,261.13,93.65,257.03,91.63,252.81L91.63,252.81z"/>
		<path class="st5" d="M192.13,320.28c-4.66-0.3-9.3-0.87-13.9-1.71c-2-0.37-3.93,0.95-4.3,2.96c-0.37,2.01,0.95,3.93,2.96,4.3
			c4.91,0.91,9.86,1.53,14.84,1.85h0.22c2.01,0.07,3.69-1.5,3.76-3.5c0.07-2.01-1.5-3.69-3.5-3.76L192.13,320.28z"/>
		<path class="st5" d="M138.73,303.83c-4.04-2.41-7.94-5.04-11.69-7.88c-1.56-0.85-3.51-0.44-4.61,0.96c-1.09,1.41-1,3.4,0.21,4.7
			c3.96,3.02,8.09,5.81,12.38,8.35c0.56,0.32,1.2,0.5,1.85,0.51c1.28,0,2.47-0.68,3.12-1.78C140.95,307,140.39,304.85,138.73,303.83
			L138.73,303.83z"/>
		<path class="st5" d="M309.14,148.72c1.99,4.25,3.74,8.62,5.23,13.07c0.49,1.49,1.88,2.5,3.45,2.5c0.37,0.05,0.75,0.05,1.12,0
			c0.92-0.3,1.69-0.95,2.12-1.82c0.44-0.87,0.51-1.87,0.2-2.79c-1.58-4.81-3.44-9.52-5.55-14.12c-0.41-0.88-1.15-1.56-2.07-1.89
			c-0.91-0.33-1.92-0.27-2.79,0.15c-0.88,0.42-1.56,1.17-1.88,2.09C308.64,146.83,308.7,147.84,309.14,148.72L309.14,148.72z"/>
		<path class="st5" d="M164.47,315.2c-4.5-1.37-8.91-3.02-13.21-4.93c-1.84-0.81-3.98,0.02-4.79,1.85
			c-0.81,1.83,0.02,3.98,1.85,4.79c4.56,2.02,9.24,3.78,14.01,5.26c1.92,0.59,3.96-0.49,4.55-2.41
			C167.48,317.83,166.39,315.79,164.47,315.2L164.47,315.2z"/>
		<path class="st5" d="M220.18,318.86c-4.63,0.76-9.29,1.27-13.97,1.53c-2,0-3.63,1.62-3.63,3.63c0,2.01,1.63,3.63,3.63,3.63h0.18
			c4.98-0.25,9.93-0.8,14.85-1.63c2-0.34,3.35-2.24,3.01-4.25c-0.34-2-2.24-3.35-4.25-3.01L220.18,318.86z"/>
		<path class="st5" d="M284.86,114.38c0.68,0.67,1.59,1.05,2.54,1.05c1.46-0.01,2.77-0.88,3.33-2.23c0.56-1.35,0.26-2.9-0.76-3.94
			c-3.54-3.51-7.28-6.81-11.22-9.87c-1.57-1.23-3.85-0.95-5.08,0.62c-0.6,0.76-0.87,1.73-0.76,2.69c0.12,0.96,0.61,1.84,1.37,2.43
			C277.99,108.01,281.52,111.09,284.86,114.38L284.86,114.38z"/>
		<path class="st5" d="M86.18,239.92c-1.53-4.44-2.82-8.96-3.85-13.54c-0.52-1.85-2.4-2.98-4.28-2.56c-1.88,0.42-3.11,2.23-2.8,4.13
			c1.05,4.92,2.42,9.77,4.1,14.52c0.51,1.45,1.87,2.43,3.41,2.43c0.41-0.01,0.81-0.08,1.2-0.22c0.94-0.32,1.7-1.01,2.12-1.91
			C86.51,241.88,86.54,240.85,86.18,239.92L86.18,239.92z"/>
		<path class="st5" d="M250.27,90.43c4.27,1.96,8.43,4.17,12.45,6.6c1.7,1.03,3.92,0.5,4.97-1.2c1.03-1.71,0.5-3.93-1.2-4.97
			c-4.25-2.6-8.65-4.94-13.17-7.01c-1.83-0.84-3.99-0.05-4.83,1.78c-0.84,1.83-0.05,3.98,1.78,4.83L250.27,90.43z"/>
		<path class="st5" d="M302.39,136.38c0.66,1.06,1.83,1.71,3.08,1.71c0.68,0,1.35-0.19,1.92-0.54c0.82-0.51,1.4-1.32,1.62-2.26
			c0.22-0.94,0.05-1.93-0.46-2.75c-2.63-4.24-5.51-8.31-8.64-12.19c-1.25-1.55-3.52-1.82-5.08-0.58c-0.74,0.62-1.21,1.5-1.3,2.46
			c-0.09,0.96,0.21,1.92,0.83,2.66C297.27,128.54,299.95,132.38,302.39,136.38L302.39,136.38z"/>
		<path class="st5" d="M223.52,81.75c4.62,0.94,9.17,2.15,13.65,3.63c0.36,0.11,0.74,0.17,1.12,0.18c2.01,0.31,3.88-1.06,4.19-3.07
			c0.31-2.01-1.06-3.88-3.07-4.19c-4.76-1.49-9.61-2.71-14.52-3.63c-1.96-0.38-3.86,0.9-4.25,2.87
			C220.3,79.5,221.57,81.37,223.52,81.75L223.52,81.75z"/>
		<path class="st5" d="M195.5,79.54c4.7-0.16,9.4-0.06,14.08,0.29h0.29h0c1.91,0,3.5-1.47,3.63-3.38c0.15-1.99-1.35-3.73-3.34-3.88
			c-4.96-0.4-9.94-0.51-14.92-0.33c-0.96,0.04-1.87,0.45-2.53,1.15c-0.66,0.7-1.01,1.64-0.97,2.6c0.07,2.01,1.75,3.57,3.75,3.5
			L195.5,79.54z"/>
		<path class="st5" d="M305.76,200c0-28.05-11.14-54.95-30.98-74.79c-19.83-19.84-46.73-30.98-74.79-30.98s-54.95,11.14-74.79,30.98
			c-19.84,19.83-30.98,46.73-30.98,74.79s11.14,54.95,30.98,74.79c19.83,19.84,46.73,30.98,74.79,30.98
			c28.04-0.03,54.92-11.18,74.75-31.01S305.73,228.04,305.76,200L305.76,200z M200,298.5c-26.12,0-51.18-10.38-69.65-28.85
			S101.5,226.12,101.5,200s10.38-51.18,28.85-69.65s43.53-28.85,69.65-28.85s51.18,10.38,69.65,28.85
			c18.47,18.47,28.85,43.53,28.85,69.65c-0.02,26.12-10.4,51.16-28.87,69.63S226.12,298.48,200,298.5L200,298.5z"/>
		<path class="st5" d="M263.59,174.27l-37.49-12.12l-23.16-31.94h0c-0.68-0.94-1.77-1.5-2.94-1.5s-2.26,0.56-2.94,1.5l-23.16,31.94
			l-37.49,12.12c-1.11,0.35-1.99,1.21-2.36,2.32c-0.35,1.11-0.15,2.33,0.55,3.27l23.19,31.87l0,39.45
			c-0.06,1.19,0.47,2.34,1.42,3.06c0.95,0.73,2.2,0.94,3.33,0.56L200,242.39l37.49,12.23v0c1.11,0.36,2.32,0.17,3.27-0.51
			c0.94-0.69,1.49-1.78,1.49-2.94v-39.45l23.08-31.87c0.7-0.94,0.9-2.15,0.54-3.27C265.52,175.5,264.67,174.64,263.59,174.27
			L263.59,174.27z M235.64,208.42c-0.45,0.62-0.69,1.37-0.69,2.14v35.61l-33.86-10.89h0c-0.73-0.24-1.52-0.24-2.25,0l-33.86,10.89
			v-35.61c0.03-0.77-0.22-1.53-0.69-2.14l-20.94-28.78l33.86-10.89h0c0.73-0.24,1.37-0.71,1.82-1.34L200,138.52l20.91,28.82
			c0.45,0.63,1.08,1.1,1.81,1.34l33.86,10.89L235.64,208.42z"/>
	</g>
</g>
</svg>
