<svg xmlns="http://www.w3.org/2000/svg" width="512.407" height="470.627" viewBox="0 0 512.407 470.627">
  <g id="Group_6336" data-name="Group 6336" transform="translate(-71.345 -104.125)">
    <g id="Group_6336-2" data-name="Group 6336" transform="translate(71.345 104.125)">
      <path id="Path_33734" data-name="Path 33734" d="M450.676,126.2s-75.111-42.018-161.313-10.119-141.12,114.986-187.4,181.153S62.787,439.919,117.011,483.479s103.351,1.3,187.81,13.194,105.015,27.755,182.852-7.846,109.559-145.552,68.683-237.849S450.676,126.2,450.676,126.2Z" transform="translate(-71.345 -104.125)" fill="#c6ff00"/>
      <path id="Path_33735" data-name="Path 33735" d="M450.676,126.2s-75.111-42.018-161.313-10.119-141.12,114.986-187.4,181.153S62.787,439.919,117.011,483.479s103.351,1.3,187.81,13.194,105.015,27.755,182.852-7.846,109.559-145.552,68.683-237.849S450.676,126.2,450.676,126.2Z" transform="translate(-71.345 -104.125)" fill="#fff" opacity="0.8"/>
    </g>
    <g id="Group_6339" data-name="Group 6339" transform="translate(77.66 232.284)">
      <path id="Path_33736" data-name="Path 33736" d="M278.771,336.4s1.17-33.349,0-37.444-33.347-32.762-33.347-32.762-8.776-59.677-23.988-73.132L97.4,208.269s-8.776,8.191-8.191,34.519S90.968,281.4,84.533,293.1s-12.871,46.22-.585,63.772,16.382,21.646,27.5,21.061S278.771,336.4,278.771,336.4Z" transform="translate(-75.172 -193.059)" fill="#c6ff00"/>
      <g id="Group_6338" data-name="Group 6338">
        <path id="Path_33737" data-name="Path 33737" d="M278.771,336.4s1.17-33.349,0-37.444-33.347-32.762-33.347-32.762-8.776-59.677-23.988-73.132L97.4,208.269s-8.776,8.191-8.191,34.519S90.968,281.4,84.533,293.1s-12.871,46.22-.585,63.772,16.382,21.646,27.5,21.061S278.771,336.4,278.771,336.4Z" transform="translate(-75.172 -193.059)" fill="#fff" opacity="0.7"/>
        <g id="Group_6337" data-name="Group 6337" transform="translate(0 105.894)">
          <path id="Path_33738" data-name="Path 33738" d="M279.326,266.543l-203.6,39.785s4.1,44.464,32.177,40.368S280.5,309.838,279.911,306.913,279.326,266.543,279.326,266.543Z" transform="translate(-75.727 -266.543)" fill="#c6ff00"/>
          <path id="Path_33739" data-name="Path 33739" d="M279.326,266.543l-203.6,39.785s4.1,44.464,32.177,40.368S280.5,309.838,279.911,306.913,279.326,266.543,279.326,266.543Z" transform="translate(-75.727 -266.543)" fill="#fff" opacity="0.5"/>
        </g>
      </g>
    </g>
    <g id="Group_6345" data-name="Group 6345" transform="translate(77.011 114.993)">
      <g id="Group_6344" data-name="Group 6344">
        <g id="Group_6341" data-name="Group 6341" transform="translate(332.506 97.792)">
          <path id="Path_33740" data-name="Path 33740" d="M362.738,211.152s-4.5,123.52,0,125.449,50.179-11.58,52.11-14.8,10.293-123.518,0-123.518S362.738,211.152,362.738,211.152Z" transform="translate(-281.879 -171.255)" fill="#c6ff00"/>
          <path id="Path_33741" data-name="Path 33741" d="M382.369,220.069c3.861,2.572.643,117.086-7.077,126.092s-67.549,20.585-68.836,14.153.644-166.622.644-166.622S378.509,217.5,382.369,220.069Zm56.613-13.51s-63.046-27.664-73.34-27.02-65.62,9.649-58.543,17.369,70.123,21.874,79.772,22.516S438.983,206.559,438.983,206.559Z" transform="translate(-306.015 -179.528)" fill="#c6ff00"/>
          <g id="Group_6340" data-name="Group 6340">
            <path id="Path_33742" data-name="Path 33742" d="M362.738,211.152s-4.5,123.52,0,125.449,50.179-11.58,52.11-14.8,10.293-123.518,0-123.518S362.738,211.152,362.738,211.152Z" transform="translate(-281.879 -171.255)" fill="#fff" opacity="0.5"/>
            <path id="Path_33743" data-name="Path 33743" d="M382.369,220.069c3.861,2.572.643,117.086-7.077,126.092s-67.549,20.585-68.836,14.153.644-166.622.644-166.622S378.509,217.5,382.369,220.069Zm56.613-13.51s-63.046-27.664-73.34-27.02-65.62,9.649-58.543,17.369,70.123,21.874,79.772,22.516S438.983,206.559,438.983,206.559Z" transform="translate(-306.015 -179.528)" fill="#fff" opacity="0.7"/>
          </g>
        </g>
        <g id="Group_6343" data-name="Group 6343">
          <path id="Path_33744" data-name="Path 33744" d="M95.4,207.421S174.081,194.441,214.43,193c14.411,14.411,18.522,52.947,22.124,71.681,0,0,34.077,32.281,34.077,34.957s.961,43.232.961,43.232" transform="translate(-66.4 -75.794)" fill="none" stroke="#263238" stroke-linecap="round" stroke-linejoin="round" stroke-width="1"/>
          <line id="Line_5" data-name="Line 5" y2="196.944" transform="translate(179.253)" fill="none" stroke="#263238" stroke-linecap="round" stroke-linejoin="round" stroke-width="1"/>
          <path id="Path_33745" data-name="Path 33745" d="M83.493,269.8l91.025-14.795L240.2,242.742" transform="translate(-71.653 -53.855)" fill="none" stroke="#263238" stroke-linecap="round" stroke-linejoin="round" stroke-width="1"/>
          <line id="Line_6" data-name="Line 6" y1="37.44" x2="195.841" transform="translate(0 224.741)" fill="none" stroke="#263238" stroke-linecap="round" stroke-linejoin="round" stroke-width="1"/>
          <path id="Path_33746" data-name="Path 33746" d="M121,255.5s31.7,31.7,30.983,36.026l-1.441,45.393" transform="translate(-55.11 -48.229)" fill="none" stroke="#263238" stroke-linecap="round" stroke-linejoin="round" stroke-width="1"/>
          <line id="Line_7" data-name="Line 7" y1="36.042" x2="165.008" transform="translate(28.692 268.087)" fill="none" stroke="#263238" stroke-linecap="round" stroke-linejoin="round" stroke-width="1"/>
          <path id="Path_33747" data-name="Path 33747" d="M307.5,274.3V190l73.494,25.218V330.5" transform="translate(27.146 -77.118)" fill="none" stroke="#263238" stroke-linecap="round" stroke-linejoin="round" stroke-width="1"/>
          <line id="Line_8" data-name="Line 8" y2="79.738" transform="translate(333.926 204.63)" fill="none" stroke="#263238" stroke-linecap="round" stroke-linejoin="round" stroke-width="1"/>
          <path id="Path_33748" data-name="Path 33748" d="M358.5,211.911,417.583,197.5V316.387" transform="translate(49.64 -73.81)" fill="none" stroke="#263238" stroke-linecap="round" stroke-linejoin="round" stroke-width="1"/>
          <path id="Path_33749" data-name="Path 33749" d="M307.5,194.19l63.406-13.69L440.077,205l-59.083,14.411Z" transform="translate(27.146 -81.308)" fill="none" stroke="#263238" stroke-linecap="round" stroke-linejoin="round" stroke-width="1"/>
          <g id="Group_6342" data-name="Group 6342" transform="translate(360.392 125.131)">
            <line id="Line_9" data-name="Line 9" y2="145.787" transform="translate(8.839)" fill="none" stroke="#263238" stroke-linecap="round" stroke-linejoin="round" stroke-width="1"/>
            <path id="Path_33750" data-name="Path 33750" d="M339.168,246.909c0,2.685-1.172,4.862-2.618,4.862s-2.618-2.177-2.618-4.862,1.173-4.864,2.618-4.864S339.168,244.222,339.168,246.909Z" transform="translate(-321.588 -179.294)" fill="#263238"/>
            <path id="Path_33751" data-name="Path 33751" d="M330.6,243.794c0,2.685-1.172,4.862-2.618,4.862s-2.617-2.177-2.617-4.862,1.172-4.864,2.617-4.864S330.6,241.107,330.6,243.794Z" transform="translate(-325.366 -180.668)" fill="#263238"/>
          </g>
        </g>
      </g>
      <line id="Line_10" data-name="Line 10" x2="104.716" y2="52.839" transform="translate(205.192 234.411)" fill="none" stroke="#263238" stroke-linecap="round" stroke-linejoin="round" stroke-width="1"/>
    </g>
    <path id="Path_33752" data-name="Path 33752" d="M375.215,175.059a17.889,17.889,0,0,0-4.055,8.43l-8.139,4.562V166.483l.16.218,12.962-9.488a22.909,22.909,0,0,0,13.661-2.12c6.656-3.584,11.52-15.87,11.52-15.87s-15.87-1.791-21.245,4.864a18.479,18.479,0,0,0-4.411,12.415l-12.647,9.257V149.829a17.583,17.583,0,0,0,9.635-11.629c2.3-8.959-9.984-26.621-9.984-26.621s-12.8,18.173-10.239,27.389a15.375,15.375,0,0,0,9.731,10.854v34.542l-9.128-7.607c.21-1.817.372-7.511-4.7-13.216-6.143-6.911-22.525-6.4-22.525-6.4s6.911,13.823,12.8,18.43c5.145,4.026,12.243,2.385,13.952,1.906l9.6,8v10.5H347.9l5.822,36.387h17.466l5.822-36.387H363.021v-6.946l8.94-5.012c2.176.6,8.25,1.85,14-1.027,7.168-3.582,13.055-11.262,13.055-11.262S381.87,167.379,375.215,175.059Z" transform="translate(112.234 3.288)" fill="#263238"/>
    <g id="Group_6347" data-name="Group 6347" transform="translate(300.41 375.219)">
      <path id="Path_33753" data-name="Path 33753" d="M294.439,348.043l-62.895,18.408a1.728,1.728,0,0,0-.61,2.995l23.475,19.237a10.535,10.535,0,0,0,9.949,1.865L322.008,371.7a1.727,1.727,0,0,0,.6-2.943l-22.158-19.388A6.4,6.4,0,0,0,294.439,348.043Z" transform="translate(-230.302 -267.752)" fill="#263238"/>
      <path id="Path_33754" data-name="Path 33754" d="M255.86,349.157c-7.149,3.139-9.909,12.046-5.235,18.3.04.055.082.109.125.166,4.231,5.5,25.391,8.463,35.126,5.924s11.183-9.531,5.078-14.813c-3.732-3.228-17.352-10.58-27.508-11A16.944,16.944,0,0,0,255.86,349.157Z" transform="translate(-222.356 -267.782)" fill="#fff" stroke="#263238" stroke-linecap="round" stroke-linejoin="round" stroke-width="1"/>
      <path id="Path_33755" data-name="Path 33755" d="M334.424,391.782,288.6,351.77a3.816,3.816,0,0,1,1.49-6.552l92.921-25.742a13.7,13.7,0,0,1,12.395,2.653l44.932,37.23Z" transform="translate(-205.164 -280.457)" fill="#c6ff00" stroke="#263238" stroke-linecap="round" stroke-linejoin="round" stroke-width="1"/>
      <g id="Group_6346" data-name="Group 6346" transform="translate(99.799 49.663)">
        <path id="Path_33756" data-name="Path 33756" d="M354.154,344.514l3.627,3.174,7.862-2.069-3.668-3.209Z" transform="translate(-275.475 -319.786)" fill="#263238"/>
        <path id="Path_33757" data-name="Path 33757" d="M343.4,335.085l7.914-2.023-3.54-3.1-7.882,2.051Z" transform="translate(-281.767 -325.275)" fill="#263238"/>
        <path id="Path_33758" data-name="Path 33758" d="M346.527,330.287l3.547,3.1,7.915-2.024-3.579-3.131Z" transform="translate(-278.839 -326.037)" fill="#263238"/>
        <path id="Path_33759" data-name="Path 33759" d="M356.568,331.454l3.8,3.322,7.145-1.827-3.953-3.282Z" transform="translate(-274.41 -325.406)" fill="#263238"/>
        <path id="Path_33760" data-name="Path 33760" d="M360.116,334.575l3.8,3.323,7.355-1.88-3.953-3.283Z" transform="translate(-272.846 -324.053)" fill="#263238"/>
        <path id="Path_33761" data-name="Path 33761" d="M374.864,338.919l-7.533,2.026,3.725,3.259,7.724-2.033Z" transform="translate(-269.663 -321.325)" fill="#263238"/>
        <path id="Path_33762" data-name="Path 33762" d="M368.565,340.638l-7.822,2.1,3.676,3.216,7.862-2.069Z" transform="translate(-272.569 -320.567)" fill="#263238"/>
        <path id="Path_33763" data-name="Path 33763" d="M363.664,337.7l3.982,3.484,7.48-2.012-4.053-3.366Z" transform="translate(-271.281 -322.7)" fill="#263238"/>
        <path id="Path_33764" data-name="Path 33764" d="M353.7,336.554l7.915-2.024-3.8-3.323-7.915,2.024Z" transform="translate(-277.351 -324.727)" fill="#263238"/>
        <path id="Path_33765" data-name="Path 33765" d="M336.142,349.93l-4.561-3.991-7.914,2.023,4.653,4.072Z" transform="translate(-288.922 -318.23)" fill="#263238"/>
        <path id="Path_33766" data-name="Path 33766" d="M331.83,346.157l-3.8-3.322-7.914,2.024,3.8,3.322Z" transform="translate(-290.486 -319.599)" fill="#263238"/>
        <path id="Path_33767" data-name="Path 33767" d="M328.282,343.052l-3.8-3.323-7.914,2.023,3.8,3.323Z" transform="translate(-292.051 -320.968)" fill="#263238"/>
        <path id="Path_33768" data-name="Path 33768" d="M336.718,336.779l7.914-2.023-3.5-3.064-7.882,2.051Z" transform="translate(-284.695 -324.513)" fill="#263238"/>
        <path id="Path_33769" data-name="Path 33769" d="M339.094,352.538l-3.472-3.038-7.822,2.1,3.432,3Z" transform="translate(-287.099 -316.659)" fill="#263238"/>
        <path id="Path_33770" data-name="Path 33770" d="M330.04,338.473l7.914-2.023-3.462-3.03-7.882,2.051Z" transform="translate(-287.624 -323.751)" fill="#263238"/>
        <path id="Path_33771" data-name="Path 33771" d="M323.362,340.167l7.914-2.024-3.424-3-7.882,2.052Z" transform="translate(-290.552 -322.989)" fill="#263238"/>
        <path id="Path_33772" data-name="Path 33772" d="M316.684,341.861l7.914-2.024-3.385-2.961-7.882,2.051Z" transform="translate(-293.48 -322.227)" fill="#263238"/>
        <path id="Path_33773" data-name="Path 33773" d="M343.665,342.849l4.317,3.778,7.822-2.1-4.225-3.7Z" transform="translate(-280.101 -320.485)" fill="#263238"/>
        <path id="Path_33774" data-name="Path 33774" d="M343.235,334.936l3.8,3.322,7.914-2.023-3.8-3.323Z" transform="translate(-280.291 -323.975)" fill="#263238"/>
        <path id="Path_33775" data-name="Path 33775" d="M365.441,345.431l-7.862,2.069,4.021,3.518,7.811-2.114Z" transform="translate(-273.964 -318.453)" fill="#263238"/>
        <path id="Path_33776" data-name="Path 33776" d="M350.581,341.363l7.914-2.023-3.8-3.323-7.914,2.023Z" transform="translate(-278.726 -322.606)" fill="#263238"/>
        <path id="Path_33777" data-name="Path 33777" d="M340.366,339.963l7.914-2.024-3.8-3.323-7.914,2.023Z" transform="translate(-283.231 -323.223)" fill="#263238"/>
        <path id="Path_33778" data-name="Path 33778" d="M353.449,336.335l3.8,3.323,7.914-2.024-3.8-3.323Z" transform="translate(-275.786 -323.357)" fill="#263238"/>
        <path id="Path_33779" data-name="Path 33779" d="M343.169,356.093l-4.217-3.69-7.862,2.069,4.268,3.735Z" transform="translate(-285.648 -315.379)" fill="#263238"/>
        <path id="Path_33780" data-name="Path 33780" d="M358.245,339.121l-7.914,2.023,4.206,3.68,7.822-2.1Z" transform="translate(-277.161 -321.236)" fill="#263238"/>
        <path id="Path_33781" data-name="Path 33781" d="M364.912,337.417,357,339.44l4.094,3.582,7.822-2.1Z" transform="translate(-274.221 -321.988)" fill="#263238"/>
        <path id="Path_33782" data-name="Path 33782" d="M333.7,341.667l7.913-2.023-3.8-3.323-7.914,2.023Z" transform="translate(-286.171 -322.471)" fill="#263238"/>
        <path id="Path_33783" data-name="Path 33783" d="M352.2,348.917l-7.861,2.069,4.145,3.627,7.81-2.113Z" transform="translate(-279.806 -316.916)" fill="#263238"/>
        <path id="Path_33784" data-name="Path 33784" d="M358.819,347.174l-7.863,2.069,4.083,3.572,7.811-2.114Z" transform="translate(-276.885 -317.685)" fill="#263238"/>
        <path id="Path_33785" data-name="Path 33785" d="M327.034,343.372l7.914-2.024-3.8-3.323-7.914,2.023Z" transform="translate(-289.111 -321.72)" fill="#263238"/>
        <path id="Path_33786" data-name="Path 33786" d="M349.73,354.3l-4.156-3.636-7.863,2.069,4.207,3.681Z" transform="translate(-282.727 -316.147)" fill="#263238"/>
        <path id="Path_33787" data-name="Path 33787" d="M355.387,344.182l-7.822,2.1,3.578,3.131,7.862-2.069Z" transform="translate(-278.381 -319.004)" fill="#263238"/>
        <path id="Path_33788" data-name="Path 33788" d="M338.5,344.452l-3.8-3.323-7.914,2.023,3.8,3.323Z" transform="translate(-287.546 -320.35)" fill="#263238"/>
        <path id="Path_33789" data-name="Path 33789" d="M342.7,348.127l-4.449-3.893-7.914,2.024,4.541,3.974Z" transform="translate(-285.982 -318.981)" fill="#263238"/>
        <path id="Path_33790" data-name="Path 33790" d="M345.732,350.808l-3.521-3.081-7.822,2.1,3.481,3.046Z" transform="translate(-284.193 -317.441)" fill="#263238"/>
        <path id="Path_33791" data-name="Path 33791" d="M316.605,348.248l-1.692.433,1.316,1.151,1.692-.433Z" transform="translate(-292.783 -317.211)" fill="#263238"/>
        <path id="Path_33792" data-name="Path 33792" d="M329.587,351.732l-4.673-4.089L317,349.667l4.765,4.169Z" transform="translate(-291.862 -317.478)" fill="#263238"/>
        <path id="Path_33793" data-name="Path 33793" d="M332.457,354.267l-3.424-3-7.822,2.1,3.383,2.96Z" transform="translate(-290.004 -315.877)" fill="#263238"/>
        <path id="Path_33794" data-name="Path 33794" d="M349.25,346.325l-4.337-3.8L337,344.553l4.43,3.876Z" transform="translate(-283.041 -319.733)" fill="#263238"/>
        <path id="Path_33795" data-name="Path 33795" d="M320.819,351.94l-1.673.45,1.3,1.14,1.673-.45Z" transform="translate(-290.915 -315.582)" fill="#263238"/>
        <path id="Path_33796" data-name="Path 33796" d="M325.164,347.861l-3.8-3.322-7.914,2.024,3.8,3.322Z" transform="translate(-293.427 -318.847)" fill="#263238"/>
        <path id="Path_33797" data-name="Path 33797" d="M352.368,349.078l-3.57-3.124-7.821,2.1,3.53,3.089Z" transform="translate(-281.287 -318.222)" fill="#263238"/>
        <path id="Path_33798" data-name="Path 33798" d="M313.058,345.144l-1.693.433,1.316,1.151,1.692-.433Z" transform="translate(-294.347 -318.58)" fill="#263238"/>
        <path id="Path_33799" data-name="Path 33799" d="M337.248,344.771l7.913-2.023-3.8-3.322-7.913,2.023Z" transform="translate(-284.606 -321.102)" fill="#263238"/>
        <path id="Path_33800" data-name="Path 33800" d="M340.058,360.921l-3.87-3.387-7.811,2.114,4.084,3.574Z" transform="translate(-286.844 -313.115)" fill="#263238"/>
        <path id="Path_33801" data-name="Path 33801" d="M329.673,359.315l-8.024,2.171,4.416,3.785,7.738-2.343Z" transform="translate(-289.812 -312.33)" fill="#263238"/>
        <path id="Path_33802" data-name="Path 33802" d="M374.432,347.2l2.268,1.985,7.8-2.362-2.132-1.77Z" transform="translate(-266.531 -318.622)" fill="#263238"/>
        <path id="Path_33803" data-name="Path 33803" d="M327.984,358.21l-1.67.452,1.3,1.14,1.67-.452Z" transform="translate(-287.754 -312.817)" fill="#263238"/>
        <path id="Path_33804" data-name="Path 33804" d="M348.031,337.721l-7.914,2.024,3.8,3.323,7.914-2.023Z" transform="translate(-281.666 -321.854)" fill="#263238"/>
        <path id="Path_33805" data-name="Path 33805" d="M324.074,354.786l-1.681.442,1.309,1.145,1.681-.443Z" transform="translate(-289.484 -314.327)" fill="#263238"/>
        <path id="Path_33806" data-name="Path 33806" d="M321.616,344.757l-3.8-3.323-7.915,2.024,3.8,3.323Z" transform="translate(-294.992 -320.216)" fill="#263238"/>
        <path id="Path_33807" data-name="Path 33807" d="M336.609,357.89l-4.279-3.745-7.862,2.069L328.8,360Z" transform="translate(-288.568 -314.61)" fill="#263238"/>
        <path id="Path_33808" data-name="Path 33808" d="M299.556,342.57l3.325,2.85,8.58-2.194-3.307-2.893Z" transform="translate(-299.556 -320.702)" fill="#263238"/>
        <path id="Path_33809" data-name="Path 33809" d="M364.2,345.758l3.959,3.464,7.811-2.114-3.908-3.419Z" transform="translate(-271.043 -319.222)" fill="#263238"/>
        <path id="Path_33810" data-name="Path 33810" d="M369.085,348.633l-7.811,2.113,2.787,2.439,7.6-2.3Z" transform="translate(-272.335 -317.041)" fill="#263238"/>
        <path id="Path_33811" data-name="Path 33811" d="M375.664,346.853l-7.811,2.114,2.528,2.212,7.6-2.3Z" transform="translate(-269.433 -317.826)" fill="#263238"/>
        <path id="Path_33812" data-name="Path 33812" d="M378.6,341.961l-7.778,2.047,3.9,3.41,7.883-2.133Z" transform="translate(-268.123 -319.984)" fill="#263238"/>
        <path id="Path_33813" data-name="Path 33813" d="M309.509,342.04l-1.692.433,1.316,1.151,1.692-.433Z" transform="translate(-295.912 -319.949)" fill="#263238"/>
        <path id="Path_33814" data-name="Path 33814" d="M349.347,353.974l-7.812,2.114,3.565,3.12,7.6-2.3Z" transform="translate(-281.041 -314.685)" fill="#263238"/>
        <path id="Path_33815" data-name="Path 33815" d="M356.753,331.607l6.936-1.773-3.761-3.124-6.76,1.76Z" transform="translate(-275.911 -326.71)" fill="#263238"/>
        <path id="Path_33816" data-name="Path 33816" d="M362.505,350.413l-7.812,2.114,3.047,2.666,7.6-2.3Z" transform="translate(-275.237 -316.256)" fill="#263238"/>
        <path id="Path_33817" data-name="Path 33817" d="M355.925,352.194l-7.81,2.113,3.306,2.893,7.6-2.3Z" transform="translate(-278.138 -315.471)" fill="#263238"/>
        <path id="Path_33818" data-name="Path 33818" d="M317.633,358.037l4.464,3.826,8.045-2.177-4.341-3.8Z" transform="translate(-291.583 -313.841)" fill="#263238"/>
        <path id="Path_33819" data-name="Path 33819" d="M314.574,338.6l-7.883,2.052,3.314,2.9,7.915-2.024Z" transform="translate(-296.408 -321.464)" fill="#263238"/>
        <path id="Path_33820" data-name="Path 33820" d="M302.79,345.327l3.859,3.307,8.5-2.173-3.8-3.323Z" transform="translate(-298.129 -319.464)" fill="#263238"/>
        <path id="Path_33821" data-name="Path 33821" d="M346.378,358.914l-3.611-3.16-7.811,2.113,3.825,3.347Z" transform="translate(-283.943 -313.9)" fill="#263238"/>
        <path id="Path_33822" data-name="Path 33822" d="M314.361,355.25l3.386,2.9L325.935,356l-3.375-2.953Z" transform="translate(-293.026 -315.096)" fill="#263238"/>
        <path id="Path_33823" data-name="Path 33823" d="M310,351.494l4.96,4.252,8.22-2.211-4.785-4.187Z" transform="translate(-294.949 -316.726)" fill="#263238"/>
        <path id="Path_33824" data-name="Path 33824" d="M306.4,348.411l3.858,3.307,8.416-2.152-3.8-3.322Z" transform="translate(-296.539 -318.095)" fill="#263238"/>
      </g>
      <path id="Path_33825" data-name="Path 33825" d="M347.559,326.945,320,403.573l105.917-32.424,33.728-74.069a3.413,3.413,0,0,0-4.008-4.707L355.192,319.885A11.278,11.278,0,0,0,347.559,326.945Z" transform="translate(-190.74 -292.247)" fill="#c6ff00" stroke="#263238" stroke-linecap="round" stroke-linejoin="round" stroke-width="1"/>
      <path id="Path_33826" data-name="Path 33826" d="M382.531,327.251c1.386,3.3-1.059,7.478-5.462,9.325s-9.1.67-10.482-2.633,1.059-7.478,5.462-9.325S381.144,323.949,382.531,327.251Z" transform="translate(-170.364 -278.355)" fill="#263238"/>
    </g>
    <g id="Group_6349" data-name="Group 6349" transform="translate(174.276 467.09)">
      <path id="Path_33827" data-name="Path 33827" d="M219.628,366.944l-76.855,18.028L189.6,458.335l81.057-16.6Z" transform="translate(-142.772 -351.173)" fill="#fff" stroke="#263238" stroke-linecap="round" stroke-linejoin="round" stroke-width="1"/>
      <g id="Group_6348" data-name="Group 6348" transform="translate(24.826 0)">
        <path id="Path_33828" data-name="Path 33828" d="M160,374.734l56.2,69.891,76.376-24.5L230.612,356Z" transform="translate(-160 -356)" fill="#fff" stroke="#263238" stroke-linecap="round" stroke-linejoin="round" stroke-width="1"/>
        <line id="Line_11" data-name="Line 11" y1="14.377" x2="48.626" transform="translate(20.979 14.685)" fill="none" stroke="#263238" stroke-linecap="round" stroke-linejoin="round" stroke-width="1"/>
        <line id="Line_12" data-name="Line 12" y1="14.378" x2="48.626" transform="translate(28.46 21.418)" fill="none" stroke="#263238" stroke-linecap="round" stroke-linejoin="round" stroke-width="1"/>
        <line id="Line_13" data-name="Line 13" y1="14.377" x2="48.626" transform="translate(35.941 28.15)" fill="none" stroke="#263238" stroke-linecap="round" stroke-linejoin="round" stroke-width="1"/>
        <line id="Line_14" data-name="Line 14" y1="14.377" x2="48.626" transform="translate(43.422 34.883)" fill="none" stroke="#263238" stroke-linecap="round" stroke-linejoin="round" stroke-width="1"/>
        <line id="Line_15" data-name="Line 15" y1="14.377" x2="48.626" transform="translate(50.903 41.616)" fill="none" stroke="#263238" stroke-linecap="round" stroke-linejoin="round" stroke-width="1"/>
        <line id="Line_16" data-name="Line 16" y1="14.377" x2="48.626" transform="translate(58.384 48.349)" fill="none" stroke="#263238" stroke-linecap="round" stroke-linejoin="round" stroke-width="1"/>
        <line id="Line_17" data-name="Line 17" y1="14.377" x2="48.626" transform="translate(65.865 55.082)" fill="none" stroke="#263238" stroke-linecap="round" stroke-linejoin="round" stroke-width="1"/>
      </g>
    </g>
    <g id="Group_6361" data-name="Group 6361" transform="translate(97.748 156.552)">
      <path id="Path_33829" data-name="Path 33829" d="M253.815,225.5,151.5,247.836s5.044,80.7,13.69,113.843c0,0,9,31.9,14.137,41.809l96.483-25.314S261.741,340.784,253.815,225.5Z" transform="translate(-62.395 -103.019)" fill="#263238" stroke="#263238" stroke-linecap="round" stroke-linejoin="round" stroke-width="1"/>
      <g id="Group_6351" data-name="Group 6351" transform="translate(0 110.54)">
        <g id="Group_6350" data-name="Group 6350">
          <path id="Path_33830" data-name="Path 33830" d="M304.576,240.742c-7.94-7.106-17.553-5.433-27.167-9.2a179.473,179.473,0,0,0-20.892-6.292c-1.062-.257-1.677-.395-1.677-.395s-4.179-8.777-11.7-7.524-38.87,22.57-41.378,28.42-2.507,61.439-2.09,80.664c.285,13.088,2.9,23.456,7.7,30.594l-7.613,39.543,106.491-28.34s-7.269-3.754-7.522-25.077c-.049-4.116,1.672-15.046,3.761-27.585a123.751,123.751,0,0,0,1.254-25.077,92.729,92.729,0,0,1,10.867,4.6c5.851,2.925,40.541,17.136,40.541,17.136l10.031-18.389S312.518,247.848,304.576,240.742Z" transform="translate(-41.241 -217.214)" fill="#c6ff00" stroke="#263238" stroke-linecap="round" stroke-linejoin="round" stroke-width="1"/>
          <line id="Line_18" data-name="Line 18" y1="126.572" x2="485.395" transform="translate(0 94.081)" fill="none" stroke="#263238" stroke-linecap="round" stroke-linejoin="round" stroke-width="1"/>
          <path id="Path_33831" data-name="Path 33831" d="M206.213,303.109s9.664-22.738,14.212-42.066" transform="translate(-38.264 -197.883)" fill="none" stroke="#263238" stroke-linecap="round" stroke-linejoin="round" stroke-width="1"/>
          <path id="Path_33832" data-name="Path 33832" d="M203.846,305.754s17.623-17.621,22.738-35.244" transform="translate(-39.308 -193.708)" fill="none" stroke="#263238" stroke-linecap="round" stroke-linejoin="round" stroke-width="1"/>
          <path id="Path_33833" data-name="Path 33833" d="M238.93,311.683s17.206-8.976,24.688-17.206" transform="translate(-23.834 -183.137)" fill="none" stroke="#263238" stroke-linecap="round" stroke-linejoin="round" stroke-width="1"/>
        </g>
        <path id="Path_33834" data-name="Path 33834" d="M217.8,235.507s.945.092,4.29,6.78,7.522,17.553,7.522,17.553l7.524-7.524,7.1,9.613" transform="translate(-33.152 -209.146)" fill="none" stroke="#263238" stroke-linecap="round" stroke-linejoin="round" stroke-width="1"/>
        <path id="Path_33835" data-name="Path 33835" d="M249.88,229.311s3.11,3.588,5.617,11.528S258,250.453,258,250.453l-10.031-2.09-1.672,14.21" transform="translate(-20.582 -211.879)" fill="none" stroke="#263238" stroke-linecap="round" stroke-linejoin="round" stroke-width="1"/>
        <path id="Path_33836" data-name="Path 33836" d="M270.665,253.28l1.672,24.241,3.762-30.928" transform="translate(-9.837 -204.256)" fill="none" stroke="#263238" stroke-linecap="round" stroke-linejoin="round" stroke-width="1"/>
      </g>
      <path id="Path_33837" data-name="Path 33837" d="M249.934,221.888l-3.11,11.191a74.655,74.655,0,0,1,6.346,19.179c2.551,14.032-.128,41.753-.128,41.753s-11.814-26.113-18.653-38.548-9.327-18.653-9.948-24.871,3.729-22.382,4.973-24.249S249.934,221.888,249.934,221.888Z" transform="translate(-30.251 -111.53)" fill="#fff" stroke="#263238" stroke-linecap="round" stroke-linejoin="round" stroke-width="1"/>
      <g id="Group_6353" data-name="Group 6353" transform="translate(119.13)">
        <path id="Path_33838" data-name="Path 33838" d="M296.515,152.627s-21.14-19.9-50.984-8.705-30.465,46.011-30.465,65.907-8.279,52.464-23.822,67.387-21.567,30.852-17.836,47.64,19.274,26.736,30.465,25.492,4.352-50.984,15.545-60.934,25.492-18.652,34.819-46.631a52.947,52.947,0,0,0,10.57-23c2.486-13.678,11.812-35.441,21.761-37.306s13.056,27.979,9.326,39.171-22.384,24.249-23,29.223a55.333,55.333,0,0,1-3.11,11.191s10.818,6.668,29.844,8.705a32.66,32.66,0,0,0,8.083,0s4.434-3.817,16.9-24.347c12.249-20.175.709-70.326-12.97-82.14S296.515,152.627,296.515,152.627Z" transform="translate(-172.335 -140.506)" fill="#263238" stroke="#263238" stroke-linecap="round" stroke-linejoin="round" stroke-width="1"/>
        <g id="Group_6352" data-name="Group 6352" transform="translate(0.634 1.747)">
          <path id="Path_33839" data-name="Path 33839" d="M190.006,239.648a56.152,56.152,0,0,1-6.238,3.056" transform="translate(-167.926 -98.526)" fill="none" stroke="#fff" stroke-linecap="round" stroke-linejoin="round" stroke-width="1"/>
          <path id="Path_33840" data-name="Path 33840" d="M189.56,236.66s-17.359,9.632-16.771,35.493c.389,17.161,11.838,28.4,11.838,28.4" transform="translate(-172.775 -99.844)" fill="none" stroke="#fff" stroke-linecap="round" stroke-linejoin="round" stroke-width="1"/>
          <path id="Path_33841" data-name="Path 33841" d="M227.531,172.534c-6.587,25.6-9.322,58.239-18.358,74.5a55.452,55.452,0,0,1-15.8,17.329" transform="translate(-163.69 -128.127)" fill="none" stroke="#fff" stroke-linecap="round" stroke-linejoin="round" stroke-width="1"/>
          <path id="Path_33842" data-name="Path 33842" d="M278.493,168.623s1.458-7.774-7.775-15.55c-8.779-7.391-41.716-2.924-51.62,20.085" transform="translate(-152.343 -138.155)" fill="none" stroke="#fff" stroke-linecap="round" stroke-linejoin="round" stroke-width="1"/>
          <path id="Path_33843" data-name="Path 33843" d="M261.334,143.561a30.912,30.912,0,0,0-22.168.441c-19.437,7.774-29.642,23.811-31.585,41.3s.486,44.706-7.29,61.715" transform="translate(-160.639 -141.718)" fill="none" stroke="#fff" stroke-linecap="round" stroke-linejoin="round" stroke-width="1"/>
          <path id="Path_33844" data-name="Path 33844" d="M252.731,149.159a31.969,31.969,0,0,0-4.97-3.708" transform="translate(-139.702 -140.072)" fill="none" stroke="#fff" stroke-linecap="round" stroke-linejoin="round" stroke-width="1"/>
          <path id="Path_33845" data-name="Path 33845" d="M277.85,212.986a64.426,64.426,0,0,0,1.056-7.323" transform="translate(-126.431 -113.515)" fill="none" stroke="#fff" stroke-linecap="round" stroke-linejoin="round" stroke-width="1"/>
          <path id="Path_33846" data-name="Path 33846" d="M285.955,215.855c-.732-30.154-23.617-48.61-23.617-48.61" transform="translate(-133.273 -130.46)" fill="none" stroke="#fff" stroke-linecap="round" stroke-linejoin="round" stroke-width="1"/>
        </g>
      </g>
      <g id="Group_6356" data-name="Group 6356" transform="translate(201.03 34.331)">
        <path id="Path_33847" data-name="Path 33847" d="M273.313,166.368s10.57,23,5.6,41.035-15.545,32.954-23,36.683-26.736-11.812-26.736-11.812,6.217-13.678,6.217-27.98,4.975-31.71,16.166-37.306A26.706,26.706,0,0,1,273.313,166.368Z" transform="translate(-229.169 -164.33)" fill="#fff" stroke="#263238" stroke-linecap="round" stroke-linejoin="round" stroke-width="1"/>
        <path id="Path_33848" data-name="Path 33848" d="M252.37,190.981s-.621,4.626.578,7.923,4.195,5.4,1.8,5.995a29.967,29.967,0,0,1-6.894.3" transform="translate(-220.929 -152.575)" fill="none" stroke="#263238" stroke-linecap="round" stroke-linejoin="round" stroke-width="1"/>
        <path id="Path_33849" data-name="Path 33849" d="M245.28,207.45a10.391,10.391,0,0,0,7.05,1.174" transform="translate(-222.063 -145.312)" fill="none" stroke="#263238" stroke-linecap="round" stroke-linejoin="round" stroke-width="1"/>
        <path id="Path_33850" data-name="Path 33850" d="M244.909,191.989c0,1.654-.738,3-1.649,3s-1.649-1.342-1.649-3,.738-3,1.649-3S244.909,190.334,244.909,191.989Z" transform="translate(-223.681 -153.453)" fill="#263238"/>
        <path id="Path_33851" data-name="Path 33851" d="M259.191,191.333c0,1.656-.738,3-1.649,3s-1.649-1.342-1.649-3,.738-3,1.649-3S259.191,189.679,259.191,191.333Z" transform="translate(-217.382 -153.742)" fill="#263238"/>
        <g id="Group_6354" data-name="Group 6354" transform="translate(35.157 23.557)">
          <path id="Path_33852" data-name="Path 33852" d="M264.822,185.912a1.44,1.44,0,0,1-1.47-.45c-1.14-1.321-2.287-1.961-3.412-1.9-2.069.118-3.729,2.448-3.745,2.471a1.44,1.44,0,1,1-2.376-1.628c.1-.146,2.457-3.526,5.963-3.721,2.065-.114,4,.86,5.754,2.9a1.441,1.441,0,0,1-.713,2.332Z" transform="translate(-253.565 -180.677)" fill="#263238"/>
        </g>
        <g id="Group_6355" data-name="Group 6355" transform="translate(10.805 24.285)">
          <path id="Path_33853" data-name="Path 33853" d="M249.89,186.684a1.726,1.726,0,0,1-1.075-.37c-5.1-4.038-9.149-.543-9.319-.392a1.74,1.74,0,0,1-2.376-.078,1.544,1.544,0,0,1,.081-2.26c2.19-1.943,7.884-4.387,13.768.274a1.545,1.545,0,0,1,.215,2.251A1.717,1.717,0,0,1,249.89,186.684Z" transform="translate(-236.667 -181.182)" fill="#263238"/>
        </g>
        <path id="Path_33854" data-name="Path 33854" d="M253.8,194.4a9.125,9.125,0,1,1-9.126-9.126A9.126,9.126,0,0,1,253.8,194.4Z" transform="translate(-226.355 -155.094)" fill="none" stroke="#263238" stroke-linecap="round" stroke-linejoin="round" stroke-width="1"/>
        <line id="Line_19" data-name="Line 19" x1="2.82" y1="1.175" transform="translate(6.533 39.111)" fill="none" stroke="#263238" stroke-linecap="round" stroke-linejoin="round" stroke-width="1"/>
        <path id="Path_33855" data-name="Path 33855" d="M269.995,193.269a9.125,9.125,0,1,1-9.125-9.125A9.125,9.125,0,0,1,269.995,193.269Z" transform="translate(-219.212 -155.591)" fill="none" stroke="#263238" stroke-linecap="round" stroke-linejoin="round" stroke-width="1"/>
        <path id="Path_33856" data-name="Path 33856" d="M248.215,192.035s2.82-3.483,5.169.512" transform="translate(-220.769 -152.731)" fill="none" stroke="#263238" stroke-linecap="round" stroke-linejoin="round" stroke-width="1"/>
      </g>
      <path id="Path_33857" data-name="Path 33857" d="M215.3,345.309s3.448-27.42,4.905-44.523,2.993-55.528-7.205-59.8-21.495-1.136-26.837,25.468-5.828,86.934-5.828,86.934Z" transform="translate(-49.678 -96.886)" fill="#c6ff00" stroke="#263238" stroke-linecap="round" stroke-linejoin="round" stroke-width="1"/>
      <g id="Group_6357" data-name="Group 6357" transform="translate(134.828 263.135)">
        <path id="Path_33858" data-name="Path 33858" d="M219.665,323.105s47.813,34.48,52.41,34.48,20.062-5.433,26.331-3.761,12.957,14.628,14.21,15.464,3.345,3.345,1.255,4.6-14.63-4.181-16.719-4.181a6.431,6.431,0,0,1-3.343-.836l-5.433-1.254s15.046,7.524,16.3,7.942.418,2.09-3.761,2.09-9.2-2.507-12.121-3.343-3.763-1.672-9.613-1.672-16.718-5.852-16.718-5.852S214.87,351.645,204,348.3s-20.352-12.026-20.77-13.279S208.38,323.524,219.665,323.105Z" transform="translate(-183.228 -323.105)" fill="#fff" stroke="#263238" stroke-linecap="round" stroke-linejoin="round" stroke-width="1"/>
        <path id="Path_33859" data-name="Path 33859" d="M258.6,349.332s16,5.2,20.768,8.388" transform="translate(-149.984 -311.538)" fill="none" stroke="#263238" stroke-linecap="round" stroke-linejoin="round" stroke-width="1"/>
        <path id="Path_33860" data-name="Path 33860" d="M260.021,346.26s9.192,1.022,13.278,4.767" transform="translate(-149.359 -312.892)" fill="none" stroke="#263238" stroke-linecap="round" stroke-linejoin="round" stroke-width="1"/>
      </g>
      <path id="Path_33861" data-name="Path 33861" d="M214.351,306.765s-29.024,5.6-33.2,8.53-3.276,7.985-2.022,10.91,1.254,17.553,5.852,20.9c1.51,1.1,30.092-8.777,35.525-10.031s6.387-8.991,4.3-16.514S222.711,302.168,214.351,306.765Z" transform="translate(-50.673 -67.661)" fill="#c6ff00" stroke="#263238" stroke-linecap="round" stroke-linejoin="round" stroke-width="1"/>
      <path id="Path_33862" data-name="Path 33862" d="M299.764,262.307s-8.36,13.374-8.777,20.479,1.254,7.524,4.181,9.613,16.3,7.942,25.076,8.777,17.137-17.553,17.555-23.406-12.539-15.046-21.734-18.807S300.182,258.964,299.764,262.307Z" transform="translate(-0.902 -88.952)" fill="#c6ff00" stroke="#263238" stroke-linecap="round" stroke-linejoin="round" stroke-width="1"/>
      <path id="Path_33863" data-name="Path 33863" d="M288.723,235.571s53.5,45.14,59.348,54.751-4.179,17.973-11.7,18.391-13.374-7.524-20.9-15.882-35.526-52.244-35.526-52.244Z" transform="translate(-5.743 -98.577)" fill="#fff" stroke="#263238" stroke-linecap="round" stroke-linejoin="round" stroke-width="1"/>
      <g id="Group_6359" data-name="Group 6359" transform="translate(267.516 109.773)">
        <g id="Group_6358" data-name="Group 6358" transform="translate(0 5.348)">
          <path id="Path_33864" data-name="Path 33864" d="M282.41,222.622s-7.1,20.9-7.1,24.241,4.6,5.433,8.776,5.433,7.942-5.851,10.449-12.957,5.433-15.882,2.507-17.971S283.246,220.951,282.41,222.622Z" transform="translate(-275.306 -220.393)" fill="#fff" stroke="#263238" stroke-linecap="round" stroke-linejoin="round" stroke-width="1"/>
          <line id="Line_20" data-name="Line 20" x2="16.3" y2="1.672" transform="translate(5.433 8.498)" fill="none" stroke="#263238" stroke-linecap="round" stroke-linejoin="round" stroke-width="1"/>
          <line id="Line_21" data-name="Line 21" x2="15.464" y2="2.508" transform="translate(3.761 16.439)" fill="none" stroke="#263238" stroke-linecap="round" stroke-linejoin="round" stroke-width="1"/>
          <line id="Line_22" data-name="Line 22" x2="14.21" y2="3.344" transform="translate(1.253 22.291)" fill="none" stroke="#263238" stroke-linecap="round" stroke-linejoin="round" stroke-width="1"/>
        </g>
        <path id="Path_33865" data-name="Path 33865" d="M289.937,217.7a17.078,17.078,0,0,1-2.783-.3c-3.277-.628-10.642-1.7-10.946,1.287-.391,3.845,0,6.728,2.734,6.728h12.1c3.513,0,4.685-2.4,3.9-5.287C294.4,218.119,291.6,217.74,289.937,217.7Z" transform="translate(-274.965 -216.682)" fill="#fff" stroke="#263238" stroke-linecap="round" stroke-linejoin="round" stroke-width="1"/>
      </g>
      <path id="Path_33866" data-name="Path 33866" d="M240.006,224.854a77.688,77.688,0,0,0,.065,10.778" transform="translate(-23.433 -103.304)" fill="none" stroke="#263238" stroke-miterlimit="10" stroke-width="1"/>
      <g id="Group_6360" data-name="Group 6360" transform="translate(238.792 76.272)">
        <path id="Path_33867" data-name="Path 33867" d="M279.024,249.478H266.132a7.866,7.866,0,0,1-7.783-6.731l-2.976-29.011h34.409l-2.977,29.011A7.863,7.863,0,0,1,279.024,249.478Z" transform="translate(-255.373 -184.479)" fill="#fff" stroke="#263238" stroke-linecap="round" stroke-linejoin="round" stroke-width="1"/>
        <path id="Path_33868" data-name="Path 33868" d="M272.132,222.042c-.355-1.757-2.228-3.745-4.108-6.253-3.411-4.548,52.3-1.706,59.118-3.98s-1.7-2.273-2.842-7.39,13.642.569,28.422-.568,9.664-5.116-9.1-9.094-38.086,1.7-31.264,7.957-3.411,3.979-26.148,3.979-23.875,3.979-26.149,11.938a8.157,8.157,0,0,1-1.96,3.411Z" transform="translate(-254.168 -193.434)" fill="#fff" opacity="0.37"/>
      </g>
    </g>
  </g>
</svg>
